<svg viewBox="0 0 600 400" xmlns="http://www.w3.org/2000/svg">
<g transform="translate(50, 360)">
<g>
<path d="M0,-315.14542 L0,-315.14542 L2.5,-310.4967 L5,-306.0037 L7.5,-301.66446 L10,-297.4771 L12.5,-293.4398 L15,-289.55057 L17.5,-285.8076 L20,-282.20895 L22.5,-278.75275 L25,-275.4371 L27.5,-272.26013 L30,-269.2199 L32.5,-266.31458 L35,-263.54227 L37.5,-260.90103 L40,-258.389 L42.5,-256.0043 L45,-253.74501 L47.5,-251.60927 L50,-249.59518 L52.5,-247.70084 L55,-245.92436 L57.5,-244.26385 L60,-242.71744 L62.5,-241.28322 L65,-239.95929 L67.5,-238.74377 L70,-237.63478 L72.5,-236.63042 L75,-235.72878 L77.5,-234.928 L80,-234.22617 L82.5,-233.6214 L85,-233.11182 L87.5,-232.69551 L90,-232.37059 L92.5,-232.13518 L95,-231.98737 L97.5,-231.9253 L100,-231.94704 L102.5,-232.05072 L105,-232.23445 L107.5,-232.49634 L110,-232.83449 L112.5,-233.24701 L115,-233.73201 L117.5,-234.28761 L120,-234.91193 L122.5,-235.60304 L125,-236.35907 L127.5,-237.17813 L130,-238.05833 L132.5,-238.99779 L135,-239.99458 L137.5,-241.04686 L140,-242.15271 L142.5,-243.31023 L145,-244.51755 L147.5,-245.77278 L150,-247.07402 L152.5,-248.41937 L155,-249.80696 L157.5,-251.23488 L160,-252.70125 L162.5,-254.20418 L165,-255.74178 L167.5,-257.31213 L170,-258.9134 L172.5,-260.54364 L175,-262.201 L177.5,-263.88354 L180,-265.58945 L182.5,-267.31674 L185,-269.0636 L187.5,-270.8281 L190,-272.60837 L192.5,-274.40247 L195,-276.2086 L197.5,-278.02475 L200,-279.84915 L202.5,-281.6798 L205,-283.51492 L207.5,-285.3525 L210,-287.19077 L212.5,-289.02774 L215,-290.86157 L217.5,-292.69037 L220,-294.51224 L222.5,-296.32526 L225,-298.12756 L227.5,-299.9173 L230,-301.6925 L232.5,-303.45132 L235,-305.19186 L237.5,-306.91226 L240,-308.61057 L242.5,-310.28494 L245,-311.93347 L247.5,-313.55426 L250,-315.14542 L252.5,-316.70508 L255,-318.23132 L257.5,-319.7223 L260,-321.17606 L262.5,-322.59073 L265,-323.96445 L267.5,-325.29532 L270,-326.58142 L272.5,-327.8209 L275,-329.0118 L277.5,-330.15234 L280,-331.24054 L282.5,-332.27454 L285,-333.2524 L287.5,-334.17233 L290,-335.03235 L292.5,-335.83063 L295,-336.56522 L297.5,-337.23428 L300,-337.8359 L302.5,-338.36816 L305,-338.82922 L307.5,-339.2172 L310,-339.53012 L312.5,-339.76617 L315,-339.92343 L317.5,-340 L320,-339.99402 L322.5,-339.90356 L325,-339.72678 L327.5,-339.46173 L330,-339.10657 L332.5,-338.65936 L335,-338.11826 L337.5,-337.48135 L340,-336.74677 L342.5,-335.91257 L345,-334.9769 L347.5,-333.93787 L350,-332.79358 L352.5,-331.5421 L355,-330.18164 L357.5,-328.71024 L360,-327.126 L362.5,-325.42703 L365,-323.61148 L367.5,-321.67746 L370,-319.62302 L372.5,-317.4463 L375,-315.14542 L377.5,-312.7185 L380,-310.1636 L382.5,-307.47888 L385,-304.6624 L387.5,-301.71234 L390,-298.62677 L392.5,-295.40378 L395,-292.04147 L397.5,-288.53802 L400,-284.89148 L402.5,-281.09995 L405,-277.1616 L407.5,-273.07446 L410,-268.8367 L412.5,-264.4464 L415,-259.9017 L417.5,-255.20067 L420,-250.34145 L422.5,-245.32211 L425,-240.14081 L427.5,-234.79564 L430,-229.28468 L432.5,-223.60608 L435,-217.75792 L437.5,-211.73833 L440,-205.54541 L442.5,-199.17726 L445,-192.632 L447.5,-185.90776 L450,-179.00261 L452.5,-171.91467 L455,-164.64206 L457.5,-157.18288 L460,-149.53525 L462.5,-141.69727 L465,-133.66704 L467.5,-125.44269 L470,-117.02232 L472.5,-108.40404 L475,-99.58595 L477.5,-90.56618 L480,-81.34282 L482.5,-71.91398 L485,-62.27778 L487.5,-52.43232 L490,-42.375713 L492.5,-32.10607 L495,-21.621498 L497.5,-10.920104 L500,0" fill="none" stroke="blue" stroke-width="2"/>
</g>
<g>
<g>
<line stroke="black" stroke-width="1" x1="0" x2="0" y1="0" y2="10"/>
<line stroke="black" stroke-width="1" x1="125" x2="125" y1="0" y2="10"/>
<line stroke="black" stroke-width="1" x1="250" x2="250" y1="0" y2="10"/>
<line stroke="black" stroke-width="1" x1="375" x2="375" y1="0" y2="10"/>
<line stroke="black" stroke-width="1" x1="500" x2="500" y1="0" y2="10"/>
</g>
<line stroke="black" stroke-width="1" x1="0" x2="500" y1="0" y2="0"/>
<g>
<text font-size="12" text-anchor="middle" x="0" y="20">
-1
</text>
<text font-size="12" text-anchor="middle" x="125" y="20">
-0.5
</text>
<text font-size="12" text-anchor="middle" x="250" y="20">
0
</text>
<text font-size="12" text-anchor="middle" x="375" y="20">
0.5
</text>
<text font-size="12" text-anchor="middle" x="500" y="20">
1
</text>
</g>
<text font-size="12" text-anchor="middle" x="250" y="30">

</text>
</g>
<g>
<g>
<line stroke="black" stroke-width="1" x1="0" x2="-10" y1="-15.75727128552455" y2="-15.75727128552455"/>
<line stroke="black" stroke-width="1" x1="0" x2="-10" y1="-78.78635642762268" y2="-78.78635642762268"/>
<line stroke="black" stroke-width="1" x1="0" x2="-10" y1="-141.8154415697208" y2="-141.8154415697208"/>
<line stroke="black" stroke-width="1" x1="0" x2="-10" y1="-204.84452671181896" y2="-204.84452671181896"/>
<line stroke="black" stroke-width="1" x1="0" x2="-10" y1="-267.87361185391717" y2="-267.87361185391717"/>
<line stroke="black" stroke-width="1" x1="0" x2="-10" y1="-330.90269699601527" y2="-330.90269699601527"/>
</g>
<line stroke="black" stroke-0="1" x1="0" x2="0" y1="0" y2="-340"/>
<g>
<text dominant-baseline="middle" font-size="12" text-anchor="end" x="-15" y="-15.75727128552455">
-2
</text>
<text dominant-baseline="middle" font-size="12" text-anchor="end" x="-15" y="-78.78635642762268">
-1.6
</text>
<text dominant-baseline="middle" font-size="12" text-anchor="end" x="-15" y="-141.8154415697208">
-1.2000000000000002
</text>
<text dominant-baseline="middle" font-size="12" text-anchor="end" x="-15" y="-204.84452671181896">
-0.8
</text>
<text dominant-baseline="middle" font-size="12" text-anchor="end" x="-15" y="-267.87361185391717">
-0.4
</text>
<text dominant-baseline="middle" font-size="12" text-anchor="end" x="-15" y="-330.90269699601527">
0
</text>
</g>
<text font-size="12" text-anchor="middle" transform="rotate(-90 -30 -170)" x="-30" y="-170">

</text>
</g>
</g>
</svg>