<svg viewBox="0 0 600 400" xmlns="http://www.w3.org/2000/svg">
<g transform="translate(50, 360)">
<g>
<path d="M0,0 L0,0 L2.5,-1.7 L5,-3.4 L7.5,-5.1 L10,-6.8 L12.5,-8.5 L15,-10.2 L17.5,-11.9 L20,-13.6 L22.5,-15.3 L25,-17 L27.5,-18.7 L30,-20.4 L32.5,-22.1 L35,-23.8 L37.5,-25.5 L40,-27.2 L42.5,-28.9 L45,-30.6 L47.5,-32.3 L50,-34 L52.5,-35.7 L55,-37.4 L57.5,-39.1 L60,-40.8 L62.5,-42.5 L65,-44.2 L67.5,-45.9 L70,-47.6 L72.5,-49.3 L75,-51 L77.5,-52.7 L80,-54.4 L82.5,-56.1 L85,-57.8 L87.5,-59.5 L90,-61.2 L92.5,-62.9 L95,-64.6 L97.5,-66.3 L100,-68 L102.5,-69.7 L105,-71.4 L107.5,-73.1 L110,-74.8 L112.5,-76.5 L115,-78.2 L117.5,-79.9 L120,-81.6 L122.5,-83.3 L125,-85 L127.5,-86.7 L130,-88.4 L132.5,-90.1 L135,-91.8 L137.5,-93.5 L140,-95.2 L142.5,-96.9 L145,-98.6 L147.5,-100.3 L150,-102 L152.5,-103.7 L155,-105.4 L157.5,-107.1 L160,-108.8 L162.5,-110.5 L165,-112.2 L167.5,-113.9 L170,-115.6 L172.5,-117.3 L175,-119 L177.5,-120.7 L180,-122.4 L182.5,-124.1 L185,-125.8 L187.5,-127.5 L190,-129.2 L192.5,-130.9 L195,-132.6 L197.5,-134.3 L200,-136 L202.5,-137.7 L205,-139.4 L207.5,-141.1 L210,-142.8 L212.5,-144.5 L215,-146.2 L217.5,-147.9 L220,-149.6 L222.5,-151.3 L225,-153 L227.5,-154.7 L230,-156.4 L232.5,-158.1 L235,-159.8 L237.5,-161.5 L240,-163.2 L242.5,-164.9 L245,-166.6 L247.5,-168.3 L250,-170 L252.5,-171.7 L255,-173.4 L257.5,-175.1 L260,-176.8 L262.5,-178.5 L265,-180.2 L267.5,-181.9 L270,-183.6 L272.5,-185.3 L275,-187 L277.5,-188.7 L280,-190.4 L282.5,-192.1 L285,-193.8 L287.5,-195.5 L290,-197.2 L292.5,-198.9 L295,-200.6 L297.5,-202.3 L300,-204 L302.5,-205.7 L305,-207.4 L307.5,-209.1 L310,-210.8 L312.5,-212.5 L315,-214.2 L317.5,-215.9 L320,-217.6 L322.5,-219.3 L325,-221 L327.5,-222.7 L330,-224.4 L332.5,-226.1 L335,-227.8 L337.5,-229.5 L340,-231.2 L342.5,-232.9 L345,-234.6 L347.5,-236.3 L350,-238 L352.5,-239.7 L355,-241.4 L357.5,-243.1 L360,-244.8 L362.5,-246.5 L365,-248.2 L367.5,-249.9 L370,-251.6 L372.5,-253.3 L375,-255 L377.5,-256.7 L380,-258.4 L382.5,-260.1 L385,-261.8 L387.5,-263.5 L390,-265.2 L392.5,-266.9 L395,-268.6 L397.5,-270.3 L400,-272 L402.5,-273.7 L405,-275.4 L407.5,-277.1 L410,-278.8 L412.5,-280.5 L415,-282.2 L417.5,-283.9 L420,-285.6 L422.5,-287.3 L425,-289 L427.5,-290.7 L430,-292.4 L432.5,-294.1 L435,-295.8 L437.5,-297.5 L440,-299.2 L442.5,-300.9 L445,-302.6 L447.5,-304.3 L450,-306 L452.5,-307.7 L455,-309.4 L457.5,-311.1 L460,-312.8 L462.5,-314.5 L465,-316.2 L467.5,-317.9 L470,-319.6 L472.5,-321.3 L475,-323 L477.5,-324.7 L480,-326.4 L482.5,-328.1 L485,-329.8 L487.5,-331.5 L490,-333.2 L492.5,-334.9 L495,-336.6 L497.5,-338.3 L500,-340" fill="none" stroke="red" stroke-width="2"/>
</g>
<g>
<path d="M0,-340 L0,-340 L2.5,-336.617 L5,-333.268 L7.5,-329.953 L10,-326.672 L12.5,-323.425 L15,-320.212 L17.5,-317.033 L20,-313.888 L22.5,-310.777 L25,-307.7 L27.5,-304.657 L30,-301.648 L32.5,-298.673 L35,-295.732 L37.5,-292.825 L40,-289.952 L42.5,-287.113 L45,-284.308 L47.5,-281.537 L50,-278.8 L52.5,-276.097 L55,-273.428 L57.5,-270.793 L60,-268.192 L62.5,-265.625 L65,-263.092 L67.5,-260.593 L70,-258.128 L72.5,-255.697 L75,-253.3 L77.5,-250.937 L80,-248.608 L82.5,-246.313 L85,-244.052 L87.5,-241.825 L90,-239.632 L92.5,-237.473 L95,-235.348 L97.5,-233.257 L100,-231.2 L102.5,-229.177 L105,-227.188 L107.5,-225.233 L110,-223.312 L112.5,-221.425 L115,-219.572 L117.5,-217.753 L120,-215.968 L122.5,-214.217 L125,-212.5 L127.5,-210.817 L130,-209.168 L132.5,-207.553 L135,-205.972 L137.5,-204.425 L140,-202.912 L142.5,-201.433 L145,-199.988 L147.5,-198.577 L150,-197.2 L152.5,-195.857 L155,-194.548 L157.5,-193.273 L160,-192.032 L162.5,-190.825 L165,-189.652 L167.5,-188.513 L170,-187.408 L172.5,-186.337 L175,-185.3 L177.5,-184.297 L180,-183.328 L182.5,-182.393 L185,-181.492 L187.5,-180.625 L190,-179.792 L192.5,-178.993 L195,-178.228 L197.5,-177.497 L200,-176.8 L202.5,-176.137 L205,-175.508 L207.5,-174.913 L210,-174.352 L212.5,-173.825 L215,-173.332 L217.5,-172.873 L220,-172.448 L222.5,-172.057 L225,-171.7 L227.5,-171.377 L230,-171.088 L232.5,-170.833 L235,-170.612 L237.5,-170.425 L240,-170.272 L242.5,-170.153 L245,-170.068 L247.5,-170.017 L250,-170 L252.5,-170.017 L255,-170.068 L257.5,-170.153 L260,-170.272 L262.5,-170.425 L265,-170.612 L267.5,-170.833 L270,-171.088 L272.5,-171.377 L275,-171.7 L277.5,-172.057 L280,-172.448 L282.5,-172.873 L285,-173.332 L287.5,-173.825 L290,-174.352 L292.5,-174.913 L295,-175.508 L297.5,-176.137 L300,-176.8 L302.5,-177.497 L305,-178.228 L307.5,-178.993 L310,-179.792 L312.5,-180.625 L315,-181.492 L317.5,-182.393 L320,-183.328 L322.5,-184.297 L325,-185.3 L327.5,-186.337 L330,-187.408 L332.5,-188.513 L335,-189.652 L337.5,-190.825 L340,-192.032 L342.5,-193.273 L345,-194.548 L347.5,-195.857 L350,-197.2 L352.5,-198.577 L355,-199.988 L357.5,-201.433 L360,-202.912 L362.5,-204.425 L365,-205.972 L367.5,-207.553 L370,-209.168 L372.5,-210.817 L375,-212.5 L377.5,-214.217 L380,-215.968 L382.5,-217.753 L385,-219.572 L387.5,-221.425 L390,-223.312 L392.5,-225.233 L395,-227.188 L397.5,-229.177 L400,-231.2 L402.5,-233.257 L405,-235.348 L407.5,-237.473 L410,-239.632 L412.5,-241.825 L415,-244.052 L417.5,-246.313 L420,-248.608 L422.5,-250.937 L425,-253.3 L427.5,-255.697 L430,-258.128 L432.5,-260.593 L435,-263.092 L437.5,-265.625 L440,-268.192 L442.5,-270.793 L445,-273.428 L447.5,-276.097 L450,-278.8 L452.5,-281.537 L455,-284.308 L457.5,-287.113 L460,-289.952 L462.5,-292.825 L465,-295.732 L467.5,-298.673 L470,-301.648 L472.5,-304.657 L475,-307.7 L477.5,-310.777 L480,-313.888 L482.5,-317.033 L485,-320.212 L487.5,-323.425 L490,-326.672 L492.5,-329.953 L495,-333.268 L497.5,-336.617 L500,-340" fill="none" stroke="green" stroke-width="2"/>
</g>
<g>
<path d="M0,0 L0,0 L2.5,-5.04917 L5,-9.99736 L7.5,-14.84559 L10,-19.59488 L12.5,-24.24625 L15,-28.80072 L17.5,-33.25931 L20,-37.62304 L22.5,-41.89293 L25,-46.07 L27.5,-50.15527 L30,-54.14976 L32.5,-58.05449 L35,-61.87048 L37.5,-65.59875 L40,-69.24032 L42.5,-72.79621 L45,-76.26744 L47.5,-79.65503 L50,-82.96 L52.5,-86.18337 L55,-89.32616 L57.5,-92.38939 L60,-95.37408 L62.5,-98.28125 L65,-101.11192 L67.5,-103.86711 L70,-106.54784 L72.5,-109.15513 L75,-111.69 L77.5,-114.15347 L80,-116.54656 L82.5,-118.87029 L85,-121.12568 L87.5,-123.31375 L90,-125.43552 L92.5,-127.49201 L95,-129.48424 L97.5,-131.41322 L100,-133.28 L102.5,-135.08557 L105,-136.83096 L107.5,-138.5172 L110,-140.14528 L112.5,-141.71625 L115,-143.23112 L117.5,-144.6909 L120,-146.09663 L122.5,-147.44933 L125,-148.75 L127.5,-149.99966 L130,-151.19936 L132.5,-152.35008 L135,-153.45288 L137.5,-154.50874 L140,-155.51872 L142.5,-156.48381 L145,-157.40504 L147.5,-158.28343 L150,-159.12 L152.5,-159.91577 L155,-160.67175 L157.5,-161.38899 L160,-162.06848 L162.5,-162.71124 L165,-163.31831 L167.5,-163.89072 L170,-164.42944 L172.5,-164.93553 L175,-165.41 L177.5,-165.85387 L180,-166.26816 L182.5,-166.65388 L185,-167.01208 L187.5,-167.34375 L190,-167.64992 L192.5,-167.93161 L195,-168.18983 L197.5,-168.42563 L200,-168.64 L202.5,-168.83397 L205,-169.00856 L207.5,-169.1648 L210,-169.30368 L212.5,-169.42625 L215,-169.53352 L217.5,-169.62651 L220,-169.70624 L222.5,-169.77373 L225,-169.83 L227.5,-169.87607 L230,-169.91296 L232.5,-169.9417 L235,-169.96329 L237.5,-169.97874 L240,-169.98912 L242.5,-169.9954 L245,-169.99864 L247.5,-169.99983 L250,-170 L252.5,-170.00017 L255,-170.00136 L257.5,-170.0046 L260,-170.01088 L262.5,-170.02126 L265,-170.03671 L267.5,-170.0583 L270,-170.08704 L272.5,-170.12393 L275,-170.17 L277.5,-170.22627 L280,-170.29376 L282.5,-170.37349 L285,-170.46648 L287.5,-170.57375 L290,-170.69632 L292.5,-170.8352 L295,-170.99144 L297.5,-171.16603 L300,-171.36 L302.5,-171.57437 L305,-171.81017 L307.5,-172.06839 L310,-172.35008 L312.5,-172.65625 L315,-172.98792 L317.5,-173.34612 L320,-173.73184 L322.5,-174.14613 L325,-174.59 L327.5,-175.06447 L330,-175.57056 L332.5,-176.10928 L335,-176.68169 L337.5,-177.28876 L340,-177.93152 L342.5,-178.61101 L345,-179.32825 L347.5,-180.08423 L350,-180.88 L352.5,-181.71657 L355,-182.59496 L357.5,-183.51619 L360,-184.48128 L362.5,-185.49126 L365,-186.54712 L367.5,-187.64992 L370,-188.80064 L372.5,-190.00034 L375,-191.25 L377.5,-192.55067 L380,-193.90337 L382.5,-195.3091 L385,-196.76888 L387.5,-198.28375 L390,-199.85472 L392.5,-201.4828 L395,-203.16904 L397.5,-204.91443 L400,-206.72 L402.5,-208.58678 L405,-210.51576 L407.5,-212.508 L410,-214.56448 L412.5,-216.68625 L415,-218.87431 L417.5,-221.12971 L420,-223.45345 L422.5,-225.84653 L425,-228.31 L427.5,-230.84486 L430,-233.45216 L432.5,-236.13289 L435,-238.88808 L437.5,-241.71875 L440,-244.62592 L442.5,-247.61061 L445,-250.67384 L447.5,-253.81664 L450,-257.04 L452.5,-260.34497 L455,-263.73257 L457.5,-267.2038 L460,-270.75967 L462.5,-274.40125 L465,-278.12952 L467.5,-281.9455 L470,-285.85025 L472.5,-289.84473 L475,-293.93 L477.5,-298.10706 L480,-302.37695 L482.5,-306.7407 L485,-311.19928 L487.5,-315.75375 L490,-320.40512 L492.5,-325.15442 L495,-330.00266 L497.5,-334.95084 L500,-340" fill="none" stroke="blue" stroke-width="2"/>
</g>
<g>
<g>
<line stroke="black" stroke-width="1" x1="0" x2="0" y1="0" y2="10"/>
<line stroke="black" stroke-width="1" x1="125" x2="125" y1="0" y2="10"/>
<line stroke="black" stroke-width="1" x1="250" x2="250" y1="0" y2="10"/>
<line stroke="black" stroke-width="1" x1="375" x2="375" y1="0" y2="10"/>
<line stroke="black" stroke-width="1" x1="500" x2="500" y1="0" y2="10"/>
</g>
<line stroke="black" stroke-width="1" x1="0" x2="500" y1="0" y2="0"/>
<g>
<text font-size="12" text-anchor="middle" x="0" y="20">
-1
</text>
<text font-size="12" text-anchor="middle" x="125" y="20">
-0.5
</text>
<text font-size="12" text-anchor="middle" x="250" y="20">
0
</text>
<text font-size="12" text-anchor="middle" x="375" y="20">
0.5
</text>
<text font-size="12" text-anchor="middle" x="500" y="20">
1
</text>
</g>
<text font-size="12" text-anchor="middle" x="250" y="30">

</text>
</g>
<g>
<g>
<line stroke="black" stroke-width="1" x1="0" x2="-10" y1="0" y2="0"/>
<line stroke="black" stroke-width="1" x1="0" x2="-10" y1="-85" y2="-85"/>
<line stroke="black" stroke-width="1" x1="0" x2="-10" y1="-170" y2="-170"/>
<line stroke="black" stroke-width="1" x1="0" x2="-10" y1="-255" y2="-255"/>
<line stroke="black" stroke-width="1" x1="0" x2="-10" y1="-340" y2="-340"/>
</g>
<line stroke="black" stroke-0="1" x1="0" x2="0" y1="0" y2="-340"/>
<g>
<text dominant-baseline="middle" font-size="12" text-anchor="end" x="-15" y="0">
-1
</text>
<text dominant-baseline="middle" font-size="12" text-anchor="end" x="-15" y="-85">
-0.5
</text>
<text dominant-baseline="middle" font-size="12" text-anchor="end" x="-15" y="-170">
0
</text>
<text dominant-baseline="middle" font-size="12" text-anchor="end" x="-15" y="-255">
0.5
</text>
<text dominant-baseline="middle" font-size="12" text-anchor="end" x="-15" y="-340">
1
</text>
</g>
<text font-size="12" text-anchor="middle" transform="rotate(-90 -30 -170)" x="-30" y="-170">

</text>
</g>
</g>
</svg>