<svg viewBox="0 0 600 400" xmlns="http://www.w3.org/2000/svg">
<g transform="translate(50, 360)">
<g>
<path d="M0,0 L0,0 L2.5,-0.025415 L5,-0.10132 L7.5,-0.227205 L10,-0.40256 L12.5,-0.626875 L15,-0.89964 L17.5,-1.220345 L20,-1.58848 L22.5,-2.003535 L25,-2.465 L27.5,-2.972365 L30,-3.52512 L32.5,-4.122755 L35,-4.76476 L37.5,-5.450625 L40,-6.17984 L42.5,-6.951895 L45,-7.76628 L47.5,-8.622485 L50,-9.52 L52.5,-10.458315 L55,-11.43692 L57.5,-12.455305 L60,-13.51296 L62.5,-14.609375 L65,-15.74404 L67.5,-16.916445 L70,-18.12608 L72.5,-19.372435 L75,-20.655 L77.5,-21.973265 L80,-23.32672 L82.5,-24.714855 L85,-26.13716 L87.5,-27.593124 L90,-29.08224 L92.5,-30.603994 L95,-32.15788 L97.5,-33.743385 L100,-35.36 L102.5,-37.007214 L105,-38.68452 L107.5,-40.391403 L110,-42.12736 L112.5,-43.891876 L115,-45.68444 L117.5,-47.504543 L120,-49.35168 L122.5,-51.225334 L125,-53.125 L127.5,-55.050163 L130,-57.00032 L132.5,-58.974957 L135,-60.97356 L137.5,-62.995625 L140,-65.04064 L142.5,-67.10809 L145,-69.19748 L147.5,-71.30829 L150,-73.44 L152.5,-75.59212 L155,-77.76412 L157.5,-79.955505 L160,-82.16576 L162.5,-84.39438 L165,-86.64084 L167.5,-88.90465 L170,-91.18528 L172.5,-93.48224 L175,-95.795 L177.5,-98.12306 L180,-100.46592 L182.5,-102.82305 L185,-105.19396 L187.5,-107.578125 L190,-109.97504 L192.5,-112.38419 L195,-114.80508 L197.5,-117.23718 L200,-119.68 L202.5,-122.13302 L205,-124.59572 L207.5,-127.067604 L210,-129.54816 L212.5,-132.03688 L215,-134.53323 L217.5,-137.03674 L220,-139.54688 L222.5,-142.06314 L225,-144.585 L227.5,-147.11197 L230,-149.64352 L232.5,-152.17915 L235,-154.71835 L237.5,-157.26062 L240,-159.80544 L242.5,-162.3523 L245,-164.90068 L247.5,-167.45009 L250,-170 L252.5,-172.54991 L255,-175.09932 L257.5,-177.6477 L260,-180.19456 L262.5,-182.73938 L265,-185.28165 L267.5,-187.82085 L270,-190.35648 L272.5,-192.88803 L275,-195.415 L277.5,-197.93686 L280,-200.45313 L282.5,-202.96326 L285,-205.46677 L287.5,-207.96312 L290,-210.45184 L292.5,-212.93239 L295,-215.40428 L297.5,-217.86699 L300,-220.32 L302.5,-222.76282 L305,-225.19492 L307.5,-227.6158 L310,-230.02496 L312.5,-232.42188 L315,-234.80605 L317.5,-237.17694 L320,-239.53407 L322.5,-241.87694 L325,-244.205 L327.5,-246.51776 L330,-248.81471 L332.5,-251.09535 L335,-253.35916 L337.5,-255.60562 L340,-257.83423 L342.5,-260.0445 L345,-262.23587 L347.5,-264.4079 L350,-266.56 L352.5,-268.6917 L355,-270.80252 L357.5,-272.8919 L360,-274.95935 L362.5,-277.00436 L365,-279.02643 L367.5,-281.02505 L370,-282.9997 L372.5,-284.94983 L375,-286.875 L377.5,-288.77466 L380,-290.64832 L382.5,-292.49545 L385,-294.31555 L387.5,-296.10812 L390,-297.87265 L392.5,-299.60858 L395,-301.3155 L397.5,-302.9928 L400,-304.64 L402.5,-306.25662 L405,-307.84213 L407.5,-309.396 L410,-310.91776 L412.5,-312.40686 L415,-313.86285 L417.5,-315.28516 L420,-316.67328 L422.5,-318.02673 L425,-319.345 L427.5,-320.62756 L430,-321.87393 L432.5,-323.08356 L435,-324.25595 L437.5,-325.39063 L440,-326.48703 L442.5,-327.5447 L445,-328.56308 L447.5,-329.5417 L450,-330.48 L452.5,-331.3775 L455,-332.23373 L457.5,-333.0481 L460,-333.82016 L462.5,-334.54938 L465,-335.23523 L467.5,-335.87726 L470,-336.47488 L472.5,-337.02765 L475,-337.535 L477.5,-337.99646 L480,-338.41153 L482.5,-338.77966 L485,-339.10037 L487.5,-339.37314 L490,-339.59744 L492.5,-339.7728 L495,-339.89868 L497.5,-339.97458 L500,-340" fill="none" stroke="red" stroke-width="2"/>
</g>
<g>
<g>
<line stroke="black" stroke-width="1" x1="0" x2="0" y1="0" y2="10"/>
<line stroke="black" stroke-width="1" x1="100" x2="100" y1="0" y2="10"/>
<line stroke="black" stroke-width="1" x1="200" x2="200" y1="0" y2="10"/>
<line stroke="black" stroke-width="1" x1="300.00000000000006" x2="300.00000000000006" y1="0" y2="10"/>
<line stroke="black" stroke-width="1" x1="400" x2="400" y1="0" y2="10"/>
<line stroke="black" stroke-width="1" x1="500" x2="500" y1="0" y2="10"/>
</g>
<line stroke="black" stroke-width="1" x1="0" x2="500" y1="0" y2="0"/>
<g>
<text font-size="12" text-anchor="middle" x="0" y="20">
0
</text>
<text font-size="12" text-anchor="middle" x="100" y="20">
0.2
</text>
<text font-size="12" text-anchor="middle" x="200" y="20">
0.4
</text>
<text font-size="12" text-anchor="middle" x="300.00000000000006" y="20">
0.6000000000000001
</text>
<text font-size="12" text-anchor="middle" x="400" y="20">
0.8
</text>
<text font-size="12" text-anchor="middle" x="500" y="20">
1
</text>
</g>
<text font-size="12" text-anchor="middle" x="250" y="30">

</text>
</g>
<g>
<g>
<line stroke="black" stroke-width="1" x1="0" x2="-10" y1="0" y2="0"/>
<line stroke="black" stroke-width="1" x1="0" x2="-10" y1="-68" y2="-68"/>
<line stroke="black" stroke-width="1" x1="0" x2="-10" y1="-136" y2="-136"/>
<line stroke="black" stroke-width="1" x1="0" x2="-10" y1="-204.00000000000003" y2="-204.00000000000003"/>
<line stroke="black" stroke-width="1" x1="0" x2="-10" y1="-272" y2="-272"/>
<line stroke="black" stroke-width="1" x1="0" x2="-10" y1="-340" y2="-340"/>
</g>
<line stroke="black" stroke-0="1" x1="0" x2="0" y1="0" y2="-340"/>
<g>
<text dominant-baseline="middle" font-size="12" text-anchor="end" x="-15" y="0">
0
</text>
<text dominant-baseline="middle" font-size="12" text-anchor="end" x="-15" y="-68">
0.2
</text>
<text dominant-baseline="middle" font-size="12" text-anchor="end" x="-15" y="-136">
0.4
</text>
<text dominant-baseline="middle" font-size="12" text-anchor="end" x="-15" y="-204.00000000000003">
0.6000000000000001
</text>
<text dominant-baseline="middle" font-size="12" text-anchor="end" x="-15" y="-272">
0.8
</text>
<text dominant-baseline="middle" font-size="12" text-anchor="end" x="-15" y="-340">
1
</text>
</g>
<text font-size="12" text-anchor="middle" transform="rotate(-90 -30 -170)" x="-30" y="-170">

</text>
</g>
</g>
</svg>