<svg viewBox="0 0 600 400" xmlns="http://www.w3.org/2000/svg">
<g transform="translate(50, 360)">
<g>
<path d="M0,0 L0,0 L2.5,-11.7229805 L5,-23.097782 L7.5,-34.133064 L10,-44.83732 L12.5,-55.218857 L15,-65.285835 L17.5,-75.04623 L20,-84.50786 L22.5,-93.67839 L25,-102.56532 L27.5,-111.175995 L30,-119.51762 L32.5,-127.59722 L35,-135.4217 L37.5,-142.99782 L40,-150.33215 L42.5,-157.4312 L45,-164.30125 L47.5,-170.94852 L50,-177.37906 L52.5,-183.59877 L55,-189.61346 L57.5,-195.42879 L60,-201.0503 L62.5,-206.4834 L65,-211.73337 L67.5,-216.8054 L70,-221.70454 L72.5,-226.43573 L75,-231.00378 L77.5,-235.41344 L80,-239.66928 L82.5,-243.77582 L85,-247.73743 L87.5,-251.55841 L90,-255.24294 L92.5,-258.7951 L95,-262.2189 L97.5,-265.51822 L100,-268.69684 L102.5,-271.75845 L105,-274.7067 L107.5,-277.5451 L110,-280.27707 L112.5,-282.90594 L115,-285.43503 L117.5,-287.86746 L120,-290.20633 L122.5,-292.4547 L125,-294.61548 L127.5,-296.69153 L130,-298.68564 L132.5,-300.60052 L135,-302.43884 L137.5,-304.20313 L140,-305.8959 L142.5,-307.51962 L145,-309.0766 L147.5,-310.56915 L150,-311.99954 L152.5,-313.3699 L155,-314.6824 L157.5,-315.93906 L160,-317.14185 L162.5,-318.29272 L165,-319.3936 L167.5,-320.44623 L170,-321.45245 L172.5,-322.41397 L175,-323.33243 L177.5,-324.20947 L180,-325.04663 L182.5,-325.8455 L185,-326.60745 L187.5,-327.334 L190,-328.02652 L192.5,-328.6863 L195,-329.31467 L197.5,-329.9129 L200,-330.48218 L202.5,-331.02368 L205,-331.53857 L207.5,-332.02795 L210,-332.49286 L212.5,-332.93433 L215,-333.35336 L217.5,-333.7509 L220,-334.12787 L222.5,-334.4852 L225,-334.82373 L227.5,-335.14426 L230,-335.44766 L232.5,-335.73465 L235,-336.00598 L237.5,-336.2624 L240,-336.50455 L242.5,-336.73315 L245,-336.9488 L247.5,-337.15213 L250,-337.34375 L252.5,-337.5242 L255,-337.69403 L257.5,-337.8538 L260,-338.00397 L262.5,-338.14505 L265,-338.2775 L267.5,-338.40173 L270,-338.51822 L272.5,-338.62735 L275,-338.72952 L277.5,-338.8251 L280,-338.91446 L282.5,-338.99792 L285,-339.0758 L287.5,-339.14847 L290,-339.21616 L292.5,-339.2792 L295,-339.33783 L297.5,-339.39233 L300,-339.44293 L302.5,-339.4899 L305,-339.53342 L307.5,-339.5737 L310,-339.611 L312.5,-339.64545 L315,-339.67725 L317.5,-339.70654 L320,-339.73355 L322.5,-339.75842 L325,-339.78125 L327.5,-339.80222 L330,-339.8214 L332.5,-339.83902 L335,-339.8551 L337.5,-339.86978 L340,-339.88318 L342.5,-339.8954 L345,-339.90646 L347.5,-339.91653 L350,-339.92563 L352.5,-339.9339 L355,-339.94135 L357.5,-339.94806 L360,-339.95413 L362.5,-339.95956 L365,-339.96445 L367.5,-339.9688 L370,-339.9727 L372.5,-339.97617 L375,-339.97925 L377.5,-339.982 L380,-339.9844 L382.5,-339.98654 L385,-339.98843 L387.5,-339.99008 L390,-339.99152 L392.5,-339.99277 L395,-339.99387 L397.5,-339.9948 L400,-339.99564 L402.5,-339.99637 L405,-339.99695 L407.5,-339.99747 L410,-339.99792 L412.5,-339.9983 L415,-339.9986 L417.5,-339.99887 L420,-339.99908 L422.5,-339.99927 L425,-339.99942 L427.5,-339.99954 L430,-339.99963 L432.5,-339.99973 L435,-339.9998 L437.5,-339.99985 L440,-339.99988 L442.5,-339.9999 L445,-339.99994 L447.5,-339.99994 L450,-339.99997 L452.5,-339.99997 L455,-339.99997 L457.5,-340 L460,-340 L462.5,-340 L465,-340 L467.5,-340 L470,-340 L472.5,-340 L475,-340 L477.5,-340 L480,-340 L482.5,-340 L485,-340 L487.5,-340 L490,-340 L492.5,-340 L495,-340 L497.5,-340 L500,-340" fill="none" stroke="red" stroke-width="2"/>
</g>
<g>
<g>
<line stroke="black" stroke-width="1" x1="0" x2="0" y1="0" y2="10"/>
<line stroke="black" stroke-width="1" x1="100" x2="100" y1="0" y2="10"/>
<line stroke="black" stroke-width="1" x1="200" x2="200" y1="0" y2="10"/>
<line stroke="black" stroke-width="1" x1="300.00000000000006" x2="300.00000000000006" y1="0" y2="10"/>
<line stroke="black" stroke-width="1" x1="400" x2="400" y1="0" y2="10"/>
<line stroke="black" stroke-width="1" x1="500" x2="500" y1="0" y2="10"/>
</g>
<line stroke="black" stroke-width="1" x1="0" x2="500" y1="0" y2="0"/>
<g>
<text font-size="12" text-anchor="middle" x="0" y="20">
0
</text>
<text font-size="12" text-anchor="middle" x="100" y="20">
0.2
</text>
<text font-size="12" text-anchor="middle" x="200" y="20">
0.4
</text>
<text font-size="12" text-anchor="middle" x="300.00000000000006" y="20">
0.6000000000000001
</text>
<text font-size="12" text-anchor="middle" x="400" y="20">
0.8
</text>
<text font-size="12" text-anchor="middle" x="500" y="20">
1
</text>
</g>
<text font-size="12" text-anchor="middle" x="250" y="30">

</text>
</g>
<g>
<g>
<line stroke="black" stroke-width="1" x1="0" x2="-10" y1="0" y2="0"/>
<line stroke="black" stroke-width="1" x1="0" x2="-10" y1="-68" y2="-68"/>
<line stroke="black" stroke-width="1" x1="0" x2="-10" y1="-136" y2="-136"/>
<line stroke="black" stroke-width="1" x1="0" x2="-10" y1="-204.00000000000003" y2="-204.00000000000003"/>
<line stroke="black" stroke-width="1" x1="0" x2="-10" y1="-272" y2="-272"/>
<line stroke="black" stroke-width="1" x1="0" x2="-10" y1="-340" y2="-340"/>
</g>
<line stroke="black" stroke-0="1" x1="0" x2="0" y1="0" y2="-340"/>
<g>
<text dominant-baseline="middle" font-size="12" text-anchor="end" x="-15" y="0">
0
</text>
<text dominant-baseline="middle" font-size="12" text-anchor="end" x="-15" y="-68">
0.2
</text>
<text dominant-baseline="middle" font-size="12" text-anchor="end" x="-15" y="-136">
0.4
</text>
<text dominant-baseline="middle" font-size="12" text-anchor="end" x="-15" y="-204.00000000000003">
0.6000000000000001
</text>
<text dominant-baseline="middle" font-size="12" text-anchor="end" x="-15" y="-272">
0.8
</text>
<text dominant-baseline="middle" font-size="12" text-anchor="end" x="-15" y="-340">
1
</text>
</g>
<text font-size="12" text-anchor="middle" transform="rotate(-90 -30 -170)" x="-30" y="-170">

</text>
</g>
</g>
</svg>