<svg viewBox="0 0 600 400" xmlns="http://www.w3.org/2000/svg">
<g transform="translate(50, 360)">
<g>
<path d="M0,0 L0,0 L2.5,-0.07498772 L5,-0.29404137 L7.5,-0.6486038 L10,-1.1305152 L12.5,-1.7319982 L15,-2.4456432 L17.5,-3.2643948 L20,-4.1815376 L22.5,-5.190684 L25,-6.28576 L27.5,-7.4609947 L30,-8.710906 L32.5,-10.030292 L35,-11.414216 L37.5,-12.858001 L40,-14.357211 L42.5,-15.907651 L45,-17.505348 L47.5,-19.14655 L50,-20.827703 L52.5,-22.545464 L55,-24.29667 L57.5,-26.078346 L60,-27.887684 L62.5,-29.722046 L65,-31.57895 L67.5,-33.45607 L70,-35.35122 L72.5,-37.262352 L75,-39.187546 L77.5,-41.125015 L80,-43.073082 L82.5,-45.03019 L85,-46.99489 L87.5,-48.96582 L90,-50.94174 L92.5,-52.921482 L95,-54.903976 L97.5,-56.88823 L100,-58.873333 L102.5,-60.858448 L105,-62.842808 L107.5,-64.825714 L110,-66.806526 L112.5,-68.78466 L115,-70.759605 L117.5,-72.73089 L120,-74.69809 L122.5,-76.66083 L125,-78.618774 L127.5,-80.57165 L130,-82.519196 L132.5,-84.4612 L135,-86.397484 L137.5,-88.327896 L140,-90.25231 L142.5,-92.170654 L145,-94.08284 L147.5,-95.98884 L150,-97.88862 L152.5,-99.78218 L155,-101.669556 L157.5,-103.55076 L160,-105.42586 L162.5,-107.294914 L165,-109.158 L167.5,-111.01521 L170,-112.86666 L172.5,-114.71245 L175,-116.552704 L177.5,-118.38755 L180,-120.21714 L182.5,-122.0416 L185,-123.86111 L187.5,-125.6758 L190,-127.48583 L192.5,-129.2914 L195,-131.09265 L197.5,-132.88976 L200,-134.6829 L202.5,-136.47227 L205,-138.25806 L207.5,-140.0404 L210,-141.81952 L212.5,-143.5956 L215,-145.36882 L217.5,-147.13936 L220,-148.90742 L222.5,-150.6732 L225,-152.43687 L227.5,-154.19864 L230,-155.95868 L232.5,-157.7172 L235,-159.47437 L237.5,-161.2304 L240,-162.98546 L242.5,-164.73976 L245,-166.4935 L247.5,-168.24684 L250,-170 L252.5,-171.75316 L255,-173.5065 L257.5,-175.26024 L260,-177.01454 L262.5,-178.7696 L265,-180.52563 L267.5,-182.2828 L270,-184.04132 L272.5,-185.80136 L275,-187.56313 L277.5,-189.3268 L280,-191.09258 L282.5,-192.86064 L285,-194.63118 L287.5,-196.4044 L290,-198.18048 L292.5,-199.9596 L295,-201.74194 L297.5,-203.52773 L300,-205.3171 L302.5,-207.11024 L305,-208.90735 L307.5,-210.7086 L310,-212.51416 L312.5,-214.3242 L315,-216.1389 L317.5,-217.95839 L320,-219.78287 L322.5,-221.61244 L325,-223.4473 L327.5,-225.28755 L330,-227.13335 L332.5,-228.98479 L335,-230.842 L337.5,-232.7051 L340,-234.57414 L342.5,-236.44923 L345,-238.33044 L347.5,-240.21782 L350,-242.11139 L352.5,-244.01117 L355,-245.91716 L357.5,-247.82935 L360,-249.74768 L362.5,-251.6721 L365,-253.60252 L367.5,-255.5388 L370,-257.4808 L372.5,-259.42834 L375,-261.38123 L377.5,-263.33917 L380,-265.3019 L382.5,-267.2691 L385,-269.2404 L387.5,-271.21533 L390,-273.19348 L392.5,-275.1743 L395,-277.1572 L397.5,-279.14154 L400,-281.12668 L402.5,-283.11176 L405,-285.09604 L407.5,-287.07852 L410,-289.05826 L412.5,-291.03418 L415,-293.00513 L417.5,-294.96982 L420,-296.9269 L422.5,-298.875 L425,-300.81244 L427.5,-302.73764 L430,-304.64877 L432.5,-306.5439 L435,-308.42105 L437.5,-310.27795 L440,-312.1123 L442.5,-313.92166 L445,-315.70334 L447.5,-317.45453 L450,-319.1723 L452.5,-320.85345 L455,-322.49466 L457.5,-324.09235 L460,-325.6428 L462.5,-327.142 L465,-328.5858 L467.5,-329.9697 L470,-331.2891 L472.5,-332.539 L475,-333.71423 L477.5,-334.80933 L480,-335.81845 L482.5,-336.7356 L485,-337.55435 L487.5,-338.268 L490,-338.86948 L492.5,-339.3514 L495,-339.70596 L497.5,-339.92502 L500,-340" fill="none" stroke="red" stroke-width="2"/>
</g>
<g>
<g>
<line stroke="black" stroke-width="1" x1="0" x2="0" y1="0" y2="10"/>
<line stroke="black" stroke-width="1" x1="100" x2="100" y1="0" y2="10"/>
<line stroke="black" stroke-width="1" x1="200" x2="200" y1="0" y2="10"/>
<line stroke="black" stroke-width="1" x1="300.00000000000006" x2="300.00000000000006" y1="0" y2="10"/>
<line stroke="black" stroke-width="1" x1="400" x2="400" y1="0" y2="10"/>
<line stroke="black" stroke-width="1" x1="500" x2="500" y1="0" y2="10"/>
</g>
<line stroke="black" stroke-width="1" x1="0" x2="500" y1="0" y2="0"/>
<g>
<text font-size="12" text-anchor="middle" x="0" y="20">
0
</text>
<text font-size="12" text-anchor="middle" x="100" y="20">
0.2
</text>
<text font-size="12" text-anchor="middle" x="200" y="20">
0.4
</text>
<text font-size="12" text-anchor="middle" x="300.00000000000006" y="20">
0.6000000000000001
</text>
<text font-size="12" text-anchor="middle" x="400" y="20">
0.8
</text>
<text font-size="12" text-anchor="middle" x="500" y="20">
1
</text>
</g>
<text font-size="12" text-anchor="middle" x="250" y="30">

</text>
</g>
<g>
<g>
<line stroke="black" stroke-width="1" x1="0" x2="-10" y1="0" y2="0"/>
<line stroke="black" stroke-width="1" x1="0" x2="-10" y1="-68" y2="-68"/>
<line stroke="black" stroke-width="1" x1="0" x2="-10" y1="-136" y2="-136"/>
<line stroke="black" stroke-width="1" x1="0" x2="-10" y1="-204.00000000000003" y2="-204.00000000000003"/>
<line stroke="black" stroke-width="1" x1="0" x2="-10" y1="-272" y2="-272"/>
<line stroke="black" stroke-width="1" x1="0" x2="-10" y1="-340" y2="-340"/>
</g>
<line stroke="black" stroke-0="1" x1="0" x2="0" y1="0" y2="-340"/>
<g>
<text dominant-baseline="middle" font-size="12" text-anchor="end" x="-15" y="0">
0
</text>
<text dominant-baseline="middle" font-size="12" text-anchor="end" x="-15" y="-68">
0.2
</text>
<text dominant-baseline="middle" font-size="12" text-anchor="end" x="-15" y="-136">
0.4
</text>
<text dominant-baseline="middle" font-size="12" text-anchor="end" x="-15" y="-204.00000000000003">
0.6000000000000001
</text>
<text dominant-baseline="middle" font-size="12" text-anchor="end" x="-15" y="-272">
0.8
</text>
<text dominant-baseline="middle" font-size="12" text-anchor="end" x="-15" y="-340">
1
</text>
</g>
<text font-size="12" text-anchor="middle" transform="rotate(-90 -30 -170)" x="-30" y="-170">

</text>
</g>
</g>
</svg>