<svg viewBox="0 0 600 400" xmlns="http://www.w3.org/2000/svg">
<g transform="translate(50, 360)">
<g>
<path d="M0,0 L0,0 L2.5,-0.0000000000000000006640625 L5,-0.00000000000000034 L7.5,-0.0000000000000130707424 L10,-0.00000000000017408 L12.5,-0.0000000000012969971 L15,-0.00000000000669222 L17.5,-0.000000000026797318 L20,-0.00000000008912896 L22.5,-0.00000000025727143 L25,-0.0000000006640625 L27.5,-0.0000000015658247 L30,-0.0000000034264167 L32.5,-0.0000000070420505 L35,-0.000000013720227 L37.5,-0.000000025528793 L40,-0.000000045634028 L42.5,-0.000000078749764 L45,-0.00000013172297 L47.5,-0.0000002142848 L50,-0.00000034 L52.5,-0.0000005274516 L55,-0.00000080170224 L57.5,-0.000001196078 L60,-0.0000017543254 L62.5,-0.0000025331974 L65,-0.0000036055299 L67.5,-0.0000050638732 L70,-0.000007024756 L72.5,-0.000009633652 L75,-0.000013070742 L77.5,-0.000017557562 L80,-0.000023364622 L82.5,-0.000030820127 L85,-0.00004031988 L87.5,-0.00005233851 L90,-0.00006744216 L92.5,-0.000086302716 L95,-0.000109713816 L97.5,-0.00013860868 L100,-0.00017408 L102.5,-0.00021740206 L105,-0.00027005523 L107.5,-0.00033375292 L110,-0.00041047155 L112.5,-0.0005024832 L115,-0.0006123919 L117.5,-0.0007431726 L120,-0.0008982146 L122.5,-0.0010813684 L125,-0.0012969971 L127.5,-0.0015500316 L130,-0.0018460313 L132.5,-0.0021912493 L135,-0.002592703 L137.5,-0.0030582512 L140,-0.0035966751 L142.5,-0.0042177676 L145,-0.0049324296 L147.5,-0.0057527707 L150,-0.00669222 L152.5,-0.0077656438 L155,-0.008989472 L157.5,-0.01038183 L160,-0.011962687 L162.5,-0.013754005 L165,-0.015779905 L167.5,-0.018066838 L170,-0.020643778 L172.5,-0.023542402 L175,-0.026797317 L177.5,-0.03044627 L180,-0.034530386 L182.5,-0.039094415 L185,-0.04418699 L187.5,-0.049860924 L190,-0.056173474 L192.5,-0.063186675 L195,-0.070967644 L197.5,-0.07958895 L200,-0.08912896 L202.5,-0.09967222 L205,-0.111309856 L207.5,-0.12414002 L210,-0.13826828 L212.5,-0.15380813 L215,-0.1708815 L217.5,-0.18961917 L220,-0.21016143 L222.5,-0.23265855 L225,-0.2572714 L227.5,-0.28417215 L230,-0.31354466 L232.5,-0.3455855 L235,-0.38050437 L237.5,-0.418525 L240,-0.45988587 L242.5,-0.5048409 L245,-0.55366063 L247.5,-0.60663253 L250,-0.6640625 L252.5,-0.7262754 L255,-0.7936162 L257.5,-0.86645097 L260,-0.945168 L262.5,-1.0301789 L265,-1.1219196 L267.5,-1.2208518 L270,-1.327464 L272.5,-1.4422729 L275,-1.5658246 L277.5,-1.6986964 L280,-1.8414977 L282.5,-1.9948716 L285,-2.159497 L287.5,-2.3360896 L290,-2.525404 L292.5,-2.7282345 L295,-2.9454186 L297.5,-3.177837 L300,-3.4264166 L302.5,-3.6921325 L305,-3.9760096 L307.5,-4.2791247 L310,-4.6026096 L312.5,-4.9476514 L315,-5.315497 L317.5,-5.707454 L320,-6.1248956 L322.5,-6.5692587 L325,-7.0420504 L327.5,-7.5448503 L330,-8.079311 L332.5,-8.647164 L335,-9.250221 L337.5,-9.890378 L340,-10.569614 L342.5,-11.290003 L345,-12.05371 L347.5,-12.862997 L350,-13.720226 L352.5,-14.627866 L355,-15.5884905 L357.5,-16.604786 L360,-17.679558 L362.5,-18.815725 L365,-20.01634 L367.5,-21.284575 L370,-22.62374 L372.5,-24.037283 L375,-25.528793 L377.5,-27.102009 L380,-28.760818 L382.5,-30.509272 L385,-32.351578 L387.5,-34.292114 L390,-36.335434 L392.5,-38.48627 L395,-40.749542 L397.5,-43.13036 L400,-45.63403 L402.5,-48.26606 L405,-51.032177 L407.5,-53.938316 L410,-56.990646 L412.5,-60.19556 L415,-63.55969 L417.5,-67.089905 L420,-70.79336 L422.5,-74.67742 L425,-78.74976 L427.5,-83.01832 L430,-87.491325 L432.5,-92.17728 L435,-97.085014 L437.5,-102.223656 L440,-107.60265 L442.5,-113.23179 L445,-119.12118 L447.5,-125.281296 L450,-131.72296 L452.5,-138.45738 L455,-145.49614 L457.5,-152.85117 L460,-160.53487 L462.5,-168.56 L465,-176.93977 L467.5,-185.68782 L470,-194.81824 L472.5,-204.34555 L475,-214.2848 L477.5,-224.65147 L480,-235.46156 L482.5,-246.73158 L485,-258.47855 L487.5,-270.72006 L490,-283.47424 L492.5,-296.75974 L495,-310.59586 L497.5,-325.00244 L500,-340" fill="none" stroke="red" stroke-width="2"/>
</g>
<g>
<g>
<line stroke="black" stroke-width="1" x1="0" x2="0" y1="0" y2="10"/>
<line stroke="black" stroke-width="1" x1="100" x2="100" y1="0" y2="10"/>
<line stroke="black" stroke-width="1" x1="200" x2="200" y1="0" y2="10"/>
<line stroke="black" stroke-width="1" x1="300.00000000000006" x2="300.00000000000006" y1="0" y2="10"/>
<line stroke="black" stroke-width="1" x1="400" x2="400" y1="0" y2="10"/>
<line stroke="black" stroke-width="1" x1="500" x2="500" y1="0" y2="10"/>
</g>
<line stroke="black" stroke-width="1" x1="0" x2="500" y1="0" y2="0"/>
<g>
<text font-size="12" text-anchor="middle" x="0" y="20">
0
</text>
<text font-size="12" text-anchor="middle" x="100" y="20">
0.2
</text>
<text font-size="12" text-anchor="middle" x="200" y="20">
0.4
</text>
<text font-size="12" text-anchor="middle" x="300.00000000000006" y="20">
0.6000000000000001
</text>
<text font-size="12" text-anchor="middle" x="400" y="20">
0.8
</text>
<text font-size="12" text-anchor="middle" x="500" y="20">
1
</text>
</g>
<text font-size="12" text-anchor="middle" x="250" y="30">

</text>
</g>
<g>
<g>
<line stroke="black" stroke-width="1" x1="0" x2="-10" y1="0" y2="0"/>
<line stroke="black" stroke-width="1" x1="0" x2="-10" y1="-68" y2="-68"/>
<line stroke="black" stroke-width="1" x1="0" x2="-10" y1="-136" y2="-136"/>
<line stroke="black" stroke-width="1" x1="0" x2="-10" y1="-204.00000000000003" y2="-204.00000000000003"/>
<line stroke="black" stroke-width="1" x1="0" x2="-10" y1="-272" y2="-272"/>
<line stroke="black" stroke-width="1" x1="0" x2="-10" y1="-340" y2="-340"/>
</g>
<line stroke="black" stroke-0="1" x1="0" x2="0" y1="0" y2="-340"/>
<g>
<text dominant-baseline="middle" font-size="12" text-anchor="end" x="-15" y="0">
0
</text>
<text dominant-baseline="middle" font-size="12" text-anchor="end" x="-15" y="-68">
0.2
</text>
<text dominant-baseline="middle" font-size="12" text-anchor="end" x="-15" y="-136">
0.4
</text>
<text dominant-baseline="middle" font-size="12" text-anchor="end" x="-15" y="-204.00000000000003">
0.6000000000000001
</text>
<text dominant-baseline="middle" font-size="12" text-anchor="end" x="-15" y="-272">
0.8
</text>
<text dominant-baseline="middle" font-size="12" text-anchor="end" x="-15" y="-340">
1
</text>
</g>
<text font-size="12" text-anchor="middle" transform="rotate(-90 -30 -170)" x="-30" y="-170">

</text>
</g>
</g>
</svg>