<svg viewBox="0 0 600 400" xmlns="http://www.w3.org/2000/svg">
<g transform="translate(50, 360)">
<g>
<path d="M0,0 L0,0 L2.5,-0.06682183 L5,-0.26266804 L7.5,-0.58081603 L10,-1.0148114 L12.5,-1.5584596 L15,-2.2058177 L17.5,-2.9511862 L20,-3.7891018 L22.5,-4.714329 L25,-5.721853 L27.5,-6.8068724 L30,-7.9647937 L32.5,-9.191221 L35,-10.481953 L37.5,-11.8329735 L40,-13.240447 L42.5,-14.700712 L45,-16.210274 L47.5,-17.7658 L50,-19.364119 L52.5,-21.0022 L55,-22.677164 L57.5,-24.386274 L60,-26.126925 L62.5,-27.896639 L65,-29.693068 L67.5,-31.513983 L70,-33.35727 L72.5,-35.220924 L75,-37.103058 L77.5,-39.00187 L80,-40.915672 L82.5,-42.84287 L85,-44.781948 L87.5,-46.73149 L90,-48.690166 L92.5,-50.65671 L95,-52.62996 L97.5,-54.608795 L100,-56.59219 L102.5,-58.579178 L105,-60.56886 L107.5,-62.560394 L110,-64.553 L112.5,-66.54596 L115,-68.53859 L117.5,-70.53029 L120,-72.52048 L122.5,-74.508644 L125,-76.49429 L127.5,-78.477005 L130,-80.456375 L132.5,-82.432045 L135,-84.40371 L137.5,-86.37106 L140,-88.33386 L142.5,-90.29189 L145,-92.24495 L147.5,-94.19287 L150,-96.13552 L152.5,-98.072784 L155,-100.00458 L157.5,-101.930824 L160,-103.85149 L162.5,-105.76653 L165,-107.67596 L167.5,-109.57977 L170,-111.478004 L172.5,-113.37069 L175,-115.2579 L177.5,-117.13968 L180,-119.016136 L182.5,-120.88735 L185,-122.75344 L187.5,-124.61451 L190,-126.470695 L192.5,-128.32213 L195,-130.16896 L197.5,-132.01134 L200,-133.84941 L202.5,-135.68336 L205,-137.51337 L207.5,-139.33958 L210,-141.1622 L212.5,-142.98141 L215,-144.79742 L217.5,-146.61041 L220,-148.4206 L222.5,-150.22815 L225,-152.03331 L227.5,-153.83629 L230,-155.63727 L232.5,-157.4365 L235,-159.23418 L237.5,-161.03052 L240,-162.82574 L242.5,-164.62009 L245,-166.41377 L247.5,-168.207 L250,-170 L252.5,-171.793 L255,-173.58623 L257.5,-175.37991 L260,-177.17426 L262.5,-178.96948 L265,-180.76582 L267.5,-182.5635 L270,-184.36273 L272.5,-186.16371 L275,-187.96669 L277.5,-189.77185 L280,-191.5794 L282.5,-193.38959 L285,-195.20258 L287.5,-197.01859 L290,-198.8378 L292.5,-200.66042 L295,-202.48663 L297.5,-204.31664 L300,-206.15059 L302.5,-207.98866 L305,-209.83104 L307.5,-211.67787 L310,-213.5293 L312.5,-215.38548 L315,-217.24657 L317.5,-219.11266 L320,-220.98387 L322.5,-222.86032 L325,-224.74211 L327.5,-226.6293 L330,-228.522 L332.5,-230.42023 L335,-232.32404 L337.5,-234.23347 L340,-236.14851 L342.5,-238.06918 L345,-239.99542 L347.5,-241.92722 L350,-243.86449 L352.5,-245.80713 L355,-247.75505 L357.5,-249.70811 L360,-251.66614 L362.5,-253.62894 L365,-255.5963 L367.5,-257.56796 L370,-259.54364 L372.5,-261.523 L375,-263.5057 L377.5,-265.49136 L380,-267.47952 L382.5,-269.4697 L385,-271.4614 L387.5,-273.45404 L390,-275.447 L392.5,-277.4396 L395,-279.43115 L397.5,-281.4208 L400,-283.4078 L402.5,-285.3912 L405,-287.37006 L407.5,-289.3433 L410,-291.30984 L412.5,-293.2685 L415,-295.21805 L417.5,-297.15714 L420,-299.08432 L422.5,-300.99814 L425,-302.89694 L427.5,-304.77908 L430,-306.64273 L432.5,-308.48602 L435,-310.30695 L437.5,-312.10336 L440,-313.87308 L442.5,-315.61374 L445,-317.32285 L447.5,-318.9978 L450,-320.6359 L452.5,-322.2342 L455,-323.78973 L457.5,-325.2993 L460,-326.75955 L462.5,-328.16702 L465,-329.51804 L467.5,-330.80878 L470,-332.03522 L472.5,-333.1931 L475,-334.27814 L477.5,-335.28568 L480,-336.2109 L482.5,-337.04883 L485,-337.7942 L487.5,-338.44153 L490,-338.9852 L492.5,-339.4192 L495,-339.73734 L497.5,-339.93317 L500,-340" fill="none" stroke="red" stroke-width="2"/>
</g>
<g>
<g>
<line stroke="black" stroke-width="1" x1="0" x2="0" y1="0" y2="10"/>
<line stroke="black" stroke-width="1" x1="100" x2="100" y1="0" y2="10"/>
<line stroke="black" stroke-width="1" x1="200" x2="200" y1="0" y2="10"/>
<line stroke="black" stroke-width="1" x1="300.00000000000006" x2="300.00000000000006" y1="0" y2="10"/>
<line stroke="black" stroke-width="1" x1="400" x2="400" y1="0" y2="10"/>
<line stroke="black" stroke-width="1" x1="500" x2="500" y1="0" y2="10"/>
</g>
<line stroke="black" stroke-width="1" x1="0" x2="500" y1="0" y2="0"/>
<g>
<text font-size="12" text-anchor="middle" x="0" y="20">
0
</text>
<text font-size="12" text-anchor="middle" x="100" y="20">
0.2
</text>
<text font-size="12" text-anchor="middle" x="200" y="20">
0.4
</text>
<text font-size="12" text-anchor="middle" x="300.00000000000006" y="20">
0.6000000000000001
</text>
<text font-size="12" text-anchor="middle" x="400" y="20">
0.8
</text>
<text font-size="12" text-anchor="middle" x="500" y="20">
1
</text>
</g>
<text font-size="12" text-anchor="middle" x="250" y="30">

</text>
</g>
<g>
<g>
<line stroke="black" stroke-width="1" x1="0" x2="-10" y1="0" y2="0"/>
<line stroke="black" stroke-width="1" x1="0" x2="-10" y1="-68" y2="-68"/>
<line stroke="black" stroke-width="1" x1="0" x2="-10" y1="-136" y2="-136"/>
<line stroke="black" stroke-width="1" x1="0" x2="-10" y1="-204.00000000000003" y2="-204.00000000000003"/>
<line stroke="black" stroke-width="1" x1="0" x2="-10" y1="-272" y2="-272"/>
<line stroke="black" stroke-width="1" x1="0" x2="-10" y1="-340" y2="-340"/>
</g>
<line stroke="black" stroke-0="1" x1="0" x2="0" y1="0" y2="-340"/>
<g>
<text dominant-baseline="middle" font-size="12" text-anchor="end" x="-15" y="0">
0
</text>
<text dominant-baseline="middle" font-size="12" text-anchor="end" x="-15" y="-68">
0.2
</text>
<text dominant-baseline="middle" font-size="12" text-anchor="end" x="-15" y="-136">
0.4
</text>
<text dominant-baseline="middle" font-size="12" text-anchor="end" x="-15" y="-204.00000000000003">
0.6000000000000001
</text>
<text dominant-baseline="middle" font-size="12" text-anchor="end" x="-15" y="-272">
0.8
</text>
<text dominant-baseline="middle" font-size="12" text-anchor="end" x="-15" y="-340">
1
</text>
</g>
<text font-size="12" text-anchor="middle" transform="rotate(-90 -30 -170)" x="-30" y="-170">

</text>
</g>
</g>
</svg>