<svg viewBox="0 0 600 400" xmlns="http://www.w3.org/2000/svg">
<g transform="translate(50, 360)">
<g>
<path d="M0,0 L0,0 L2.5,-14.997543 L5,-29.404137 L7.5,-43.240253 L10,-56.52576 L12.5,-69.27993 L15,-81.52144 L17.5,-93.268425 L20,-104.538445 L22.5,-115.34853 L25,-125.7152 L27.5,-135.65445 L30,-145.18176 L32.5,-154.31218 L35,-163.06023 L37.5,-171.44 L40,-179.46513 L42.5,-187.14883 L45,-194.50386 L47.5,-201.54262 L50,-208.27704 L52.5,-214.7187 L55,-220.87883 L57.5,-226.76822 L60,-232.39735 L62.5,-237.77635 L65,-242.915 L67.5,-247.82272 L70,-252.50868 L72.5,-256.9817 L75,-261.25024 L77.5,-265.32257 L80,-269.20663 L82.5,-272.9101 L85,-276.4403 L87.5,-279.80444 L90,-283.00934 L92.5,-286.06168 L95,-288.96783 L97.5,-291.73395 L100,-294.36597 L102.5,-296.86963 L105,-299.25046 L107.5,-301.51373 L110,-303.66458 L112.5,-305.7079 L115,-307.64844 L117.5,-309.49072 L120,-311.23917 L122.5,-312.89798 L125,-314.4712 L127.5,-315.9627 L130,-317.37625 L132.5,-318.71542 L135,-319.98367 L137.5,-321.18427 L140,-322.32043 L142.5,-323.3952 L145,-324.4115 L147.5,-325.37213 L150,-326.2798 L152.5,-327.137 L155,-327.9463 L157.5,-328.71 L160,-329.4304 L162.5,-330.10962 L165,-330.7498 L167.5,-331.35284 L170,-331.9207 L172.5,-332.45514 L175,-332.95795 L177.5,-333.43076 L180,-333.8751 L182.5,-334.29254 L185,-334.6845 L187.5,-335.05234 L190,-335.3974 L192.5,-335.7209 L195,-336.024 L197.5,-336.30786 L200,-336.57358 L202.5,-336.82217 L205,-337.0546 L207.5,-337.27176 L210,-337.4746 L212.5,-337.6639 L215,-337.8405 L217.5,-338.00513 L220,-338.1585 L222.5,-338.3013 L225,-338.43417 L227.5,-338.55774 L230,-338.67255 L232.5,-338.77914 L235,-338.87808 L237.5,-338.96982 L240,-339.05484 L242.5,-339.13354 L245,-339.2064 L247.5,-339.2737 L250,-339.33594 L252.5,-339.39337 L255,-339.44635 L257.5,-339.49515 L260,-339.5401 L262.5,-339.58148 L265,-339.6195 L267.5,-339.65442 L270,-339.68646 L272.5,-339.71582 L275,-339.74274 L277.5,-339.76733 L280,-339.78983 L282.5,-339.8104 L285,-339.82913 L287.5,-339.8462 L290,-339.86172 L292.5,-339.87585 L295,-339.8887 L297.5,-339.90033 L300,-339.91086 L302.5,-339.9204 L305,-339.92905 L307.5,-339.9368 L310,-339.94382 L312.5,-339.95013 L315,-339.9558 L317.5,-339.9609 L320,-339.96548 L322.5,-339.96954 L325,-339.9732 L327.5,-339.97647 L330,-339.97937 L332.5,-339.98193 L335,-339.98422 L337.5,-339.98624 L340,-339.98804 L342.5,-339.98962 L345,-339.991 L347.5,-339.99225 L350,-339.99332 L352.5,-339.99423 L355,-339.99506 L357.5,-339.9958 L360,-339.9964 L362.5,-339.99695 L365,-339.9974 L367.5,-339.9978 L370,-339.99817 L372.5,-339.99844 L375,-339.99872 L377.5,-339.99893 L380,-339.9991 L382.5,-339.99927 L385,-339.9994 L387.5,-339.9995 L390,-339.9996 L392.5,-339.99966 L395,-339.99973 L397.5,-339.9998 L400,-339.99982 L402.5,-339.99985 L405,-339.99988 L407.5,-339.9999 L410,-339.99994 L412.5,-339.99994 L415,-339.99997 L417.5,-339.99997 L420,-339.99997 L422.5,-339.99997 L425,-340 L427.5,-340 L430,-340 L432.5,-340 L435,-340 L437.5,-340 L440,-340 L442.5,-340 L445,-340 L447.5,-340 L450,-340 L452.5,-340 L455,-340 L457.5,-340 L460,-340 L462.5,-340 L465,-340 L467.5,-340 L470,-340 L472.5,-340 L475,-340 L477.5,-340 L480,-340 L482.5,-340 L485,-340 L487.5,-340 L490,-340 L492.5,-340 L495,-340 L497.5,-340 L500,-340" fill="none" stroke="red" stroke-width="2"/>
</g>
<g>
<g>
<line stroke="black" stroke-width="1" x1="0" x2="0" y1="0" y2="10"/>
<line stroke="black" stroke-width="1" x1="100" x2="100" y1="0" y2="10"/>
<line stroke="black" stroke-width="1" x1="200" x2="200" y1="0" y2="10"/>
<line stroke="black" stroke-width="1" x1="300.00000000000006" x2="300.00000000000006" y1="0" y2="10"/>
<line stroke="black" stroke-width="1" x1="400" x2="400" y1="0" y2="10"/>
<line stroke="black" stroke-width="1" x1="500" x2="500" y1="0" y2="10"/>
</g>
<line stroke="black" stroke-width="1" x1="0" x2="500" y1="0" y2="0"/>
<g>
<text font-size="12" text-anchor="middle" x="0" y="20">
0
</text>
<text font-size="12" text-anchor="middle" x="100" y="20">
0.2
</text>
<text font-size="12" text-anchor="middle" x="200" y="20">
0.4
</text>
<text font-size="12" text-anchor="middle" x="300.00000000000006" y="20">
0.6000000000000001
</text>
<text font-size="12" text-anchor="middle" x="400" y="20">
0.8
</text>
<text font-size="12" text-anchor="middle" x="500" y="20">
1
</text>
</g>
<text font-size="12" text-anchor="middle" x="250" y="30">

</text>
</g>
<g>
<g>
<line stroke="black" stroke-width="1" x1="0" x2="-10" y1="0" y2="0"/>
<line stroke="black" stroke-width="1" x1="0" x2="-10" y1="-68" y2="-68"/>
<line stroke="black" stroke-width="1" x1="0" x2="-10" y1="-136" y2="-136"/>
<line stroke="black" stroke-width="1" x1="0" x2="-10" y1="-204.00000000000003" y2="-204.00000000000003"/>
<line stroke="black" stroke-width="1" x1="0" x2="-10" y1="-272" y2="-272"/>
<line stroke="black" stroke-width="1" x1="0" x2="-10" y1="-340" y2="-340"/>
</g>
<line stroke="black" stroke-0="1" x1="0" x2="0" y1="0" y2="-340"/>
<g>
<text dominant-baseline="middle" font-size="12" text-anchor="end" x="-15" y="0">
0
</text>
<text dominant-baseline="middle" font-size="12" text-anchor="end" x="-15" y="-68">
0.2
</text>
<text dominant-baseline="middle" font-size="12" text-anchor="end" x="-15" y="-136">
0.4
</text>
<text dominant-baseline="middle" font-size="12" text-anchor="end" x="-15" y="-204.00000000000003">
0.6000000000000001
</text>
<text dominant-baseline="middle" font-size="12" text-anchor="end" x="-15" y="-272">
0.8
</text>
<text dominant-baseline="middle" font-size="12" text-anchor="end" x="-15" y="-340">
1
</text>
</g>
<text font-size="12" text-anchor="middle" transform="rotate(-90 -30 -170)" x="-30" y="-170">

</text>
</g>
</g>
</svg>