<svg viewBox="0 0 600 400" xmlns="http://www.w3.org/2000/svg">
<g transform="translate(50, 360)">
<g>
<path d="M0,0 L0,0 L2.5,-6.74917 L5,-13.397357 L7.5,-19.945572 L10,-26.394825 L12.5,-32.746117 L15,-39.000446 L17.5,-45.1588 L20,-51.222168 L22.5,-57.191536 L25,-63.067875 L27.5,-68.85216 L30,-74.54536 L32.5,-80.14842 L35,-85.662315 L37.5,-91.08799 L40,-96.42639 L42.5,-101.67846 L45,-106.84513 L47.5,-111.92734 L50,-116.926 L52.5,-121.84204 L55,-126.676384 L57.5,-131.42992 L60,-136.10358 L62.5,-140.69824 L65,-145.21481 L67.5,-149.65417 L70,-154.01723 L72.5,-158.30484 L75,-162.51787 L77.5,-166.65723 L80,-170.72374 L82.5,-174.71828 L85,-178.64171 L87.5,-182.49487 L90,-186.2786 L92.5,-189.99374 L95,-193.64114 L97.5,-197.22162 L100,-200.736 L102.5,-204.18509 L105,-207.56972 L107.5,-210.8907 L110,-214.1488 L112.5,-217.34486 L115,-220.47966 L117.5,-223.55397 L120,-226.5686 L122.5,-229.5243 L125,-232.42188 L127.5,-235.26207 L130,-238.04564 L132.5,-240.77336 L135,-243.44598 L137.5,-246.06424 L140,-248.62889 L142.5,-251.14066 L145,-253.60028 L147.5,-256.00848 L150,-258.366 L152.5,-260.67352 L155,-262.9318 L157.5,-265.14148 L160,-267.3033 L162.5,-269.418 L165,-271.48618 L167.5,-273.5086 L170,-275.4859 L172.5,-277.41876 L175,-279.30786 L177.5,-281.1539 L180,-282.95746 L182.5,-284.71927 L185,-286.43994 L187.5,-288.12012 L190,-289.76047 L192.5,-291.3616 L195,-292.92413 L197.5,-294.44873 L200,-295.936 L202.5,-297.38654 L205,-298.80096 L207.5,-300.1799 L210,-301.52393 L212.5,-302.83362 L215,-304.1096 L217.5,-305.35245 L220,-306.5627 L222.5,-307.741 L225,-308.88788 L227.5,-310.00388 L230,-311.0896 L232.5,-312.1456 L235,-313.17236 L237.5,-314.1705 L240,-315.1405 L242.5,-316.08295 L245,-316.99832 L247.5,-317.88718 L250,-318.75 L252.5,-319.58734 L255,-320.3997 L257.5,-321.18753 L260,-321.9514 L262.5,-322.69174 L265,-323.4091 L267.5,-324.10388 L270,-324.77664 L272.5,-325.42783 L275,-326.05786 L277.5,-326.66727 L280,-327.25647 L282.5,-327.82593 L285,-328.37607 L287.5,-328.90738 L290,-329.42023 L292.5,-329.9151 L295,-330.39243 L297.5,-330.85257 L300,-331.296 L302.5,-331.7231 L305,-332.1343 L307.5,-332.52997 L310,-332.91052 L312.5,-333.27637 L315,-333.62784 L317.5,-333.96536 L320,-334.2893 L322.5,-334.6 L325,-334.8979 L327.5,-335.18323 L330,-335.45645 L332.5,-335.7179 L335,-335.96786 L337.5,-336.20676 L340,-336.43484 L342.5,-336.6525 L345,-336.86002 L347.5,-337.05777 L350,-337.246 L352.5,-337.42505 L355,-337.59525 L357.5,-337.75684 L360,-337.91016 L362.5,-338.05548 L365,-338.1931 L367.5,-338.32327 L370,-338.4463 L372.5,-338.5624 L375,-338.67188 L377.5,-338.775 L380,-338.87195 L382.5,-338.96307 L385,-339.04855 L387.5,-339.12863 L390,-339.20352 L392.5,-339.2735 L395,-339.33878 L397.5,-339.39954 L400,-339.456 L402.5,-339.5084 L405,-339.55692 L407.5,-339.60175 L410,-339.64307 L412.5,-339.68112 L415,-339.71603 L417.5,-339.748 L420,-339.7772 L422.5,-339.80374 L425,-339.82788 L427.5,-339.8497 L430,-339.8694 L432.5,-339.88705 L435,-339.9029 L437.5,-339.917 L440,-339.9295 L442.5,-339.94052 L445,-339.95023 L447.5,-339.95868 L450,-339.966 L452.5,-339.97232 L455,-339.9777 L457.5,-339.98224 L460,-339.98608 L462.5,-339.98923 L465,-339.99185 L467.5,-339.99393 L470,-339.9956 L472.5,-339.9969 L475,-339.99786 L477.5,-339.9986 L480,-339.9991 L482.5,-339.99948 L485,-339.99973 L487.5,-339.99988 L490,-339.99994 L492.5,-339.99997 L495,-340 L497.5,-340 L500,-340" fill="none" stroke="red" stroke-width="2"/>
</g>
<g>
<g>
<line stroke="black" stroke-width="1" x1="0" x2="0" y1="0" y2="10"/>
<line stroke="black" stroke-width="1" x1="100" x2="100" y1="0" y2="10"/>
<line stroke="black" stroke-width="1" x1="200" x2="200" y1="0" y2="10"/>
<line stroke="black" stroke-width="1" x1="300.00000000000006" x2="300.00000000000006" y1="0" y2="10"/>
<line stroke="black" stroke-width="1" x1="400" x2="400" y1="0" y2="10"/>
<line stroke="black" stroke-width="1" x1="500" x2="500" y1="0" y2="10"/>
</g>
<line stroke="black" stroke-width="1" x1="0" x2="500" y1="0" y2="0"/>
<g>
<text font-size="12" text-anchor="middle" x="0" y="20">
0
</text>
<text font-size="12" text-anchor="middle" x="100" y="20">
0.2
</text>
<text font-size="12" text-anchor="middle" x="200" y="20">
0.4
</text>
<text font-size="12" text-anchor="middle" x="300.00000000000006" y="20">
0.6000000000000001
</text>
<text font-size="12" text-anchor="middle" x="400" y="20">
0.8
</text>
<text font-size="12" text-anchor="middle" x="500" y="20">
1
</text>
</g>
<text font-size="12" text-anchor="middle" x="250" y="30">

</text>
</g>
<g>
<g>
<line stroke="black" stroke-width="1" x1="0" x2="-10" y1="0" y2="0"/>
<line stroke="black" stroke-width="1" x1="0" x2="-10" y1="-68" y2="-68"/>
<line stroke="black" stroke-width="1" x1="0" x2="-10" y1="-136" y2="-136"/>
<line stroke="black" stroke-width="1" x1="0" x2="-10" y1="-204.00000000000003" y2="-204.00000000000003"/>
<line stroke="black" stroke-width="1" x1="0" x2="-10" y1="-272" y2="-272"/>
<line stroke="black" stroke-width="1" x1="0" x2="-10" y1="-340" y2="-340"/>
</g>
<line stroke="black" stroke-0="1" x1="0" x2="0" y1="0" y2="-340"/>
<g>
<text dominant-baseline="middle" font-size="12" text-anchor="end" x="-15" y="0">
0
</text>
<text dominant-baseline="middle" font-size="12" text-anchor="end" x="-15" y="-68">
0.2
</text>
<text dominant-baseline="middle" font-size="12" text-anchor="end" x="-15" y="-136">
0.4
</text>
<text dominant-baseline="middle" font-size="12" text-anchor="end" x="-15" y="-204.00000000000003">
0.6000000000000001
</text>
<text dominant-baseline="middle" font-size="12" text-anchor="end" x="-15" y="-272">
0.8
</text>
<text dominant-baseline="middle" font-size="12" text-anchor="end" x="-15" y="-340">
1
</text>
</g>
<text font-size="12" text-anchor="middle" transform="rotate(-90 -30 -170)" x="-30" y="-170">

</text>
</g>
</g>
</svg>