<svg viewBox="0 0 600 400" xmlns="http://www.w3.org/2000/svg">
<g transform="translate(50, 360)">
<g>
<path d="M0,0 L0,0 L2.5,-13.364366 L5,-26.266804 L7.5,-38.72107 L10,-50.740574 L12.5,-62.338387 L15,-73.52726 L17.5,-84.31961 L20,-94.72755 L22.5,-104.76286 L25,-114.43705 L27.5,-123.76132 L30,-132.74657 L32.5,-141.4034 L35,-149.74219 L37.5,-157.77298 L40,-165.50558 L42.5,-172.94954 L45,-180.11414 L47.5,-187.0084 L50,-193.64114 L52.5,-200.0209 L55,-206.15598 L57.5,-212.05447 L60,-217.72426 L62.5,-223.17297 L65,-228.40804 L67.5,-233.43668 L70,-238.2659 L72.5,-242.90254 L75,-247.35323 L77.5,-251.62436 L80,-255.7222 L82.5,-259.6528 L85,-263.42206 L87.5,-267.03568 L90,-270.4992 L92.5,-273.81802 L95,-276.9973 L97.5,-280.04218 L100,-282.95746 L102.5,-285.748 L105,-288.4183 L107.5,-290.9729 L110,-293.4161 L112.5,-295.7521 L115,-297.98495 L117.5,-300.1186 L120,-302.15683 L122.5,-304.1033 L125,-305.9616 L127.5,-307.7352 L130,-309.42737 L132.5,-311.04138 L135,-312.58035 L137.5,-314.04727 L140,-315.44507 L142.5,-316.77652 L145,-318.04437 L147.5,-319.25125 L150,-320.3997 L152.5,-321.4921 L155,-322.53085 L157.5,-323.51825 L160,-324.45645 L162.5,-325.3476 L165,-326.1937 L167.5,-326.99673 L170,-327.7586 L172.5,-328.48114 L175,-329.16608 L177.5,-329.8151 L180,-330.42984 L182.5,-331.01187 L185,-331.5627 L187.5,-332.08377 L190,-332.57645 L192.5,-333.04208 L195,-333.48196 L197.5,-333.8973 L200,-334.2893 L202.5,-334.6591 L205,-335.00775 L207.5,-335.33636 L210,-335.64584 L212.5,-335.93723 L215,-336.2114 L217.5,-336.46927 L220,-336.7116 L222.5,-336.9393 L225,-337.15305 L227.5,-337.35364 L230,-337.54175 L232.5,-337.71805 L235,-337.88318 L237.5,-338.03775 L240,-338.18237 L242.5,-338.31757 L245,-338.44388 L247.5,-338.56183 L250,-338.67188 L252.5,-338.77448 L255,-338.8701 L257.5,-338.95908 L260,-339.0419 L262.5,-339.1189 L265,-339.19043 L267.5,-339.2568 L270,-339.3184 L272.5,-339.37546 L275,-339.42828 L277.5,-339.47717 L280,-339.52237 L282.5,-339.5641 L285,-339.6026 L287.5,-339.6381 L290,-339.67078 L292.5,-339.70087 L295,-339.72852 L297.5,-339.7539 L300,-339.7772 L302.5,-339.79852 L305,-339.81802 L307.5,-339.83588 L310,-339.85217 L312.5,-339.86703 L315,-339.88058 L317.5,-339.89288 L320,-339.90408 L322.5,-339.91425 L325,-339.92343 L327.5,-339.93176 L330,-339.93927 L332.5,-339.94608 L335,-339.95218 L337.5,-339.95767 L340,-339.96262 L342.5,-339.96704 L345,-339.971 L347.5,-339.97455 L350,-339.9777 L352.5,-339.9805 L355,-339.983 L357.5,-339.9852 L360,-339.98715 L362.5,-339.9889 L365,-339.9904 L367.5,-339.99173 L370,-339.9929 L372.5,-339.99393 L375,-339.9948 L377.5,-339.99557 L380,-339.99625 L382.5,-339.99683 L385,-339.99734 L387.5,-339.99777 L390,-339.99814 L392.5,-339.99844 L395,-339.99872 L397.5,-339.99893 L400,-339.9991 L402.5,-339.9993 L405,-339.99942 L407.5,-339.99954 L410,-339.99963 L412.5,-339.9997 L415,-339.99976 L417.5,-339.99982 L420,-339.99985 L422.5,-339.99988 L425,-339.9999 L427.5,-339.99994 L430,-339.99994 L432.5,-339.99997 L435,-339.99997 L437.5,-339.99997 L440,-340 L442.5,-340 L445,-340 L447.5,-340 L450,-340 L452.5,-340 L455,-340 L457.5,-340 L460,-340 L462.5,-340 L465,-340 L467.5,-340 L470,-340 L472.5,-340 L475,-340 L477.5,-340 L480,-340 L482.5,-340 L485,-340 L487.5,-340 L490,-340 L492.5,-340 L495,-340 L497.5,-340 L500,-340" fill="none" stroke="red" stroke-width="2"/>
</g>
<g>
<g>
<line stroke="black" stroke-width="1" x1="0" x2="0" y1="0" y2="10"/>
<line stroke="black" stroke-width="1" x1="100" x2="100" y1="0" y2="10"/>
<line stroke="black" stroke-width="1" x1="200" x2="200" y1="0" y2="10"/>
<line stroke="black" stroke-width="1" x1="300.00000000000006" x2="300.00000000000006" y1="0" y2="10"/>
<line stroke="black" stroke-width="1" x1="400" x2="400" y1="0" y2="10"/>
<line stroke="black" stroke-width="1" x1="500" x2="500" y1="0" y2="10"/>
</g>
<line stroke="black" stroke-width="1" x1="0" x2="500" y1="0" y2="0"/>
<g>
<text font-size="12" text-anchor="middle" x="0" y="20">
0
</text>
<text font-size="12" text-anchor="middle" x="100" y="20">
0.2
</text>
<text font-size="12" text-anchor="middle" x="200" y="20">
0.4
</text>
<text font-size="12" text-anchor="middle" x="300.00000000000006" y="20">
0.6000000000000001
</text>
<text font-size="12" text-anchor="middle" x="400" y="20">
0.8
</text>
<text font-size="12" text-anchor="middle" x="500" y="20">
1
</text>
</g>
<text font-size="12" text-anchor="middle" x="250" y="30">

</text>
</g>
<g>
<g>
<line stroke="black" stroke-width="1" x1="0" x2="-10" y1="0" y2="0"/>
<line stroke="black" stroke-width="1" x1="0" x2="-10" y1="-68" y2="-68"/>
<line stroke="black" stroke-width="1" x1="0" x2="-10" y1="-136" y2="-136"/>
<line stroke="black" stroke-width="1" x1="0" x2="-10" y1="-204.00000000000003" y2="-204.00000000000003"/>
<line stroke="black" stroke-width="1" x1="0" x2="-10" y1="-272" y2="-272"/>
<line stroke="black" stroke-width="1" x1="0" x2="-10" y1="-340" y2="-340"/>
</g>
<line stroke="black" stroke-0="1" x1="0" x2="0" y1="0" y2="-340"/>
<g>
<text dominant-baseline="middle" font-size="12" text-anchor="end" x="-15" y="0">
0
</text>
<text dominant-baseline="middle" font-size="12" text-anchor="end" x="-15" y="-68">
0.2
</text>
<text dominant-baseline="middle" font-size="12" text-anchor="end" x="-15" y="-136">
0.4
</text>
<text dominant-baseline="middle" font-size="12" text-anchor="end" x="-15" y="-204.00000000000003">
0.6000000000000001
</text>
<text dominant-baseline="middle" font-size="12" text-anchor="end" x="-15" y="-272">
0.8
</text>
<text dominant-baseline="middle" font-size="12" text-anchor="end" x="-15" y="-340">
1
</text>
</g>
<text font-size="12" text-anchor="middle" transform="rotate(-90 -30 -170)" x="-30" y="-170">

</text>
</g>
</g>
</svg>