<svg viewBox="0 0 600 400" xmlns="http://www.w3.org/2000/svg">
<g transform="translate(50, 360)">
<g>
<path d="M0,0 L0,0 L2.5,-0.058614902 L5,-0.23097782 L7.5,-0.511996 L10,-0.8967464 L12.5,-1.3804715 L15,-1.958575 L17.5,-2.626618 L20,-3.3803144 L22.5,-4.2155275 L25,-5.1282663 L27.5,-6.1146803 L30,-7.171058 L32.5,-8.293821 L35,-9.479522 L37.5,-10.72484 L40,-12.026579 L42.5,-13.381661 L45,-14.7871275 L47.5,-16.240131 L50,-17.737936 L52.5,-19.277914 L55,-20.85754 L57.5,-22.474392 L60,-24.126143 L62.5,-25.810566 L65,-27.525524 L67.5,-29.268969 L70,-31.038944 L72.5,-32.833572 L75,-34.651062 L77.5,-36.4897 L80,-38.34785 L82.5,-40.223953 L85,-42.11652 L87.5,-44.02413 L90,-45.945435 L92.5,-47.87915 L95,-49.824055 L97.5,-51.778988 L100,-53.742847 L102.5,-55.714596 L105,-57.693245 L107.5,-59.677864 L110,-61.66757 L112.5,-63.661533 L115,-65.658966 L117.5,-67.65915 L120,-69.66137 L122.5,-71.665 L125,-73.66943 L127.5,-75.6741 L130,-77.678474 L132.5,-79.682076 L135,-81.68445 L137.5,-83.68518 L140,-85.68388 L142.5,-87.680214 L145,-89.67385 L147.5,-91.664505 L150,-93.65191 L152.5,-95.63584 L155,-97.61609 L157.5,-99.59247 L160,-101.56483 L162.5,-103.53303 L165,-105.49696 L167.5,-107.45654 L170,-109.4117 L172.5,-111.36237 L175,-113.30854 L177.5,-115.25018 L180,-117.18731 L182.5,-119.11994 L185,-121.0481 L187.5,-122.97186 L190,-124.89126 L192.5,-126.80639 L195,-128.71735 L197.5,-130.6242 L200,-132.5271 L202.5,-134.42616 L205,-136.3215 L207.5,-138.21327 L210,-140.10162 L212.5,-141.98672 L215,-143.86873 L217.5,-145.74782 L220,-147.62418 L222.5,-149.49799 L225,-151.36943 L227.5,-153.23874 L230,-155.10608 L232.5,-156.97168 L235,-158.83574 L237.5,-160.69849 L240,-162.56012 L242.5,-164.42087 L245,-166.28096 L247.5,-168.1406 L250,-170 L252.5,-171.8594 L255,-173.71904 L257.5,-175.57913 L260,-177.43988 L262.5,-179.30151 L265,-181.16426 L267.5,-183.02832 L270,-184.89392 L272.5,-186.76126 L275,-188.63057 L277.5,-190.50201 L280,-192.37582 L282.5,-194.25218 L285,-196.13127 L287.5,-198.01328 L290,-199.89838 L292.5,-201.78673 L295,-203.6785 L297.5,-205.57384 L300,-207.4729 L302.5,-209.3758 L305,-211.28265 L307.5,-213.1936 L310,-215.10873 L312.5,-217.02814 L315,-218.95189 L317.5,-220.88007 L320,-222.81268 L322.5,-224.74982 L325,-226.69147 L327.5,-228.63763 L330,-230.5883 L332.5,-232.54346 L335,-234.50304 L337.5,-236.46696 L340,-238.43517 L342.5,-240.40753 L345,-242.38391 L347.5,-244.36415 L350,-246.34808 L352.5,-248.3355 L355,-250.32614 L357.5,-252.31978 L360,-254.31612 L362.5,-256.31482 L365,-258.31555 L367.5,-260.31793 L370,-262.32153 L372.5,-264.3259 L375,-266.33057 L377.5,-268.335 L380,-270.33862 L382.5,-272.34085 L385,-274.34103 L387.5,-276.33847 L390,-278.33243 L392.5,-280.32214 L395,-282.30676 L397.5,-284.2854 L400,-286.25714 L402.5,-288.221 L405,-290.17593 L407.5,-292.12085 L410,-294.05457 L412.5,-295.97586 L415,-297.88348 L417.5,-299.77603 L420,-301.65216 L422.5,-303.51028 L425,-305.34894 L427.5,-307.16644 L430,-308.96106 L432.5,-310.73102 L435,-312.4745 L437.5,-314.18942 L440,-315.87387 L442.5,-317.5256 L445,-319.14246 L447.5,-320.72208 L450,-322.26205 L452.5,-323.75986 L455,-325.21286 L457.5,-326.61835 L460,-327.97342 L462.5,-329.27515 L465,-330.52048 L467.5,-331.70618 L470,-332.82895 L472.5,-333.8853 L475,-334.87173 L477.5,-335.7845 L480,-336.6197 L482.5,-337.37338 L485,-338.0414 L487.5,-338.61954 L490,-339.10324 L492.5,-339.488 L495,-339.769 L497.5,-339.94138 L500,-340" fill="none" stroke="red" stroke-width="2"/>
</g>
<g>
<g>
<line stroke="black" stroke-width="1" x1="0" x2="0" y1="0" y2="10"/>
<line stroke="black" stroke-width="1" x1="100" x2="100" y1="0" y2="10"/>
<line stroke="black" stroke-width="1" x1="200" x2="200" y1="0" y2="10"/>
<line stroke="black" stroke-width="1" x1="300.00000000000006" x2="300.00000000000006" y1="0" y2="10"/>
<line stroke="black" stroke-width="1" x1="400" x2="400" y1="0" y2="10"/>
<line stroke="black" stroke-width="1" x1="500" x2="500" y1="0" y2="10"/>
</g>
<line stroke="black" stroke-width="1" x1="0" x2="500" y1="0" y2="0"/>
<g>
<text font-size="12" text-anchor="middle" x="0" y="20">
0
</text>
<text font-size="12" text-anchor="middle" x="100" y="20">
0.2
</text>
<text font-size="12" text-anchor="middle" x="200" y="20">
0.4
</text>
<text font-size="12" text-anchor="middle" x="300.00000000000006" y="20">
0.6000000000000001
</text>
<text font-size="12" text-anchor="middle" x="400" y="20">
0.8
</text>
<text font-size="12" text-anchor="middle" x="500" y="20">
1
</text>
</g>
<text font-size="12" text-anchor="middle" x="250" y="30">

</text>
</g>
<g>
<g>
<line stroke="black" stroke-width="1" x1="0" x2="-10" y1="0" y2="0"/>
<line stroke="black" stroke-width="1" x1="0" x2="-10" y1="-68" y2="-68"/>
<line stroke="black" stroke-width="1" x1="0" x2="-10" y1="-136" y2="-136"/>
<line stroke="black" stroke-width="1" x1="0" x2="-10" y1="-204.00000000000003" y2="-204.00000000000003"/>
<line stroke="black" stroke-width="1" x1="0" x2="-10" y1="-272" y2="-272"/>
<line stroke="black" stroke-width="1" x1="0" x2="-10" y1="-340" y2="-340"/>
</g>
<line stroke="black" stroke-0="1" x1="0" x2="0" y1="0" y2="-340"/>
<g>
<text dominant-baseline="middle" font-size="12" text-anchor="end" x="-15" y="0">
0
</text>
<text dominant-baseline="middle" font-size="12" text-anchor="end" x="-15" y="-68">
0.2
</text>
<text dominant-baseline="middle" font-size="12" text-anchor="end" x="-15" y="-136">
0.4
</text>
<text dominant-baseline="middle" font-size="12" text-anchor="end" x="-15" y="-204.00000000000003">
0.6000000000000001
</text>
<text dominant-baseline="middle" font-size="12" text-anchor="end" x="-15" y="-272">
0.8
</text>
<text dominant-baseline="middle" font-size="12" text-anchor="end" x="-15" y="-340">
1
</text>
</g>
<text font-size="12" text-anchor="middle" transform="rotate(-90 -30 -170)" x="-30" y="-170">

</text>
</g>
</g>
</svg>