<svg viewBox="0 0 600 400" xmlns="http://www.w3.org/2000/svg">
<g transform="translate(50, 360)">
<g>
<path d="M0,0 L0,0 L2.5,-0.04207712 L5,-0.16663386 L7.5,-0.3711961 L10,-0.6533396 L12.5,-1.0106899 L15,-1.440921 L17.5,-1.9417557 L20,-2.5109646 L22.5,-3.1463661 L25,-3.845825 L27.5,-4.6072526 L30,-5.4286065 L32.5,-6.307889 L35,-7.2431483 L37.5,-8.232476 L40,-9.274008 L42.5,-10.365923 L45,-11.506443 L47.5,-12.693833 L50,-13.9264 L52.5,-15.20249 L55,-16.52049 L57.5,-17.878832 L60,-19.275982 L62.5,-20.71045 L65,-22.180779 L67.5,-23.685555 L70,-25.2234 L72.5,-26.792974 L75,-28.392975 L77.5,-30.022133 L80,-31.679218 L82.5,-33.363033 L85,-35.072414 L87.5,-36.806236 L90,-38.563404 L92.5,-40.342854 L95,-42.143566 L97.5,-43.964535 L100,-45.8048 L102.5,-47.66343 L105,-49.539516 L107.5,-51.43219 L110,-53.34061 L112.5,-55.263958 L115,-57.20145 L117.5,-59.152332 L120,-61.115868 L122.5,-63.09136 L125,-65.078125 L127.5,-67.07552 L130,-69.08292 L132.5,-71.09972 L135,-73.12534 L137.5,-75.15924 L140,-77.2009 L142.5,-79.24979 L145,-81.305435 L147.5,-83.367386 L150,-85.4352 L152.5,-87.50845 L155,-89.58675 L157.5,-91.66971 L160,-93.75698 L162.5,-95.84822 L165,-97.9431 L167.5,-100.04133 L170,-102.14261 L172.5,-104.24667 L175,-106.35327 L177.5,-108.46217 L180,-110.57314 L182.5,-112.68598 L185,-114.8005 L187.5,-116.916504 L190,-119.033844 L192.5,-121.15235 L195,-123.271904 L197.5,-125.39236 L200,-127.5136 L202.5,-129.63553 L205,-131.75803 L207.5,-133.88103 L210,-136.00446 L212.5,-138.12823 L215,-140.25229 L217.5,-142.37657 L220,-144.50105 L222.5,-146.62569 L225,-148.75043 L227.5,-150.87524 L230,-153.00014 L232.5,-155.12508 L235,-157.25003 L237.5,-159.37502 L240,-161.5 L242.5,-163.625 L245,-165.75 L247.5,-167.875 L250,-170 L252.5,-172.125 L255,-174.25 L257.5,-176.375 L260,-178.5 L262.5,-180.62498 L265,-182.74997 L267.5,-184.87492 L270,-186.99986 L272.5,-189.12476 L275,-191.24957 L277.5,-193.37431 L280,-195.49895 L282.5,-197.62343 L285,-199.74771 L287.5,-201.87177 L290,-203.99554 L292.5,-206.11897 L295,-208.24197 L297.5,-210.36447 L300,-212.4864 L302.5,-214.60764 L305,-216.7281 L307.5,-218.84764 L310,-220.96616 L312.5,-223.0835 L315,-225.19951 L317.5,-227.31401 L320,-229.42685 L322.5,-231.53783 L325,-233.64673 L327.5,-235.75333 L330,-237.85739 L332.5,-239.95868 L335,-242.0569 L337.5,-244.15178 L340,-246.24301 L342.5,-248.33029 L345,-250.41325 L347.5,-252.49155 L350,-254.5648 L352.5,-256.6326 L355,-258.69455 L357.5,-260.7502 L360,-262.7991 L362.5,-264.84076 L365,-266.87466 L367.5,-268.90027 L370,-270.91708 L372.5,-272.92447 L375,-274.92188 L377.5,-276.90863 L380,-278.88412 L382.5,-280.84766 L385,-282.79855 L387.5,-284.73605 L390,-286.6594 L392.5,-288.5678 L395,-290.46048 L397.5,-292.33658 L400,-294.1952 L402.5,-296.03546 L405,-297.85645 L407.5,-299.65714 L410,-301.43658 L412.5,-303.19376 L415,-304.92758 L417.5,-306.63696 L420,-308.32077 L422.5,-309.97787 L425,-311.60703 L427.5,-313.20703 L430,-314.7766 L432.5,-316.31445 L435,-317.8192 L437.5,-319.28955 L440,-320.72403 L442.5,-322.12115 L445,-323.47952 L447.5,-324.79752 L450,-326.0736 L452.5,-327.30615 L455,-328.49356 L457.5,-329.63406 L460,-330.72598 L462.5,-331.76752 L465,-332.75687 L467.5,-333.6921 L470,-334.57138 L472.5,-335.39276 L475,-336.15417 L477.5,-336.85364 L480,-337.48904 L482.5,-338.05826 L485,-338.55908 L487.5,-338.98932 L490,-339.34665 L492.5,-339.6288 L495,-339.83337 L497.5,-339.95792 L500,-340" fill="none" stroke="red" stroke-width="2"/>
</g>
<g>
<g>
<line stroke="black" stroke-width="1" x1="0" x2="0" y1="0" y2="10"/>
<line stroke="black" stroke-width="1" x1="100" x2="100" y1="0" y2="10"/>
<line stroke="black" stroke-width="1" x1="200" x2="200" y1="0" y2="10"/>
<line stroke="black" stroke-width="1" x1="300.00000000000006" x2="300.00000000000006" y1="0" y2="10"/>
<line stroke="black" stroke-width="1" x1="400" x2="400" y1="0" y2="10"/>
<line stroke="black" stroke-width="1" x1="500" x2="500" y1="0" y2="10"/>
</g>
<line stroke="black" stroke-width="1" x1="0" x2="500" y1="0" y2="0"/>
<g>
<text font-size="12" text-anchor="middle" x="0" y="20">
0
</text>
<text font-size="12" text-anchor="middle" x="100" y="20">
0.2
</text>
<text font-size="12" text-anchor="middle" x="200" y="20">
0.4
</text>
<text font-size="12" text-anchor="middle" x="300.00000000000006" y="20">
0.6000000000000001
</text>
<text font-size="12" text-anchor="middle" x="400" y="20">
0.8
</text>
<text font-size="12" text-anchor="middle" x="500" y="20">
1
</text>
</g>
<text font-size="12" text-anchor="middle" x="250" y="30">

</text>
</g>
<g>
<g>
<line stroke="black" stroke-width="1" x1="0" x2="-10" y1="0" y2="0"/>
<line stroke="black" stroke-width="1" x1="0" x2="-10" y1="-68" y2="-68"/>
<line stroke="black" stroke-width="1" x1="0" x2="-10" y1="-136" y2="-136"/>
<line stroke="black" stroke-width="1" x1="0" x2="-10" y1="-204.00000000000003" y2="-204.00000000000003"/>
<line stroke="black" stroke-width="1" x1="0" x2="-10" y1="-272" y2="-272"/>
<line stroke="black" stroke-width="1" x1="0" x2="-10" y1="-340" y2="-340"/>
</g>
<line stroke="black" stroke-0="1" x1="0" x2="0" y1="0" y2="-340"/>
<g>
<text dominant-baseline="middle" font-size="12" text-anchor="end" x="-15" y="0">
0
</text>
<text dominant-baseline="middle" font-size="12" text-anchor="end" x="-15" y="-68">
0.2
</text>
<text dominant-baseline="middle" font-size="12" text-anchor="end" x="-15" y="-136">
0.4
</text>
<text dominant-baseline="middle" font-size="12" text-anchor="end" x="-15" y="-204.00000000000003">
0.6000000000000001
</text>
<text dominant-baseline="middle" font-size="12" text-anchor="end" x="-15" y="-272">
0.8
</text>
<text dominant-baseline="middle" font-size="12" text-anchor="end" x="-15" y="-340">
1
</text>
</g>
<text font-size="12" text-anchor="middle" transform="rotate(-90 -30 -170)" x="-30" y="-170">

</text>
</g>
</g>
</svg>