<svg viewBox="0 0 600 400" xmlns="http://www.w3.org/2000/svg">
<g transform="translate(50, 360)">
<g>
<path d="M0,0 L0,0 L2.5,-0.0000000010625 L5,-0.000000034 L7.5,-0.0000002581875 L10,-0.000001088 L12.5,-0.0000033203125 L15,-0.000008262 L17.5,-0.000017857437 L20,-0.000034816 L22.5,-0.000062739564 L25,-0.00010625 L27.5,-0.00017111668 L30,-0.000264384 L32.5,-0.0003944988 L35,-0.000571438 L37.5,-0.00080683595 L40,-0.001114112 L42.5,-0.0015085981 L45,-0.002007666 L47.5,-0.0026308552 L50,-0.0034 L52.5,-0.0043393574 L55,-0.005475734 L57.5,-0.0068386146 L60,-0.008460288 L62.5,-0.010375977 L65,-0.012623962 L67.5,-0.015245713 L70,-0.018286016 L72.5,-0.021793095 L75,-0.02581875 L77.5,-0.030418472 L80,-0.035651583 L82.5,-0.041581355 L85,-0.04827514 L87.5,-0.05580449 L90,-0.06424531 L92.5,-0.07367796 L95,-0.084187366 L97.5,-0.09586321 L100,-0.1088 L102.5,-0.12309721 L105,-0.13885944 L107.5,-0.15619648 L110,-0.17522348 L112.5,-0.19606113 L115,-0.21883567 L117.5,-0.24367908 L120,-0.2707292 L122.5,-0.30012995 L125,-0.33203125 L127.5,-0.36658934 L130,-0.40396678 L132.5,-0.44433272 L135,-0.48786283 L137.5,-0.5347397 L140,-0.5851525 L142.5,-0.6392978 L145,-0.69737905 L147.5,-0.7596071 L150,-0.8262 L152.5,-0.8973836 L155,-0.9733911 L157.5,-1.0544639 L160,-1.1408507 L162.5,-1.2328088 L165,-1.3306034 L167.5,-1.434508 L170,-1.5448045 L172.5,-1.6617833 L175,-1.7857437 L177.5,-1.9169937 L180,-2.05585 L182.5,-2.2026386 L185,-2.3576946 L187.5,-2.5213623 L190,-2.6939957 L192.5,-2.8759582 L195,-3.0676227 L197.5,-3.2693725 L200,-3.4816 L202.5,-3.7047083 L205,-3.9391108 L207.5,-4.1852307 L210,-4.443502 L212.5,-4.714369 L215,-4.998287 L217.5,-5.2957225 L220,-5.6071515 L222.5,-5.933063 L225,-6.2739563 L227.5,-6.6303415 L230,-7.0027413 L232.5,-7.391689 L235,-7.7977304 L237.5,-8.221422 L240,-8.663335 L242.5,-9.124049 L245,-9.604158 L247.5,-10.104269 L250,-10.625 L252.5,-11.166982 L255,-11.730859 L257.5,-12.317287 L260,-12.926937 L262.5,-13.560492 L265,-14.218647 L267.5,-14.902112 L270,-15.61161 L272.5,-16.34788 L275,-17.11167 L277.5,-17.903744 L280,-18.72488 L282.5,-19.575874 L285,-20.45753 L287.5,-21.37067 L290,-22.31613 L292.5,-23.29476 L295,-24.307426 L297.5,-25.355007 L300,-26.4384 L302.5,-27.558514 L305,-28.716274 L307.5,-29.912622 L310,-31.148516 L312.5,-32.424927 L315,-33.742844 L317.5,-35.103268 L320,-36.50722 L322.5,-37.95574 L325,-39.449883 L327.5,-40.990707 L330,-42.579308 L332.5,-44.21678 L335,-45.904255 L337.5,-47.642857 L340,-49.433743 L342.5,-51.278084 L345,-53.177067 L347.5,-55.131897 L350,-57.1438 L352.5,-59.214012 L355,-61.3438 L357.5,-63.534428 L360,-65.7872 L362.5,-68.103424 L365,-70.484436 L367.5,-72.93158 L370,-75.44623 L372.5,-78.02976 L375,-80.68359 L377.5,-83.40915 L380,-86.20786 L382.5,-89.08121 L385,-92.03066 L387.5,-95.05773 L390,-98.163925 L392.5,-101.35081 L395,-104.61992 L397.5,-107.97285 L400,-111.4112 L402.5,-114.93659 L405,-118.55067 L407.5,-122.2551 L410,-126.051544 L412.5,-129.94174 L415,-133.92738 L417.5,-138.01024 L420,-142.19206 L422.5,-146.47466 L425,-150.8598 L427.5,-155.34937 L430,-159.94519 L432.5,-164.64914 L435,-169.46312 L437.5,-174.38904 L440,-179.42885 L442.5,-184.58452 L445,-189.85802 L447.5,-195.25137 L450,-200.7666 L452.5,-206.40576 L455,-212.17093 L457.5,-218.06421 L460,-224.08772 L462.5,-230.2436 L465,-236.53404 L467.5,-242.96123 L470,-249.52737 L472.5,-256.2347 L475,-263.0855 L477.5,-270.0821 L480,-277.2267 L482.5,-284.52176 L485,-291.96957 L487.5,-299.57254 L490,-307.33307 L492.5,-315.2536 L495,-323.3366 L497.5,-331.58456 L500,-340" fill="none" stroke="red" stroke-width="2"/>
</g>
<g>
<g>
<line stroke="black" stroke-width="1" x1="0" x2="0" y1="0" y2="10"/>
<line stroke="black" stroke-width="1" x1="100" x2="100" y1="0" y2="10"/>
<line stroke="black" stroke-width="1" x1="200" x2="200" y1="0" y2="10"/>
<line stroke="black" stroke-width="1" x1="300.00000000000006" x2="300.00000000000006" y1="0" y2="10"/>
<line stroke="black" stroke-width="1" x1="400" x2="400" y1="0" y2="10"/>
<line stroke="black" stroke-width="1" x1="500" x2="500" y1="0" y2="10"/>
</g>
<line stroke="black" stroke-width="1" x1="0" x2="500" y1="0" y2="0"/>
<g>
<text font-size="12" text-anchor="middle" x="0" y="20">
0
</text>
<text font-size="12" text-anchor="middle" x="100" y="20">
0.2
</text>
<text font-size="12" text-anchor="middle" x="200" y="20">
0.4
</text>
<text font-size="12" text-anchor="middle" x="300.00000000000006" y="20">
0.6000000000000001
</text>
<text font-size="12" text-anchor="middle" x="400" y="20">
0.8
</text>
<text font-size="12" text-anchor="middle" x="500" y="20">
1
</text>
</g>
<text font-size="12" text-anchor="middle" x="250" y="30">

</text>
</g>
<g>
<g>
<line stroke="black" stroke-width="1" x1="0" x2="-10" y1="0" y2="0"/>
<line stroke="black" stroke-width="1" x1="0" x2="-10" y1="-68" y2="-68"/>
<line stroke="black" stroke-width="1" x1="0" x2="-10" y1="-136" y2="-136"/>
<line stroke="black" stroke-width="1" x1="0" x2="-10" y1="-204.00000000000003" y2="-204.00000000000003"/>
<line stroke="black" stroke-width="1" x1="0" x2="-10" y1="-272" y2="-272"/>
<line stroke="black" stroke-width="1" x1="0" x2="-10" y1="-340" y2="-340"/>
</g>
<line stroke="black" stroke-0="1" x1="0" x2="0" y1="0" y2="-340"/>
<g>
<text dominant-baseline="middle" font-size="12" text-anchor="end" x="-15" y="0">
0
</text>
<text dominant-baseline="middle" font-size="12" text-anchor="end" x="-15" y="-68">
0.2
</text>
<text dominant-baseline="middle" font-size="12" text-anchor="end" x="-15" y="-136">
0.4
</text>
<text dominant-baseline="middle" font-size="12" text-anchor="end" x="-15" y="-204.00000000000003">
0.6000000000000001
</text>
<text dominant-baseline="middle" font-size="12" text-anchor="end" x="-15" y="-272">
0.8
</text>
<text dominant-baseline="middle" font-size="12" text-anchor="end" x="-15" y="-340">
1
</text>
</g>
<text font-size="12" text-anchor="middle" transform="rotate(-90 -30 -170)" x="-30" y="-170">

</text>
</g>
</g>
</svg>