<svg viewBox="0 0 600 400" xmlns="http://www.w3.org/2000/svg">
<g transform="translate(50, 360)">
<g>
<path d="M0,0 L0,0 L2.5,-3.3915 L5,-6.766 L7.5,-10.1235 L10,-13.464 L12.5,-16.7875 L15,-20.094 L17.5,-23.3835 L20,-26.656 L22.5,-29.9115 L25,-33.15 L27.5,-36.3715 L30,-39.576 L32.5,-42.7635 L35,-45.934 L37.5,-49.0875 L40,-52.224 L42.5,-55.3435 L45,-58.446 L47.5,-61.5315 L50,-64.6 L52.5,-67.6515 L55,-70.686 L57.5,-73.7035 L60,-76.704 L62.5,-79.6875 L65,-82.654 L67.5,-85.6035 L70,-88.536 L72.5,-91.4515 L75,-94.35 L77.5,-97.2315 L80,-100.096 L82.5,-102.9435 L85,-105.774 L87.5,-108.5875 L90,-111.384 L92.5,-114.1635 L95,-116.926 L97.5,-119.6715 L100,-122.4 L102.5,-125.1115 L105,-127.806 L107.5,-130.4835 L110,-133.144 L112.5,-135.7875 L115,-138.414 L117.5,-141.0235 L120,-143.616 L122.5,-146.1915 L125,-148.75 L127.5,-151.2915 L130,-153.816 L132.5,-156.3235 L135,-158.814 L137.5,-161.2875 L140,-163.744 L142.5,-166.1835 L145,-168.606 L147.5,-171.0115 L150,-173.4 L152.5,-175.7715 L155,-178.126 L157.5,-180.4635 L160,-182.784 L162.5,-185.0875 L165,-187.374 L167.5,-189.6435 L170,-191.896 L172.5,-194.1315 L175,-196.35 L177.5,-198.5515 L180,-200.736 L182.5,-202.9035 L185,-205.054 L187.5,-207.1875 L190,-209.304 L192.5,-211.4035 L195,-213.486 L197.5,-215.5515 L200,-217.6 L202.5,-219.6315 L205,-221.646 L207.5,-223.6435 L210,-225.624 L212.5,-227.5875 L215,-229.534 L217.5,-231.4635 L220,-233.376 L222.5,-235.2715 L225,-237.15 L227.5,-239.0115 L230,-240.856 L232.5,-242.6835 L235,-244.494 L237.5,-246.2875 L240,-248.064 L242.5,-249.8235 L245,-251.566 L247.5,-253.2915 L250,-255 L252.5,-256.6915 L255,-258.366 L257.5,-260.0235 L260,-261.664 L262.5,-263.2875 L265,-264.894 L267.5,-266.4835 L270,-268.056 L272.5,-269.6115 L275,-271.15 L277.5,-272.6715 L280,-274.176 L282.5,-275.6635 L285,-277.134 L287.5,-278.5875 L290,-280.024 L292.5,-281.4435 L295,-282.846 L297.5,-284.2315 L300,-285.6 L302.5,-286.9515 L305,-288.286 L307.5,-289.6035 L310,-290.904 L312.5,-292.1875 L315,-293.454 L317.5,-294.7035 L320,-295.936 L322.5,-297.1515 L325,-298.35 L327.5,-299.5315 L330,-300.696 L332.5,-301.8435 L335,-302.974 L337.5,-304.0875 L340,-305.184 L342.5,-306.2635 L345,-307.326 L347.5,-308.3715 L350,-309.4 L352.5,-310.4115 L355,-311.406 L357.5,-312.3835 L360,-313.344 L362.5,-314.2875 L365,-315.214 L367.5,-316.1235 L370,-317.016 L372.5,-317.8915 L375,-318.75 L377.5,-319.5915 L380,-320.416 L382.5,-321.2235 L385,-322.014 L387.5,-322.7875 L390,-323.544 L392.5,-324.2835 L395,-325.006 L397.5,-325.7115 L400,-326.4 L402.5,-327.0715 L405,-327.726 L407.5,-328.3635 L410,-328.984 L412.5,-329.5875 L415,-330.174 L417.5,-330.7435 L420,-331.296 L422.5,-331.8315 L425,-332.35 L427.5,-332.8515 L430,-333.336 L432.5,-333.8035 L435,-334.254 L437.5,-334.6875 L440,-335.104 L442.5,-335.5035 L445,-335.886 L447.5,-336.2515 L450,-336.6 L452.5,-336.9315 L455,-337.246 L457.5,-337.5435 L460,-337.824 L462.5,-338.0875 L465,-338.334 L467.5,-338.5635 L470,-338.776 L472.5,-338.9715 L475,-339.15 L477.5,-339.3115 L480,-339.456 L482.5,-339.5835 L485,-339.694 L487.5,-339.7875 L490,-339.864 L492.5,-339.9235 L495,-339.966 L497.5,-339.9915 L500,-340" fill="none" stroke="red" stroke-width="2"/>
</g>
<g>
<g>
<line stroke="black" stroke-width="1" x1="0" x2="0" y1="0" y2="10"/>
<line stroke="black" stroke-width="1" x1="100" x2="100" y1="0" y2="10"/>
<line stroke="black" stroke-width="1" x1="200" x2="200" y1="0" y2="10"/>
<line stroke="black" stroke-width="1" x1="300.00000000000006" x2="300.00000000000006" y1="0" y2="10"/>
<line stroke="black" stroke-width="1" x1="400" x2="400" y1="0" y2="10"/>
<line stroke="black" stroke-width="1" x1="500" x2="500" y1="0" y2="10"/>
</g>
<line stroke="black" stroke-width="1" x1="0" x2="500" y1="0" y2="0"/>
<g>
<text font-size="12" text-anchor="middle" x="0" y="20">
0
</text>
<text font-size="12" text-anchor="middle" x="100" y="20">
0.2
</text>
<text font-size="12" text-anchor="middle" x="200" y="20">
0.4
</text>
<text font-size="12" text-anchor="middle" x="300.00000000000006" y="20">
0.6000000000000001
</text>
<text font-size="12" text-anchor="middle" x="400" y="20">
0.8
</text>
<text font-size="12" text-anchor="middle" x="500" y="20">
1
</text>
</g>
<text font-size="12" text-anchor="middle" x="250" y="30">

</text>
</g>
<g>
<g>
<line stroke="black" stroke-width="1" x1="0" x2="-10" y1="0" y2="0"/>
<line stroke="black" stroke-width="1" x1="0" x2="-10" y1="-68" y2="-68"/>
<line stroke="black" stroke-width="1" x1="0" x2="-10" y1="-136" y2="-136"/>
<line stroke="black" stroke-width="1" x1="0" x2="-10" y1="-204.00000000000003" y2="-204.00000000000003"/>
<line stroke="black" stroke-width="1" x1="0" x2="-10" y1="-272" y2="-272"/>
<line stroke="black" stroke-width="1" x1="0" x2="-10" y1="-340" y2="-340"/>
</g>
<line stroke="black" stroke-0="1" x1="0" x2="0" y1="0" y2="-340"/>
<g>
<text dominant-baseline="middle" font-size="12" text-anchor="end" x="-15" y="0">
0
</text>
<text dominant-baseline="middle" font-size="12" text-anchor="end" x="-15" y="-68">
0.2
</text>
<text dominant-baseline="middle" font-size="12" text-anchor="end" x="-15" y="-136">
0.4
</text>
<text dominant-baseline="middle" font-size="12" text-anchor="end" x="-15" y="-204.00000000000003">
0.6000000000000001
</text>
<text dominant-baseline="middle" font-size="12" text-anchor="end" x="-15" y="-272">
0.8
</text>
<text dominant-baseline="middle" font-size="12" text-anchor="end" x="-15" y="-340">
1
</text>
</g>
<text font-size="12" text-anchor="middle" transform="rotate(-90 -30 -170)" x="-30" y="-170">

</text>
</g>
</g>
</svg>