<svg viewBox="0 0 600 400" xmlns="http://www.w3.org/2000/svg">
<g transform="translate(50, 360)">
<g>
<path d="M0,0 L0,0 L2.5,-10.073347 L5,-19.89675 L7.5,-29.475193 L10,-38.81359 L12.5,-47.91678 L15,-56.789516 L17.5,-65.4365 L20,-73.86235 L22.5,-82.07161 L25,-90.068756 L27.5,-97.8582 L30,-105.444275 L32.5,-112.83125 L35,-120.02334 L37.5,-127.024666 L40,-133.8393 L42.5,-140.47125 L45,-146.92445 L47.5,-153.20279 L50,-159.31006 L52.5,-165.25002 L55,-171.02637 L57.5,-176.6427 L60,-182.10262 L62.5,-187.40959 L65,-192.5671 L67.5,-197.57849 L70,-202.44714 L72.5,-207.17628 L75,-211.76917 L77.5,-216.22893 L80,-220.55867 L82.5,-224.76146 L85,-228.84027 L87.5,-232.79807 L90,-236.63773 L92.5,-240.3621 L95,-243.97395 L97.5,-247.47604 L100,-250.87103 L102.5,-254.16159 L105,-257.35025 L107.5,-260.4396 L110,-263.43213 L112.5,-266.33026 L115,-269.13638 L117.5,-271.85287 L120,-274.48203 L122.5,-277.0261 L125,-279.4873 L127.5,-281.86783 L130,-284.1698 L132.5,-286.3953 L135,-288.54636 L137.5,-290.62503 L140,-292.6332 L142.5,-294.57288 L145,-296.4459 L147.5,-298.25412 L150,-299.99933 L152.5,-301.68332 L155,-303.30783 L157.5,-304.8745 L160,-306.38507 L162.5,-307.84106 L165,-309.24414 L167.5,-310.59583 L170,-311.89764 L172.5,-313.1511 L175,-314.35757 L177.5,-315.51855 L180,-316.63538 L182.5,-317.7094 L185,-318.742 L187.5,-319.73444 L190,-320.68793 L192.5,-321.60373 L195,-322.48306 L197.5,-323.3271 L200,-324.13696 L202.5,-324.91376 L205,-325.65863 L207.5,-326.37256 L210,-327.05664 L212.5,-327.71185 L215,-328.3392 L217.5,-328.93964 L220,-329.51407 L222.5,-330.06342 L225,-330.5886 L227.5,-331.0904 L230,-331.56973 L232.5,-332.02737 L235,-332.4641 L237.5,-332.88074 L240,-333.27798 L242.5,-333.6566 L245,-334.01727 L247.5,-334.3607 L250,-334.6875 L252.5,-334.99838 L255,-335.29398 L257.5,-335.57483 L260,-335.8416 L262.5,-336.09482 L265,-336.33505 L267.5,-336.56287 L270,-336.77875 L272.5,-336.9832 L275,-337.17673 L277.5,-337.35977 L280,-337.53287 L282.5,-337.69635 L285,-337.85074 L287.5,-337.9964 L290,-338.13373 L292.5,-338.26312 L295,-338.38498 L297.5,-338.4996 L300,-338.60736 L302.5,-338.7086 L305,-338.80362 L307.5,-338.89276 L310,-338.9763 L312.5,-339.0545 L315,-339.12766 L317.5,-339.19604 L320,-339.2599 L322.5,-339.31946 L325,-339.375 L327.5,-339.4267 L330,-339.47476 L332.5,-339.51944 L335,-339.5609 L337.5,-339.59933 L340,-339.63492 L342.5,-339.66785 L345,-339.69824 L347.5,-339.7263 L350,-339.75214 L352.5,-339.7759 L355,-339.79776 L357.5,-339.8178 L360,-339.83615 L362.5,-339.85294 L365,-339.8683 L367.5,-339.88226 L370,-339.89496 L372.5,-339.90652 L375,-339.917 L377.5,-339.92648 L380,-339.93503 L382.5,-339.94275 L385,-339.94968 L387.5,-339.95587 L390,-339.96146 L392.5,-339.96643 L395,-339.97083 L397.5,-339.97476 L400,-339.97824 L402.5,-339.9813 L405,-339.984 L407.5,-339.98636 L410,-339.98843 L412.5,-339.99023 L415,-339.9918 L417.5,-339.99313 L420,-339.9943 L422.5,-339.9953 L425,-339.99612 L427.5,-339.99683 L430,-339.99744 L432.5,-339.99796 L435,-339.99835 L437.5,-339.99872 L440,-339.999 L442.5,-339.9992 L445,-339.9994 L447.5,-339.99954 L450,-339.99966 L452.5,-339.99976 L455,-339.99982 L457.5,-339.99988 L460,-339.9999 L462.5,-339.99994 L465,-339.99997 L467.5,-339.99997 L470,-339.99997 L472.5,-340 L475,-340 L477.5,-340 L480,-340 L482.5,-340 L485,-340 L487.5,-340 L490,-340 L492.5,-340 L495,-340 L497.5,-340 L500,-340" fill="none" stroke="red" stroke-width="2"/>
</g>
<g>
<g>
<line stroke="black" stroke-width="1" x1="0" x2="0" y1="0" y2="10"/>
<line stroke="black" stroke-width="1" x1="100" x2="100" y1="0" y2="10"/>
<line stroke="black" stroke-width="1" x1="200" x2="200" y1="0" y2="10"/>
<line stroke="black" stroke-width="1" x1="300.00000000000006" x2="300.00000000000006" y1="0" y2="10"/>
<line stroke="black" stroke-width="1" x1="400" x2="400" y1="0" y2="10"/>
<line stroke="black" stroke-width="1" x1="500" x2="500" y1="0" y2="10"/>
</g>
<line stroke="black" stroke-width="1" x1="0" x2="500" y1="0" y2="0"/>
<g>
<text font-size="12" text-anchor="middle" x="0" y="20">
0
</text>
<text font-size="12" text-anchor="middle" x="100" y="20">
0.2
</text>
<text font-size="12" text-anchor="middle" x="200" y="20">
0.4
</text>
<text font-size="12" text-anchor="middle" x="300.00000000000006" y="20">
0.6000000000000001
</text>
<text font-size="12" text-anchor="middle" x="400" y="20">
0.8
</text>
<text font-size="12" text-anchor="middle" x="500" y="20">
1
</text>
</g>
<text font-size="12" text-anchor="middle" x="250" y="30">

</text>
</g>
<g>
<g>
<line stroke="black" stroke-width="1" x1="0" x2="-10" y1="0" y2="0"/>
<line stroke="black" stroke-width="1" x1="0" x2="-10" y1="-68" y2="-68"/>
<line stroke="black" stroke-width="1" x1="0" x2="-10" y1="-136" y2="-136"/>
<line stroke="black" stroke-width="1" x1="0" x2="-10" y1="-204.00000000000003" y2="-204.00000000000003"/>
<line stroke="black" stroke-width="1" x1="0" x2="-10" y1="-272" y2="-272"/>
<line stroke="black" stroke-width="1" x1="0" x2="-10" y1="-340" y2="-340"/>
</g>
<line stroke="black" stroke-0="1" x1="0" x2="0" y1="0" y2="-340"/>
<g>
<text dominant-baseline="middle" font-size="12" text-anchor="end" x="-15" y="0">
0
</text>
<text dominant-baseline="middle" font-size="12" text-anchor="end" x="-15" y="-68">
0.2
</text>
<text dominant-baseline="middle" font-size="12" text-anchor="end" x="-15" y="-136">
0.4
</text>
<text dominant-baseline="middle" font-size="12" text-anchor="end" x="-15" y="-204.00000000000003">
0.6000000000000001
</text>
<text dominant-baseline="middle" font-size="12" text-anchor="end" x="-15" y="-272">
0.8
</text>
<text dominant-baseline="middle" font-size="12" text-anchor="end" x="-15" y="-340">
1
</text>
</g>
<text font-size="12" text-anchor="middle" transform="rotate(-90 -30 -170)" x="-30" y="-170">

</text>
</g>
</g>
</svg>