<svg viewBox="0 0 600 400" xmlns="http://www.w3.org/2000/svg">
<g transform="translate(50, 360)">
<g>
<path d="M0,0 L0,0 L2.5,-0.0000425 L5,-0.00034 L7.5,-0.0011475 L10,-0.00272 L12.5,-0.0053125 L15,-0.00918 L17.5,-0.0145775 L20,-0.02176 L22.5,-0.0309825 L25,-0.0425 L27.5,-0.0565675 L30,-0.07344 L32.5,-0.0933725 L35,-0.11662 L37.5,-0.1434375 L40,-0.17408 L42.5,-0.2088025 L45,-0.24786 L47.5,-0.2915075 L50,-0.34 L52.5,-0.3935925 L55,-0.45254 L57.5,-0.5170975 L60,-0.58752 L62.5,-0.6640625 L65,-0.74698 L67.5,-0.8365275 L70,-0.93296 L72.5,-1.0365325 L75,-1.1475 L77.5,-1.2661175 L80,-1.39264 L82.5,-1.5273225 L85,-1.67042 L87.5,-1.8221875 L90,-1.98288 L92.5,-2.1527524 L95,-2.33206 L97.5,-2.5210576 L100,-2.72 L102.5,-2.9291425 L105,-3.14874 L107.5,-3.3790474 L110,-3.62032 L112.5,-3.8728125 L115,-4.13678 L117.5,-4.4124775 L120,-4.70016 L122.5,-5.0000825 L125,-5.3125 L127.5,-5.6376677 L130,-5.97584 L132.5,-6.3272724 L135,-6.69222 L137.5,-7.0709376 L140,-7.46368 L142.5,-7.8707023 L145,-8.29226 L147.5,-8.728607 L150,-9.18 L152.5,-9.646692 L155,-10.12894 L157.5,-10.626998 L160,-11.14112 L162.5,-11.671562 L165,-12.21858 L167.5,-12.782428 L170,-13.36336 L172.5,-13.961633 L175,-14.5775 L177.5,-15.211218 L180,-15.86304 L182.5,-16.533222 L185,-17.22202 L187.5,-17.929688 L190,-18.65648 L192.5,-19.402653 L195,-20.16846 L197.5,-20.954157 L200,-21.76 L202.5,-22.586243 L205,-23.43314 L207.5,-24.300947 L210,-25.18992 L212.5,-26.100313 L215,-27.03238 L217.5,-27.986378 L220,-28.96256 L222.5,-29.961182 L225,-30.9825 L227.5,-32.026768 L230,-33.09424 L232.5,-34.185173 L235,-35.29982 L237.5,-36.43844 L240,-37.60128 L242.5,-38.7886 L245,-40.00066 L247.5,-41.23771 L250,-42.5 L252.5,-43.787792 L255,-45.10134 L257.5,-46.4409 L260,-47.80672 L262.5,-49.199062 L265,-50.61818 L267.5,-52.064327 L270,-53.53776 L272.5,-55.03873 L275,-56.5675 L277.5,-58.124317 L280,-59.70944 L282.5,-61.323124 L285,-62.96562 L287.5,-64.637184 L290,-66.33808 L292.5,-68.06855 L295,-69.82886 L297.5,-71.619255 L300,-73.44 L302.5,-75.29134 L305,-77.17354 L307.5,-79.086845 L310,-81.03152 L312.5,-83.00781 L315,-85.01598 L317.5,-87.056274 L320,-89.12896 L322.5,-91.23428 L325,-93.3725 L327.5,-95.54387 L330,-97.74864 L332.5,-99.987076 L335,-102.25942 L337.5,-104.56594 L340,-106.90688 L342.5,-109.2825 L345,-111.69306 L347.5,-114.13881 L350,-116.62 L352.5,-119.136894 L355,-121.68974 L357.5,-124.2788 L360,-126.90432 L362.5,-129.56656 L365,-132.26578 L367.5,-135.00223 L370,-137.77615 L372.5,-140.58783 L375,-143.4375 L377.5,-146.32542 L380,-149.25185 L382.5,-152.21703 L385,-155.22122 L387.5,-158.2647 L390,-161.34769 L392.5,-164.47046 L395,-167.63326 L397.5,-170.83636 L400,-174.08 L402.5,-177.36444 L405,-180.68994 L407.5,-184.05675 L410,-187.46512 L412.5,-190.91531 L415,-194.40758 L417.5,-197.94218 L420,-201.51936 L422.5,-205.13939 L425,-208.8025 L427.5,-212.50897 L430,-216.25903 L432.5,-220.05298 L435,-223.89102 L437.5,-227.77344 L440,-231.70049 L442.5,-235.67241 L445,-239.68945 L447.5,-243.7519 L450,-247.86 L452.5,-252.01399 L455,-256.21414 L457.5,-260.4607 L460,-264.7539 L462.5,-269.09406 L465,-273.48138 L467.5,-277.91614 L470,-282.39856 L472.5,-286.92892 L475,-291.5075 L477.5,-296.13452 L480,-300.81024 L482.5,-305.5349 L485,-310.3088 L487.5,-315.1322 L490,-320.00528 L492.5,-324.92834 L495,-329.90167 L497.5,-334.92545 L500,-340" fill="none" stroke="red" stroke-width="2"/>
</g>
<g>
<g>
<line stroke="black" stroke-width="1" x1="0" x2="0" y1="0" y2="10"/>
<line stroke="black" stroke-width="1" x1="100" x2="100" y1="0" y2="10"/>
<line stroke="black" stroke-width="1" x1="200" x2="200" y1="0" y2="10"/>
<line stroke="black" stroke-width="1" x1="300.00000000000006" x2="300.00000000000006" y1="0" y2="10"/>
<line stroke="black" stroke-width="1" x1="400" x2="400" y1="0" y2="10"/>
<line stroke="black" stroke-width="1" x1="500" x2="500" y1="0" y2="10"/>
</g>
<line stroke="black" stroke-width="1" x1="0" x2="500" y1="0" y2="0"/>
<g>
<text font-size="12" text-anchor="middle" x="0" y="20">
0
</text>
<text font-size="12" text-anchor="middle" x="100" y="20">
0.2
</text>
<text font-size="12" text-anchor="middle" x="200" y="20">
0.4
</text>
<text font-size="12" text-anchor="middle" x="300.00000000000006" y="20">
0.6000000000000001
</text>
<text font-size="12" text-anchor="middle" x="400" y="20">
0.8
</text>
<text font-size="12" text-anchor="middle" x="500" y="20">
1
</text>
</g>
<text font-size="12" text-anchor="middle" x="250" y="30">

</text>
</g>
<g>
<g>
<line stroke="black" stroke-width="1" x1="0" x2="-10" y1="0" y2="0"/>
<line stroke="black" stroke-width="1" x1="0" x2="-10" y1="-68" y2="-68"/>
<line stroke="black" stroke-width="1" x1="0" x2="-10" y1="-136" y2="-136"/>
<line stroke="black" stroke-width="1" x1="0" x2="-10" y1="-204.00000000000003" y2="-204.00000000000003"/>
<line stroke="black" stroke-width="1" x1="0" x2="-10" y1="-272" y2="-272"/>
<line stroke="black" stroke-width="1" x1="0" x2="-10" y1="-340" y2="-340"/>
</g>
<line stroke="black" stroke-0="1" x1="0" x2="0" y1="0" y2="-340"/>
<g>
<text dominant-baseline="middle" font-size="12" text-anchor="end" x="-15" y="0">
0
</text>
<text dominant-baseline="middle" font-size="12" text-anchor="end" x="-15" y="-68">
0.2
</text>
<text dominant-baseline="middle" font-size="12" text-anchor="end" x="-15" y="-136">
0.4
</text>
<text dominant-baseline="middle" font-size="12" text-anchor="end" x="-15" y="-204.00000000000003">
0.6000000000000001
</text>
<text dominant-baseline="middle" font-size="12" text-anchor="end" x="-15" y="-272">
0.8
</text>
<text dominant-baseline="middle" font-size="12" text-anchor="end" x="-15" y="-340">
1
</text>
</g>
<text font-size="12" text-anchor="middle" transform="rotate(-90 -30 -170)" x="-30" y="-170">

</text>
</g>
</g>
</svg>