<svg viewBox="0 0 600 400" xmlns="http://www.w3.org/2000/svg">
<g transform="translate(50, 360)">
<g>
<path d="M0,0 L0,0 L2.5,-0.0000000000000265625 L5,-0.0000000000034 L7.5,-0.000000000058092187 L10,-0.0000000004352 L12.5,-0.0000000020751953 L15,-0.0000000074358 L17.5,-0.00000002187536 L20,-0.0000000557056 L22.5,-0.00000012704761 L25,-0.000000265625 L27.5,-0.000000517628 L30,-0.0000009517824 L32.5,-0.0000016667575 L35,-0.000002800046 L37.5,-0.0000045384522 L40,-0.0000071303166 L42.5,-0.000010899621 L45,-0.000016262095 L47.5,-0.000023743469 L50,-0.000034 L52.5,-0.000047841415 L55,-0.00006625638 L57.5,-0.00009044068 L60,-0.00012182815 L62.5,-0.00016212463 L65,-0.00021334496 L67.5,-0.00027785313 L70,-0.0003584059 L72.5,-0.00045819985 L75,-0.0005809219 L77.5,-0.0007308038 L80,-0.0009126805 L82.5,-0.0011320524 L85,-0.0013951515 L87.5,-0.0017090125 L90,-0.002081548 L92.5,-0.002521628 L95,-0.003039164 L97.5,-0.0036451987 L100,-0.004352 L102.5,-0.00517316 L105,-0.006123701 L107.5,-0.0072201816 L110,-0.008480817 L112.5,-0.009925595 L115,-0.011576407 L117.5,-0.013457176 L120,-0.015594003 L122.5,-0.0180153 L125,-0.020751953 L127.5,-0.023837471 L130,-0.027308155 L132.5,-0.031203264 L135,-0.0355652 L137.5,-0.040439688 L140,-0.045875955 L142.5,-0.051926963 L145,-0.05864958 L147.5,-0.06610481 L150,-0.074358 L152.5,-0.08347911 L155,-0.09354289 L157.5,-0.104629174 L160,-0.11682311 L162.5,-0.13021542 L165,-0.1449027 L167.5,-0.16098765 L170,-0.17857939 L172.5,-0.19779375 L175,-0.2187536 L177.5,-0.24158913 L180,-0.26643816 L182.5,-0.2934465 L185,-0.3227684 L187.5,-0.35456657 L190,-0.389013 L192.5,-0.4262889 L195,-0.46658543 L197.5,-0.5101038 L200,-0.557056 L202.5,-0.6076648 L205,-0.6621645 L207.5,-0.72080135 L210,-0.78383374 L212.5,-0.8515329 L215,-0.92418325 L217.5,-1.0020831 L220,-1.0855446 L222.5,-1.1748948 L225,-1.2704761 L227.5,-1.3726465 L230,-1.48178 L232.5,-1.5982679 L235,-1.7225186 L237.5,-1.8549584 L240,-1.9960324 L242.5,-2.1462045 L245,-2.3059585 L247.5,-2.4757986 L250,-2.65625 L252.5,-2.8478596 L255,-3.0511963 L257.5,-3.2668524 L260,-3.4954438 L262.5,-3.7376106 L265,-3.9940178 L267.5,-4.265357 L270,-4.5523458 L272.5,-4.855729 L275,-5.17628 L277.5,-5.5148005 L280,-5.8721223 L282.5,-6.2491083 L285,-6.6466513 L287.5,-7.0656776 L290,-7.5071464 L292.5,-7.972049 L295,-8.461415 L297.5,-8.976307 L300,-9.517824 L302.5,-10.087105 L305,-10.685326 L307.5,-11.313702 L310,-11.97349 L312.5,-12.665987 L315,-13.392534 L317.5,-14.154515 L320,-14.953358 L322.5,-15.790538 L325,-16.667574 L327.5,-17.586039 L330,-18.547546 L332.5,-19.553766 L335,-20.606419 L337.5,-21.707275 L340,-22.858162 L342.5,-24.060959 L345,-25.3176 L347.5,-26.630085 L350,-28.000462 L352.5,-29.430845 L355,-30.923409 L357.5,-32.48039 L360,-34.104084 L362.5,-35.796864 L365,-37.561153 L367.5,-39.399464 L370,-41.314354 L372.5,-43.308468 L375,-45.38452 L377.5,-47.5453 L380,-49.793663 L382.5,-52.13255 L385,-54.56498 L387.5,-57.094048 L390,-59.722935 L392.5,-62.4549 L395,-65.29329 L397.5,-68.24154 L400,-71.30317 L402.5,-74.48179 L405,-77.7811 L407.5,-81.20489 L410,-84.75706 L412.5,-88.44159 L415,-92.26257 L417.5,-96.22418 L420,-100.33072 L422.5,-104.58656 L425,-108.99621 L427.5,-113.56427 L430,-118.295456 L432.5,-123.1946 L435,-128.26663 L437.5,-133.5166 L440,-138.9497 L442.5,-144.57121 L445,-150.38654 L447.5,-156.40123 L450,-162.62094 L452.5,-169.05148 L455,-175.69875 L457.5,-182.5688 L460,-189.66785 L462.5,-197.00218 L465,-204.5783 L467.5,-212.40277 L470,-220.48238 L472.5,-228.824 L475,-237.43468 L477.5,-246.32161 L480,-255.49214 L482.5,-264.95377 L485,-274.71417 L487.5,-284.78113 L490,-295.1627 L492.5,-305.86694 L495,-316.90222 L497.5,-328.277 L500,-340" fill="none" stroke="red" stroke-width="2"/>
</g>
<g>
<g>
<line stroke="black" stroke-width="1" x1="0" x2="0" y1="0" y2="10"/>
<line stroke="black" stroke-width="1" x1="100" x2="100" y1="0" y2="10"/>
<line stroke="black" stroke-width="1" x1="200" x2="200" y1="0" y2="10"/>
<line stroke="black" stroke-width="1" x1="300.00000000000006" x2="300.00000000000006" y1="0" y2="10"/>
<line stroke="black" stroke-width="1" x1="400" x2="400" y1="0" y2="10"/>
<line stroke="black" stroke-width="1" x1="500" x2="500" y1="0" y2="10"/>
</g>
<line stroke="black" stroke-width="1" x1="0" x2="500" y1="0" y2="0"/>
<g>
<text font-size="12" text-anchor="middle" x="0" y="20">
0
</text>
<text font-size="12" text-anchor="middle" x="100" y="20">
0.2
</text>
<text font-size="12" text-anchor="middle" x="200" y="20">
0.4
</text>
<text font-size="12" text-anchor="middle" x="300.00000000000006" y="20">
0.6000000000000001
</text>
<text font-size="12" text-anchor="middle" x="400" y="20">
0.8
</text>
<text font-size="12" text-anchor="middle" x="500" y="20">
1
</text>
</g>
<text font-size="12" text-anchor="middle" x="250" y="30">

</text>
</g>
<g>
<g>
<line stroke="black" stroke-width="1" x1="0" x2="-10" y1="0" y2="0"/>
<line stroke="black" stroke-width="1" x1="0" x2="-10" y1="-68" y2="-68"/>
<line stroke="black" stroke-width="1" x1="0" x2="-10" y1="-136" y2="-136"/>
<line stroke="black" stroke-width="1" x1="0" x2="-10" y1="-204.00000000000003" y2="-204.00000000000003"/>
<line stroke="black" stroke-width="1" x1="0" x2="-10" y1="-272" y2="-272"/>
<line stroke="black" stroke-width="1" x1="0" x2="-10" y1="-340" y2="-340"/>
</g>
<line stroke="black" stroke-0="1" x1="0" x2="0" y1="0" y2="-340"/>
<g>
<text dominant-baseline="middle" font-size="12" text-anchor="end" x="-15" y="0">
0
</text>
<text dominant-baseline="middle" font-size="12" text-anchor="end" x="-15" y="-68">
0.2
</text>
<text dominant-baseline="middle" font-size="12" text-anchor="end" x="-15" y="-136">
0.4
</text>
<text dominant-baseline="middle" font-size="12" text-anchor="end" x="-15" y="-204.00000000000003">
0.6000000000000001
</text>
<text dominant-baseline="middle" font-size="12" text-anchor="end" x="-15" y="-272">
0.8
</text>
<text dominant-baseline="middle" font-size="12" text-anchor="end" x="-15" y="-340">
1
</text>
</g>
<text font-size="12" text-anchor="middle" transform="rotate(-90 -30 -170)" x="-30" y="-170">

</text>
</g>
</g>
</svg>