<svg viewBox="0 0 600 400" xmlns="http://www.w3.org/2000/svg">
<g transform="translate(50, 360)">
<g>
<path d="M0,0 L0,0 L2.5,-0.0000002125 L5,-0.0000034 L7.5,-0.0000172125 L10,-0.0000544 L12.5,-0.0001328125 L15,-0.0002754 L17.5,-0.0005102125 L20,-0.0008704 L22.5,-0.0013942125 L25,-0.002125 L27.5,-0.0031112125 L30,-0.0044064 L32.5,-0.0060692127 L35,-0.0081634 L37.5,-0.010757812 L40,-0.0139264 L42.5,-0.017748212 L45,-0.0223074 L47.5,-0.027693212 L50,-0.034 L52.5,-0.041327212 L55,-0.0497794 L57.5,-0.059466213 L60,-0.0705024 L62.5,-0.08300781 L65,-0.0971074 L67.5,-0.112931214 L70,-0.1306144 L72.5,-0.15029721 L75,-0.172125 L77.5,-0.19624822 L80,-0.2228224 L82.5,-0.2520082 L85,-0.2839714 L87.5,-0.31888282 L90,-0.3569184 L92.5,-0.39825922 L95,-0.4430914 L97.5,-0.4916062 L100,-0.544 L102.5,-0.60047424 L105,-0.6612354 L107.5,-0.7264952 L110,-0.7964704 L112.5,-0.87138283 L115,-0.9514594 L117.5,-1.0369322 L120,-1.1280384 L122.5,-1.2250202 L125,-1.328125 L127.5,-1.4376053 L130,-1.5537184 L132.5,-1.6767272 L135,-1.8068994 L137.5,-1.9445078 L140,-2.0898304 L142.5,-2.2431502 L145,-2.4047554 L147.5,-2.5749393 L150,-2.754 L152.5,-2.9422412 L155,-3.1399715 L157.5,-3.3475041 L160,-3.5651584 L162.5,-3.7932577 L165,-4.032131 L167.5,-4.282113 L170,-4.5435424 L172.5,-4.8167634 L175,-5.102125 L177.5,-5.399982 L180,-5.7106943 L182.5,-6.034626 L185,-6.3721476 L187.5,-6.723633 L190,-7.0894623 L192.5,-7.4700212 L195,-7.8656993 L197.5,-8.276893 L200,-8.704 L202.5,-9.1474285 L205,-9.607588 L207.5,-10.084893 L210,-10.579766 L212.5,-11.092633 L215,-11.623923 L217.5,-12.174074 L220,-12.743526 L222.5,-13.3327265 L225,-13.942125 L227.5,-14.572179 L230,-15.223351 L232.5,-15.896105 L235,-16.590916 L237.5,-17.308258 L240,-18.048615 L242.5,-18.812471 L245,-19.600323 L247.5,-20.412664 L250,-21.25 L252.5,-22.112835 L255,-23.001684 L257.5,-23.917063 L260,-24.859495 L262.5,-25.829508 L265,-26.827635 L267.5,-27.854416 L270,-28.91039 L272.5,-29.996109 L275,-31.112125 L277.5,-32.258995 L280,-33.437286 L282.5,-34.647564 L285,-35.890404 L287.5,-37.16638 L290,-38.476086 L292.5,-39.820103 L295,-41.199028 L297.5,-42.613457 L300,-44.064 L302.5,-45.55126 L305,-47.07586 L307.5,-48.638412 L310,-50.239544 L312.5,-51.879883 L315,-53.560066 L317.5,-55.280735 L320,-57.042534 L322.5,-58.84611 L325,-60.692123 L327.5,-62.581234 L330,-64.5141 L332.5,-66.4914 L335,-68.51381 L337.5,-70.58201 L340,-72.69668 L342.5,-74.85851 L345,-77.068214 L347.5,-79.32647 L350,-81.634 L352.5,-83.99151 L355,-86.39971 L357.5,-88.85934 L360,-91.37111 L362.5,-93.93576 L365,-96.554016 L367.5,-99.22664 L370,-101.95436 L372.5,-104.73794 L375,-107.578125 L377.5,-110.47569 L380,-113.4314 L382.5,-116.44602 L385,-119.52034 L387.5,-122.655136 L390,-125.85119 L392.5,-129.1093 L395,-132.43028 L397.5,-135.81491 L400,-139.264 L402.5,-142.77838 L405,-146.35886 L407.5,-150.00626 L410,-153.7214 L412.5,-157.50513 L415,-161.35829 L417.5,-165.28172 L420,-169.27626 L422.5,-173.34277 L425,-177.48213 L427.5,-181.69516 L430,-185.98277 L432.5,-190.34583 L435,-194.78519 L437.5,-199.30176 L440,-203.89642 L442.5,-208.57008 L445,-213.32362 L447.5,-218.15796 L450,-223.074 L452.5,-228.07266 L455,-233.15486 L457.5,-238.32153 L460,-243.57361 L462.5,-248.912 L465,-254.33768 L467.5,-259.8516 L470,-265.45465 L472.5,-271.14783 L475,-276.93213 L477.5,-282.80847 L480,-288.77783 L482.5,-294.8412 L485,-300.99954 L487.5,-307.25388 L490,-313.60516 L492.5,-320.0544 L495,-326.60263 L497.5,-333.25082 L500,-340" fill="none" stroke="red" stroke-width="2"/>
</g>
<g>
<g>
<line stroke="black" stroke-width="1" x1="0" x2="0" y1="0" y2="10"/>
<line stroke="black" stroke-width="1" x1="100" x2="100" y1="0" y2="10"/>
<line stroke="black" stroke-width="1" x1="200" x2="200" y1="0" y2="10"/>
<line stroke="black" stroke-width="1" x1="300.00000000000006" x2="300.00000000000006" y1="0" y2="10"/>
<line stroke="black" stroke-width="1" x1="400" x2="400" y1="0" y2="10"/>
<line stroke="black" stroke-width="1" x1="500" x2="500" y1="0" y2="10"/>
</g>
<line stroke="black" stroke-width="1" x1="0" x2="500" y1="0" y2="0"/>
<g>
<text font-size="12" text-anchor="middle" x="0" y="20">
0
</text>
<text font-size="12" text-anchor="middle" x="100" y="20">
0.2
</text>
<text font-size="12" text-anchor="middle" x="200" y="20">
0.4
</text>
<text font-size="12" text-anchor="middle" x="300.00000000000006" y="20">
0.6000000000000001
</text>
<text font-size="12" text-anchor="middle" x="400" y="20">
0.8
</text>
<text font-size="12" text-anchor="middle" x="500" y="20">
1
</text>
</g>
<text font-size="12" text-anchor="middle" x="250" y="30">

</text>
</g>
<g>
<g>
<line stroke="black" stroke-width="1" x1="0" x2="-10" y1="0" y2="0"/>
<line stroke="black" stroke-width="1" x1="0" x2="-10" y1="-68" y2="-68"/>
<line stroke="black" stroke-width="1" x1="0" x2="-10" y1="-136" y2="-136"/>
<line stroke="black" stroke-width="1" x1="0" x2="-10" y1="-204.00000000000003" y2="-204.00000000000003"/>
<line stroke="black" stroke-width="1" x1="0" x2="-10" y1="-272" y2="-272"/>
<line stroke="black" stroke-width="1" x1="0" x2="-10" y1="-340" y2="-340"/>
</g>
<line stroke="black" stroke-0="1" x1="0" x2="0" y1="0" y2="-340"/>
<g>
<text dominant-baseline="middle" font-size="12" text-anchor="end" x="-15" y="0">
0
</text>
<text dominant-baseline="middle" font-size="12" text-anchor="end" x="-15" y="-68">
0.2
</text>
<text dominant-baseline="middle" font-size="12" text-anchor="end" x="-15" y="-136">
0.4
</text>
<text dominant-baseline="middle" font-size="12" text-anchor="end" x="-15" y="-204.00000000000003">
0.6000000000000001
</text>
<text dominant-baseline="middle" font-size="12" text-anchor="end" x="-15" y="-272">
0.8
</text>
<text dominant-baseline="middle" font-size="12" text-anchor="end" x="-15" y="-340">
1
</text>
</g>
<text font-size="12" text-anchor="middle" transform="rotate(-90 -30 -170)" x="-30" y="-170">

</text>
</g>
</g>
</svg>