<svg viewBox="0 0 600 400" xmlns="http://www.w3.org/2000/svg">
<g transform="translate(50, 360)">
<g>
<path d="M0,0 L0,0 L2.5,-0.0085 L5,-0.034 L7.5,-0.0765 L10,-0.136 L12.5,-0.2125 L15,-0.306 L17.5,-0.4165 L20,-0.544 L22.5,-0.6885 L25,-0.85 L27.5,-1.0285 L30,-1.224 L32.5,-1.4365 L35,-1.666 L37.5,-1.9125 L40,-2.176 L42.5,-2.4565 L45,-2.754 L47.5,-3.0685 L50,-3.4 L52.5,-3.7485 L55,-4.114 L57.5,-4.4965 L60,-4.896 L62.5,-5.3125 L65,-5.746 L67.5,-6.1965 L70,-6.664 L72.5,-7.1485 L75,-7.65 L77.5,-8.1685 L80,-8.704 L82.5,-9.2565 L85,-9.826 L87.5,-10.4125 L90,-11.016 L92.5,-11.6365 L95,-12.274 L97.5,-12.9285 L100,-13.6 L102.5,-14.2885 L105,-14.994 L107.5,-15.7165 L110,-16.456 L112.5,-17.2125 L115,-17.986 L117.5,-18.7765 L120,-19.584 L122.5,-20.4085 L125,-21.25 L127.5,-22.1085 L130,-22.984 L132.5,-23.8765 L135,-24.786 L137.5,-25.7125 L140,-26.656 L142.5,-27.6165 L145,-28.594 L147.5,-29.5885 L150,-30.6 L152.5,-31.6285 L155,-32.674 L157.5,-33.7365 L160,-34.816 L162.5,-35.9125 L165,-37.026 L167.5,-38.1565 L170,-39.304 L172.5,-40.4685 L175,-41.65 L177.5,-42.8485 L180,-44.064 L182.5,-45.2965 L185,-46.546 L187.5,-47.8125 L190,-49.096 L192.5,-50.3965 L195,-51.714 L197.5,-53.0485 L200,-54.4 L202.5,-55.7685 L205,-57.154 L207.5,-58.5565 L210,-59.976 L212.5,-61.4125 L215,-62.866 L217.5,-64.3365 L220,-65.824 L222.5,-67.3285 L225,-68.85 L227.5,-70.3885 L230,-71.944 L232.5,-73.5165 L235,-75.106 L237.5,-76.7125 L240,-78.336 L242.5,-79.9765 L245,-81.634 L247.5,-83.3085 L250,-85 L252.5,-86.7085 L255,-88.434 L257.5,-90.1765 L260,-91.936 L262.5,-93.7125 L265,-95.506 L267.5,-97.3165 L270,-99.144 L272.5,-100.9885 L275,-102.85 L277.5,-104.7285 L280,-106.624 L282.5,-108.5365 L285,-110.466 L287.5,-112.4125 L290,-114.376 L292.5,-116.3565 L295,-118.354 L297.5,-120.3685 L300,-122.4 L302.5,-124.4485 L305,-126.514 L307.5,-128.5965 L310,-130.696 L312.5,-132.8125 L315,-134.946 L317.5,-137.0965 L320,-139.264 L322.5,-141.4485 L325,-143.65 L327.5,-145.8685 L330,-148.104 L332.5,-150.3565 L335,-152.626 L337.5,-154.9125 L340,-157.216 L342.5,-159.5365 L345,-161.874 L347.5,-164.2285 L350,-166.6 L352.5,-168.9885 L355,-171.394 L357.5,-173.8165 L360,-176.256 L362.5,-178.7125 L365,-181.186 L367.5,-183.6765 L370,-186.184 L372.5,-188.7085 L375,-191.25 L377.5,-193.8085 L380,-196.384 L382.5,-198.9765 L385,-201.586 L387.5,-204.2125 L390,-206.856 L392.5,-209.5165 L395,-212.194 L397.5,-214.8885 L400,-217.6 L402.5,-220.3285 L405,-223.074 L407.5,-225.8365 L410,-228.616 L412.5,-231.4125 L415,-234.226 L417.5,-237.0565 L420,-239.904 L422.5,-242.7685 L425,-245.65 L427.5,-248.5485 L430,-251.464 L432.5,-254.3965 L435,-257.346 L437.5,-260.3125 L440,-263.296 L442.5,-266.2965 L445,-269.314 L447.5,-272.3485 L450,-275.4 L452.5,-278.4685 L455,-281.554 L457.5,-284.6565 L460,-287.776 L462.5,-290.9125 L465,-294.066 L467.5,-297.2365 L470,-300.424 L472.5,-303.6285 L475,-306.85 L477.5,-310.0885 L480,-313.344 L482.5,-316.6165 L485,-319.906 L487.5,-323.2125 L490,-326.536 L492.5,-329.8765 L495,-333.234 L497.5,-336.6085 L500,-340" fill="none" stroke="red" stroke-width="2"/>
</g>
<g>
<g>
<line stroke="black" stroke-width="1" x1="0" x2="0" y1="0" y2="10"/>
<line stroke="black" stroke-width="1" x1="100" x2="100" y1="0" y2="10"/>
<line stroke="black" stroke-width="1" x1="200" x2="200" y1="0" y2="10"/>
<line stroke="black" stroke-width="1" x1="300.00000000000006" x2="300.00000000000006" y1="0" y2="10"/>
<line stroke="black" stroke-width="1" x1="400" x2="400" y1="0" y2="10"/>
<line stroke="black" stroke-width="1" x1="500" x2="500" y1="0" y2="10"/>
</g>
<line stroke="black" stroke-width="1" x1="0" x2="500" y1="0" y2="0"/>
<g>
<text font-size="12" text-anchor="middle" x="0" y="20">
0
</text>
<text font-size="12" text-anchor="middle" x="100" y="20">
0.2
</text>
<text font-size="12" text-anchor="middle" x="200" y="20">
0.4
</text>
<text font-size="12" text-anchor="middle" x="300.00000000000006" y="20">
0.6000000000000001
</text>
<text font-size="12" text-anchor="middle" x="400" y="20">
0.8
</text>
<text font-size="12" text-anchor="middle" x="500" y="20">
1
</text>
</g>
<text font-size="12" text-anchor="middle" x="250" y="30">

</text>
</g>
<g>
<g>
<line stroke="black" stroke-width="1" x1="0" x2="-10" y1="0" y2="0"/>
<line stroke="black" stroke-width="1" x1="0" x2="-10" y1="-68" y2="-68"/>
<line stroke="black" stroke-width="1" x1="0" x2="-10" y1="-136" y2="-136"/>
<line stroke="black" stroke-width="1" x1="0" x2="-10" y1="-204.00000000000003" y2="-204.00000000000003"/>
<line stroke="black" stroke-width="1" x1="0" x2="-10" y1="-272" y2="-272"/>
<line stroke="black" stroke-width="1" x1="0" x2="-10" y1="-340" y2="-340"/>
</g>
<line stroke="black" stroke-0="1" x1="0" x2="0" y1="0" y2="-340"/>
<g>
<text dominant-baseline="middle" font-size="12" text-anchor="end" x="-15" y="0">
0
</text>
<text dominant-baseline="middle" font-size="12" text-anchor="end" x="-15" y="-68">
0.2
</text>
<text dominant-baseline="middle" font-size="12" text-anchor="end" x="-15" y="-136">
0.4
</text>
<text dominant-baseline="middle" font-size="12" text-anchor="end" x="-15" y="-204.00000000000003">
0.6000000000000001
</text>
<text dominant-baseline="middle" font-size="12" text-anchor="end" x="-15" y="-272">
0.8
</text>
<text dominant-baseline="middle" font-size="12" text-anchor="end" x="-15" y="-340">
1
</text>
</g>
<text font-size="12" text-anchor="middle" transform="rotate(-90 -30 -170)" x="-30" y="-170">

</text>
</g>
</g>
</svg>