<svg viewBox="0 0 600 400" xmlns="http://www.w3.org/2000/svg">
<g transform="translate(50, 360)">
<g>
<path d="M0,0 L0,0 L2.5,-0.03374606 L5,-0.13397694 L7.5,-0.29920053 L10,-0.5279498 L12.5,-0.81878245 L15,-1.1702805 L17.5,-1.5810504 L20,-2.0497224 L22.5,-2.5749507 L25,-3.1554124 L27.5,-3.7898088 L30,-4.4768634 L32.5,-5.215322 L35,-6.003954 L37.5,-6.8415504 L40,-7.726924 L42.5,-8.658909 L45,-9.636362 L47.5,-10.658159 L50,-11.7232 L52.5,-12.830402 L55,-13.978705 L57.5,-15.1670685 L60,-16.394472 L62.5,-17.659912 L65,-18.96241 L67.5,-20.300999 L70,-21.67474 L72.5,-23.082705 L75,-24.523987 L77.5,-25.9977 L80,-27.50297 L82.5,-29.038944 L85,-30.604786 L87.5,-32.19968 L90,-33.822823 L92.5,-35.473427 L95,-37.150723 L97.5,-38.85396 L100,-40.5824 L102.5,-42.335323 L105,-44.11202 L107.5,-45.911797 L110,-47.733986 L112.5,-49.577915 L115,-51.442947 L117.5,-53.328438 L120,-55.233772 L122.5,-57.158344 L125,-59.101563 L127.5,-61.062843 L130,-63.04162 L132.5,-65.03734 L135,-67.04945 L137.5,-69.07744 L140,-71.120766 L142.5,-73.17894 L145,-75.25146 L147.5,-77.33784 L150,-79.4376 L152.5,-81.550285 L155,-83.67544 L157.5,-85.81261 L160,-87.96137 L162.5,-90.1213 L165,-92.29197 L167.5,-94.472984 L170,-96.66394 L172.5,-98.864456 L175,-101.074135 L177.5,-103.29262 L180,-105.51953 L182.5,-107.75452 L185,-109.99723 L187.5,-112.247314 L190,-114.50444 L192.5,-116.76827 L195,-119.03849 L197.5,-121.31477 L200,-123.5968 L202.5,-125.88427 L205,-128.17688 L207.5,-130.47432 L210,-132.7763 L212.5,-135.08255 L215,-137.39276 L217.5,-139.70667 L220,-142.02397 L222.5,-144.3444 L225,-146.66771 L227.5,-148.9936 L230,-151.32182 L232.5,-153.65211 L235,-155.98419 L237.5,-158.31783 L240,-160.65273 L242.5,-162.98865 L245,-165.32533 L247.5,-167.66254 L250,-170 L252.5,-172.33746 L255,-174.67467 L257.5,-177.01135 L260,-179.34727 L262.5,-181.68217 L265,-184.01581 L267.5,-186.34789 L270,-188.67818 L272.5,-191.0064 L275,-193.33229 L277.5,-195.6556 L280,-197.97603 L282.5,-200.29333 L285,-202.60724 L287.5,-204.91745 L290,-207.2237 L292.5,-209.52568 L295,-211.82312 L297.5,-214.11574 L300,-216.4032 L302.5,-218.68523 L305,-220.9615 L307.5,-223.23172 L310,-225.49556 L312.5,-227.75269 L315,-230.00278 L317.5,-232.24548 L320,-234.48047 L322.5,-236.70738 L325,-238.92586 L327.5,-241.13554 L330,-243.33606 L332.5,-245.52701 L335,-247.70802 L337.5,-249.87871 L340,-252.03864 L342.5,-254.1874 L345,-256.32455 L347.5,-258.4497 L350,-260.5624 L352.5,-262.66217 L355,-264.74854 L357.5,-266.82104 L360,-268.87924 L362.5,-270.92258 L365,-272.95056 L367.5,-274.96268 L370,-276.95837 L372.5,-278.93716 L375,-280.89844 L377.5,-282.84164 L380,-284.76624 L382.5,-286.67157 L385,-288.55707 L387.5,-290.4221 L390,-292.26602 L392.5,-294.0882 L395,-295.88797 L397.5,-297.66467 L400,-299.4176 L402.5,-301.14603 L405,-302.84927 L407.5,-304.52658 L410,-306.1772 L412.5,-307.80032 L415,-309.3952 L417.5,-310.96106 L420,-312.49704 L422.5,-314.0023 L425,-315.476 L427.5,-316.9173 L430,-318.32526 L432.5,-319.699 L435,-321.0376 L437.5,-322.3401 L440,-323.60553 L442.5,-324.83292 L445,-326.0213 L447.5,-327.1696 L450,-328.2768 L452.5,-329.34183 L455,-330.36365 L457.5,-331.3411 L460,-332.27307 L462.5,-333.15845 L465,-333.99603 L467.5,-334.78467 L470,-335.52313 L472.5,-336.2102 L475,-336.84457 L477.5,-337.42505 L480,-337.9503 L482.5,-338.41895 L485,-338.8297 L487.5,-339.1812 L490,-339.47205 L492.5,-339.7008 L495,-339.86603 L497.5,-339.96625 L500,-340" fill="none" stroke="red" stroke-width="2"/>
</g>
<g>
<g>
<line stroke="black" stroke-width="1" x1="0" x2="0" y1="0" y2="10"/>
<line stroke="black" stroke-width="1" x1="100" x2="100" y1="0" y2="10"/>
<line stroke="black" stroke-width="1" x1="200" x2="200" y1="0" y2="10"/>
<line stroke="black" stroke-width="1" x1="300.00000000000006" x2="300.00000000000006" y1="0" y2="10"/>
<line stroke="black" stroke-width="1" x1="400" x2="400" y1="0" y2="10"/>
<line stroke="black" stroke-width="1" x1="500" x2="500" y1="0" y2="10"/>
</g>
<line stroke="black" stroke-width="1" x1="0" x2="500" y1="0" y2="0"/>
<g>
<text font-size="12" text-anchor="middle" x="0" y="20">
0
</text>
<text font-size="12" text-anchor="middle" x="100" y="20">
0.2
</text>
<text font-size="12" text-anchor="middle" x="200" y="20">
0.4
</text>
<text font-size="12" text-anchor="middle" x="300.00000000000006" y="20">
0.6000000000000001
</text>
<text font-size="12" text-anchor="middle" x="400" y="20">
0.8
</text>
<text font-size="12" text-anchor="middle" x="500" y="20">
1
</text>
</g>
<text font-size="12" text-anchor="middle" x="250" y="30">

</text>
</g>
<g>
<g>
<line stroke="black" stroke-width="1" x1="0" x2="-10" y1="0" y2="0"/>
<line stroke="black" stroke-width="1" x1="0" x2="-10" y1="-68" y2="-68"/>
<line stroke="black" stroke-width="1" x1="0" x2="-10" y1="-136" y2="-136"/>
<line stroke="black" stroke-width="1" x1="0" x2="-10" y1="-204.00000000000003" y2="-204.00000000000003"/>
<line stroke="black" stroke-width="1" x1="0" x2="-10" y1="-272" y2="-272"/>
<line stroke="black" stroke-width="1" x1="0" x2="-10" y1="-340" y2="-340"/>
</g>
<line stroke="black" stroke-0="1" x1="0" x2="0" y1="0" y2="-340"/>
<g>
<text dominant-baseline="middle" font-size="12" text-anchor="end" x="-15" y="0">
0
</text>
<text dominant-baseline="middle" font-size="12" text-anchor="end" x="-15" y="-68">
0.2
</text>
<text dominant-baseline="middle" font-size="12" text-anchor="end" x="-15" y="-136">
0.4
</text>
<text dominant-baseline="middle" font-size="12" text-anchor="end" x="-15" y="-204.00000000000003">
0.6000000000000001
</text>
<text dominant-baseline="middle" font-size="12" text-anchor="end" x="-15" y="-272">
0.8
</text>
<text dominant-baseline="middle" font-size="12" text-anchor="end" x="-15" y="-340">
1
</text>
</g>
<text font-size="12" text-anchor="middle" transform="rotate(-90 -30 -170)" x="-30" y="-170">

</text>
</g>
</g>
</svg>