<svg viewBox="0 0 600 400" xmlns="http://www.w3.org/2000/svg">
<g transform="translate(50, 360)">
<g>
<path d="M0,0 L0,0 L2.5,-8.415424 L5,-16.663383 L7.5,-24.74639 L10,-32.666927 L12.5,-40.427464 L15,-48.03043 L17.5,-55.47824 L20,-62.77328 L22.5,-69.917915 L25,-76.91448 L27.5,-83.76529 L30,-90.47263 L32.5,-97.03877 L35,-103.46596 L37.5,-109.75639 L40,-115.912285 L42.5,-121.93579 L45,-127.82907 L47.5,-133.59424 L50,-139.2334 L52.5,-144.74863 L55,-150.14198 L57.5,-155.41548 L60,-160.57115 L62.5,-165.61096 L65,-170.53688 L67.5,-175.35086 L70,-180.05481 L72.5,-184.65063 L75,-189.1402 L77.5,-193.52534 L80,-197.80794 L82.5,-201.98976 L85,-206.07262 L87.5,-210.05826 L90,-213.94846 L92.5,-217.7449 L95,-221.44933 L97.5,-225.0634 L100,-228.5888 L102.5,-232.02715 L105,-235.38008 L107.5,-238.6492 L110,-241.83607 L112.5,-244.94228 L115,-247.96935 L117.5,-250.9188 L120,-253.79214 L122.5,-256.59085 L125,-259.3164 L127.5,-261.97025 L130,-264.55377 L132.5,-267.06842 L135,-269.51556 L137.5,-271.89658 L140,-274.2128 L142.5,-276.46558 L145,-278.6562 L147.5,-280.78598 L150,-282.8562 L152.5,-284.8681 L155,-286.82294 L157.5,-288.72192 L160,-290.56625 L162.5,-292.35715 L165,-294.09573 L167.5,-295.7832 L170,-297.4207 L172.5,-299.00928 L175,-300.5501 L177.5,-302.04425 L180,-303.49277 L182.5,-304.89673 L185,-306.25717 L187.5,-307.57507 L190,-308.85147 L192.5,-310.08737 L195,-311.28372 L197.5,-312.4415 L200,-313.5616 L202.5,-314.645 L205,-315.69257 L207.5,-316.70523 L210,-317.68387 L212.5,-318.62933 L215,-319.54248 L217.5,-320.42413 L220,-321.27512 L222.5,-322.09625 L225,-322.88834 L227.5,-323.65213 L230,-324.3884 L232.5,-325.0979 L235,-325.78134 L237.5,-326.4395 L240,-327.07306 L242.5,-327.6827 L245,-328.26913 L247.5,-328.833 L250,-329.375 L252.5,-329.89572 L255,-330.39584 L257.5,-330.87595 L260,-331.33667 L262.5,-331.77856 L265,-332.20227 L267.5,-332.6083 L270,-332.99725 L272.5,-333.36966 L275,-333.72604 L277.5,-334.06693 L280,-334.39285 L282.5,-334.70428 L285,-335.0017 L287.5,-335.28564 L290,-335.5565 L292.5,-335.81476 L295,-336.06088 L297.5,-336.2953 L300,-336.5184 L302.5,-336.73062 L305,-336.93237 L307.5,-337.12405 L310,-337.306 L312.5,-337.47864 L315,-337.6423 L317.5,-337.79736 L320,-337.94415 L322.5,-338.083 L325,-338.21426 L327.5,-338.33823 L330,-338.4552 L332.5,-338.5655 L335,-338.6694 L337.5,-338.76718 L340,-338.85916 L342.5,-338.94553 L345,-339.0266 L347.5,-339.10263 L350,-339.1738 L352.5,-339.2404 L355,-339.3026 L357.5,-339.3607 L360,-339.41486 L362.5,-339.46527 L365,-339.51215 L367.5,-339.55566 L370,-339.59604 L372.5,-339.63342 L375,-339.66797 L377.5,-339.69986 L380,-339.72928 L382.5,-339.75632 L385,-339.78116 L387.5,-339.80392 L390,-339.82477 L392.5,-339.8438 L395,-339.86115 L397.5,-339.8769 L400,-339.8912 L402.5,-339.90414 L405,-339.9158 L407.5,-339.92633 L410,-339.93576 L412.5,-339.94418 L415,-339.95172 L417.5,-339.9584 L420,-339.96436 L422.5,-339.96957 L425,-339.97418 L427.5,-339.9782 L430,-339.98172 L432.5,-339.98474 L435,-339.98737 L437.5,-339.98962 L440,-339.99155 L442.5,-339.99316 L445,-339.99454 L447.5,-339.99567 L450,-339.9966 L452.5,-339.99738 L455,-339.998 L457.5,-339.9985 L460,-339.99887 L462.5,-339.9992 L465,-339.99942 L467.5,-339.9996 L470,-339.99973 L472.5,-339.99982 L475,-339.9999 L477.5,-339.99994 L480,-339.99997 L482.5,-339.99997 L485,-340 L487.5,-340 L490,-340 L492.5,-340 L495,-340 L497.5,-340 L500,-340" fill="none" stroke="red" stroke-width="2"/>
</g>
<g>
<g>
<line stroke="black" stroke-width="1" x1="0" x2="0" y1="0" y2="10"/>
<line stroke="black" stroke-width="1" x1="100" x2="100" y1="0" y2="10"/>
<line stroke="black" stroke-width="1" x1="200" x2="200" y1="0" y2="10"/>
<line stroke="black" stroke-width="1" x1="300.00000000000006" x2="300.00000000000006" y1="0" y2="10"/>
<line stroke="black" stroke-width="1" x1="400" x2="400" y1="0" y2="10"/>
<line stroke="black" stroke-width="1" x1="500" x2="500" y1="0" y2="10"/>
</g>
<line stroke="black" stroke-width="1" x1="0" x2="500" y1="0" y2="0"/>
<g>
<text font-size="12" text-anchor="middle" x="0" y="20">
0
</text>
<text font-size="12" text-anchor="middle" x="100" y="20">
0.2
</text>
<text font-size="12" text-anchor="middle" x="200" y="20">
0.4
</text>
<text font-size="12" text-anchor="middle" x="300.00000000000006" y="20">
0.6000000000000001
</text>
<text font-size="12" text-anchor="middle" x="400" y="20">
0.8
</text>
<text font-size="12" text-anchor="middle" x="500" y="20">
1
</text>
</g>
<text font-size="12" text-anchor="middle" x="250" y="30">

</text>
</g>
<g>
<g>
<line stroke="black" stroke-width="1" x1="0" x2="-10" y1="0" y2="0"/>
<line stroke="black" stroke-width="1" x1="0" x2="-10" y1="-68" y2="-68"/>
<line stroke="black" stroke-width="1" x1="0" x2="-10" y1="-136" y2="-136"/>
<line stroke="black" stroke-width="1" x1="0" x2="-10" y1="-204.00000000000003" y2="-204.00000000000003"/>
<line stroke="black" stroke-width="1" x1="0" x2="-10" y1="-272" y2="-272"/>
<line stroke="black" stroke-width="1" x1="0" x2="-10" y1="-340" y2="-340"/>
</g>
<line stroke="black" stroke-0="1" x1="0" x2="0" y1="0" y2="-340"/>
<g>
<text dominant-baseline="middle" font-size="12" text-anchor="end" x="-15" y="0">
0
</text>
<text dominant-baseline="middle" font-size="12" text-anchor="end" x="-15" y="-68">
0.2
</text>
<text dominant-baseline="middle" font-size="12" text-anchor="end" x="-15" y="-136">
0.4
</text>
<text dominant-baseline="middle" font-size="12" text-anchor="end" x="-15" y="-204.00000000000003">
0.6000000000000001
</text>
<text dominant-baseline="middle" font-size="12" text-anchor="end" x="-15" y="-272">
0.8
</text>
<text dominant-baseline="middle" font-size="12" text-anchor="end" x="-15" y="-340">
1
</text>
</g>
<text font-size="12" text-anchor="middle" transform="rotate(-90 -30 -170)" x="-30" y="-170">

</text>
</g>
</g>
</svg>