<svg viewBox="0 0 600 400" xmlns="http://www.w3.org/2000/svg">
<g transform="translate(50, 360)">
<g>
<path d="M0,0 L0,0 L2.5,-0.0000000000053125 L5,-0.00000000034 L7.5,-0.0000000038728123 L10,-0.00000002176 L12.5,-0.00000008300781 L15,-0.00000024786 L17.5,-0.00000062501033 L20,-0.00000139264 L22.5,-0.0000028232803 L25,-0.0000053125 L27.5,-0.0000094114175 L30,-0.00001586304 L32.5,-0.000025642423 L35,-0.00004000066 L37.5,-0.000060512695 L40,-0.00008912896 L42.5,-0.00012823084 L45,-0.00018068994 L47.5,-0.00024993124 L50,-0.00034 L52.5,-0.00045563251 L55,-0.0006023307 L57.5,-0.0007864407 L60,-0.0010152345 L62.5,-0.0012969971 L65,-0.001641115 L67.5,-0.0020581714 L70,-0.0025600423 L72.5,-0.003159999 L75,-0.0038728125 L77.5,-0.0047148634 L80,-0.0057042534 L82.5,-0.0068609235 L85,-0.008206774 L87.5,-0.009765786 L90,-0.011564156 L92.5,-0.013630422 L95,-0.0159956 L97.5,-0.018693326 L100,-0.02176 L102.5,-0.025234928 L105,-0.029160481 L107.5,-0.03358224 L110,-0.038549166 L112.5,-0.044113755 L115,-0.050332204 L117.5,-0.05726458 L120,-0.06497501 L122.5,-0.073531836 L125,-0.08300781 L127.5,-0.09348028 L130,-0.10503136 L132.5,-0.11774817 L135,-0.13172297 L137.5,-0.1470534 L140,-0.16384271 L142.5,-0.18219988 L145,-0.20223993 L147.5,-0.22408408 L150,-0.24786 L152.5,-0.273702 L155,-0.30175126 L157.5,-0.3321561 L160,-0.36507222 L162.5,-0.40066287 L165,-0.4390991 L167.5,-0.48056015 L170,-0.5252335 L172.5,-0.57331526 L175,-0.6250103 L177.5,-0.68053275 L180,-0.740106 L182.5,-0.80396307 L185,-0.872347 L187.5,-0.94551086 L190,-1.0237184 L192.5,-1.1072439 L195,-1.1963729 L197.5,-1.2914021 L200,-1.39264 L202.5,-1.5004069 L205,-1.6150354 L207.5,-1.7368708 L210,-1.8662708 L212.5,-2.0036068 L215,-2.1492634 L217.5,-2.3036392 L220,-2.4671466 L222.5,-2.640213 L225,-2.8232803 L227.5,-3.0168054 L230,-3.221261 L232.5,-3.4371355 L235,-3.6649332 L237.5,-3.9051757 L240,-4.1584005 L242.5,-4.4251637 L245,-4.7060375 L247.5,-5.001613 L250,-5.3125 L252.5,-5.6393256 L255,-5.982738 L257.5,-6.343403 L260,-6.7220073 L262.5,-7.119258 L265,-7.535883 L267.5,-7.97263 L270,-8.43027 L272.5,-8.909595 L275,-9.411418 L277.5,-9.936577 L280,-10.485933 L282.5,-11.060369 L285,-11.660792 L287.5,-12.288136 L290,-12.943356 L292.5,-13.627435 L295,-14.341381 L297.5,-15.086229 L300,-15.86304 L302.5,-16.672901 L305,-17.516928 L307.5,-18.396263 L310,-19.31208 L312.5,-20.26558 L315,-21.25799 L317.5,-22.290575 L320,-23.364622 L322.5,-24.481453 L325,-25.642424 L327.5,-26.848913 L330,-28.102343 L332.5,-29.404161 L335,-30.75585 L337.5,-32.158928 L340,-33.614944 L342.5,-35.125484 L345,-36.692177 L347.5,-38.31667 L350,-40.00066 L352.5,-41.74588 L355,-43.554096 L357.5,-45.427116 L360,-47.366783 L362.5,-49.37498 L365,-51.453636 L367.5,-53.60471 L370,-55.830208 L372.5,-58.13217 L375,-60.512695 L377.5,-62.973904 L380,-65.517975 L382.5,-68.147125 L385,-70.86361 L387.5,-73.66974 L390,-76.56786 L392.5,-79.56038 L395,-82.649734 L397.5,-85.83842 L400,-89.12896 L402.5,-92.52396 L405,-96.02604 L407.5,-99.6379 L410,-103.36227 L412.5,-107.201935 L415,-111.15973 L417.5,-115.23855 L420,-119.44133 L422.5,-123.77108 L425,-128.23083 L427.5,-132.82372 L430,-137.55286 L432.5,-142.42151 L435,-147.4329 L437.5,-152.59041 L440,-157.89738 L442.5,-163.3573 L445,-168.97363 L447.5,-174.74998 L450,-180.68994 L452.5,-186.79721 L455,-193.07555 L457.5,-199.52875 L460,-206.1607 L462.5,-212.97534 L465,-219.97667 L467.5,-227.16875 L470,-234.55573 L472.5,-242.1418 L475,-249.93124 L477.5,-257.92838 L480,-266.13763 L482.5,-274.5635 L485,-283.21048 L487.5,-292.08322 L490,-301.1864 L492.5,-310.5248 L495,-320.10324 L497.5,-329.92667 L500,-340" fill="none" stroke="red" stroke-width="2"/>
</g>
<g>
<g>
<line stroke="black" stroke-width="1" x1="0" x2="0" y1="0" y2="10"/>
<line stroke="black" stroke-width="1" x1="100" x2="100" y1="0" y2="10"/>
<line stroke="black" stroke-width="1" x1="200" x2="200" y1="0" y2="10"/>
<line stroke="black" stroke-width="1" x1="300.00000000000006" x2="300.00000000000006" y1="0" y2="10"/>
<line stroke="black" stroke-width="1" x1="400" x2="400" y1="0" y2="10"/>
<line stroke="black" stroke-width="1" x1="500" x2="500" y1="0" y2="10"/>
</g>
<line stroke="black" stroke-width="1" x1="0" x2="500" y1="0" y2="0"/>
<g>
<text font-size="12" text-anchor="middle" x="0" y="20">
0
</text>
<text font-size="12" text-anchor="middle" x="100" y="20">
0.2
</text>
<text font-size="12" text-anchor="middle" x="200" y="20">
0.4
</text>
<text font-size="12" text-anchor="middle" x="300.00000000000006" y="20">
0.6000000000000001
</text>
<text font-size="12" text-anchor="middle" x="400" y="20">
0.8
</text>
<text font-size="12" text-anchor="middle" x="500" y="20">
1
</text>
</g>
<text font-size="12" text-anchor="middle" x="250" y="30">

</text>
</g>
<g>
<g>
<line stroke="black" stroke-width="1" x1="0" x2="-10" y1="0" y2="0"/>
<line stroke="black" stroke-width="1" x1="0" x2="-10" y1="-68" y2="-68"/>
<line stroke="black" stroke-width="1" x1="0" x2="-10" y1="-136" y2="-136"/>
<line stroke="black" stroke-width="1" x1="0" x2="-10" y1="-204.00000000000003" y2="-204.00000000000003"/>
<line stroke="black" stroke-width="1" x1="0" x2="-10" y1="-272" y2="-272"/>
<line stroke="black" stroke-width="1" x1="0" x2="-10" y1="-340" y2="-340"/>
</g>
<line stroke="black" stroke-0="1" x1="0" x2="0" y1="0" y2="-340"/>
<g>
<text dominant-baseline="middle" font-size="12" text-anchor="end" x="-15" y="0">
0
</text>
<text dominant-baseline="middle" font-size="12" text-anchor="end" x="-15" y="-68">
0.2
</text>
<text dominant-baseline="middle" font-size="12" text-anchor="end" x="-15" y="-136">
0.4
</text>
<text dominant-baseline="middle" font-size="12" text-anchor="end" x="-15" y="-204.00000000000003">
0.6000000000000001
</text>
<text dominant-baseline="middle" font-size="12" text-anchor="end" x="-15" y="-272">
0.8
</text>
<text dominant-baseline="middle" font-size="12" text-anchor="end" x="-15" y="-340">
1
</text>
</g>
<text font-size="12" text-anchor="middle" transform="rotate(-90 -30 -170)" x="-30" y="-170">

</text>
</g>
</g>
</svg>