<svg viewBox="0 0 600 400" xmlns="http://www.w3.org/2000/svg">
<g transform="translate(50, 360)">
<g>
<path d="M0,0 L0,0 L2.5,-5.0745425 L5,-10.09834 L7.5,-15.071648 L10,-19.99472 L12.5,-24.867813 L15,-29.69118 L17.5,-34.465076 L20,-39.18976 L22.5,-43.865482 L25,-48.4925 L27.5,-53.071068 L30,-57.60144 L32.5,-62.083874 L35,-66.51862 L37.5,-70.90594 L40,-75.24608 L42.5,-79.5393 L45,-83.78586 L47.5,-87.98601 L50,-92.14 L52.5,-96.24809 L55,-100.31054 L57.5,-104.3276 L60,-108.29952 L62.5,-112.22656 L65,-116.10898 L67.5,-119.94703 L70,-123.74096 L72.5,-127.491035 L75,-131.1975 L77.5,-134.86061 L80,-138.48064 L82.5,-142.05782 L85,-145.59242 L87.5,-149.08469 L90,-152.53488 L92.5,-155.94325 L95,-159.31006 L97.5,-162.63556 L100,-165.92 L102.5,-169.16364 L105,-172.36674 L107.5,-175.52954 L110,-178.65231 L112.5,-181.7353 L115,-184.77878 L117.5,-187.78297 L120,-190.74815 L122.5,-193.67458 L125,-196.5625 L127.5,-199.41217 L130,-202.22385 L132.5,-204.99777 L135,-207.73422 L137.5,-210.43344 L140,-213.09567 L142.5,-215.7212 L145,-218.31026 L147.5,-220.86311 L150,-223.38 L152.5,-225.86119 L155,-228.30695 L157.5,-230.7175 L160,-233.09312 L162.5,-235.43407 L165,-237.74059 L167.5,-240.01292 L170,-242.25136 L172.5,-244.45613 L175,-246.6275 L177.5,-248.76572 L180,-250.87103 L182.5,-252.94373 L185,-254.98402 L187.5,-256.9922 L190,-258.96848 L192.5,-260.91315 L195,-262.82645 L197.5,-264.70865 L200,-266.56 L202.5,-268.38074 L205,-270.17114 L207.5,-271.93146 L210,-273.66193 L212.5,-275.36282 L215,-277.0344 L217.5,-278.67688 L220,-280.29056 L222.5,-281.87567 L225,-283.4325 L227.5,-284.96127 L230,-286.46225 L232.5,-287.93567 L235,-289.3818 L237.5,-290.80093 L240,-292.19327 L242.5,-293.5591 L245,-294.89865 L247.5,-296.21222 L250,-297.5 L252.5,-298.7623 L255,-299.99933 L257.5,-301.2114 L260,-302.3987 L262.5,-303.56155 L265,-304.70016 L267.5,-305.81482 L270,-306.90576 L272.5,-307.97324 L275,-309.0175 L277.5,-310.03882 L280,-311.03745 L282.5,-312.0136 L285,-312.96762 L287.5,-313.8997 L290,-314.8101 L292.5,-315.69907 L295,-316.56686 L297.5,-317.41376 L300,-318.24 L302.5,-319.04584 L305,-319.83154 L307.5,-320.59735 L310,-321.3435 L312.5,-322.0703 L315,-322.77798 L317.5,-323.46677 L320,-324.13696 L322.5,-324.7888 L325,-325.4225 L327.5,-326.03836 L330,-326.63663 L332.5,-327.21756 L335,-327.78143 L337.5,-328.32843 L340,-328.8589 L342.5,-329.37302 L345,-329.87106 L347.5,-330.3533 L350,-330.82 L352.5,-331.2714 L355,-331.70773 L357.5,-332.1293 L360,-332.53632 L362.5,-332.92908 L365,-333.30777 L367.5,-333.67273 L370,-334.02417 L372.5,-334.36234 L375,-334.6875 L377.5,-334.9999 L380,-335.29984 L382.5,-335.58752 L385,-335.86322 L387.5,-336.1272 L390,-336.37967 L392.5,-336.62094 L395,-336.85126 L397.5,-337.07086 L400,-337.28 L402.5,-337.47894 L405,-337.66794 L407.5,-337.84726 L410,-338.01712 L412.5,-338.17783 L415,-338.3296 L417.5,-338.4727 L420,-338.60736 L422.5,-338.7339 L425,-338.8525 L427.5,-338.96347 L430,-339.06705 L432.5,-339.16348 L435,-339.25302 L437.5,-339.33594 L440,-339.41248 L442.5,-339.4829 L445,-339.54745 L447.5,-339.6064 L450,-339.66 L452.5,-339.7085 L455,-339.75214 L457.5,-339.7912 L460,-339.82593 L462.5,-339.85657 L465,-339.8834 L467.5,-339.90662 L470,-339.92657 L472.5,-339.94342 L475,-339.9575 L477.5,-339.96902 L480,-339.97824 L482.5,-339.9854 L485,-339.9908 L487.5,-339.9947 L490,-339.99728 L492.5,-339.99884 L495,-339.99966 L497.5,-339.99997 L500,-340" fill="none" stroke="red" stroke-width="2"/>
</g>
<g>
<g>
<line stroke="black" stroke-width="1" x1="0" x2="0" y1="0" y2="10"/>
<line stroke="black" stroke-width="1" x1="100" x2="100" y1="0" y2="10"/>
<line stroke="black" stroke-width="1" x1="200" x2="200" y1="0" y2="10"/>
<line stroke="black" stroke-width="1" x1="300.00000000000006" x2="300.00000000000006" y1="0" y2="10"/>
<line stroke="black" stroke-width="1" x1="400" x2="400" y1="0" y2="10"/>
<line stroke="black" stroke-width="1" x1="500" x2="500" y1="0" y2="10"/>
</g>
<line stroke="black" stroke-width="1" x1="0" x2="500" y1="0" y2="0"/>
<g>
<text font-size="12" text-anchor="middle" x="0" y="20">
0
</text>
<text font-size="12" text-anchor="middle" x="100" y="20">
0.2
</text>
<text font-size="12" text-anchor="middle" x="200" y="20">
0.4
</text>
<text font-size="12" text-anchor="middle" x="300.00000000000006" y="20">
0.6000000000000001
</text>
<text font-size="12" text-anchor="middle" x="400" y="20">
0.8
</text>
<text font-size="12" text-anchor="middle" x="500" y="20">
1
</text>
</g>
<text font-size="12" text-anchor="middle" x="250" y="30">

</text>
</g>
<g>
<g>
<line stroke="black" stroke-width="1" x1="0" x2="-10" y1="0" y2="0"/>
<line stroke="black" stroke-width="1" x1="0" x2="-10" y1="-68" y2="-68"/>
<line stroke="black" stroke-width="1" x1="0" x2="-10" y1="-136" y2="-136"/>
<line stroke="black" stroke-width="1" x1="0" x2="-10" y1="-204.00000000000003" y2="-204.00000000000003"/>
<line stroke="black" stroke-width="1" x1="0" x2="-10" y1="-272" y2="-272"/>
<line stroke="black" stroke-width="1" x1="0" x2="-10" y1="-340" y2="-340"/>
</g>
<line stroke="black" stroke-0="1" x1="0" x2="0" y1="0" y2="-340"/>
<g>
<text dominant-baseline="middle" font-size="12" text-anchor="end" x="-15" y="0">
0
</text>
<text dominant-baseline="middle" font-size="12" text-anchor="end" x="-15" y="-68">
0.2
</text>
<text dominant-baseline="middle" font-size="12" text-anchor="end" x="-15" y="-136">
0.4
</text>
<text dominant-baseline="middle" font-size="12" text-anchor="end" x="-15" y="-204.00000000000003">
0.6000000000000001
</text>
<text dominant-baseline="middle" font-size="12" text-anchor="end" x="-15" y="-272">
0.8
</text>
<text dominant-baseline="middle" font-size="12" text-anchor="end" x="-15" y="-340">
1
</text>
</g>
<text font-size="12" text-anchor="middle" transform="rotate(-90 -30 -170)" x="-30" y="-170">

</text>
</g>
</g>
</svg>