<svg viewBox="0 0 600 400" xmlns="http://www.w3.org/2000/svg">
<g transform="translate(50, 360)">
<g>
<path d="M0,0 L0,0 L2.5,-0.050366733 L5,-0.19896749 L7.5,-0.4421279 L10,-0.7762718 L12.5,-1.1979195 L15,-1.7036858 L17.5,-2.2902782 L20,-2.9544954 L22.5,-3.6932251 L25,-4.503443 L27.5,-5.38221 L30,-6.3266716 L32.5,-7.3340554 L35,-8.40167 L37.5,-9.526906 L40,-10.707226 L42.5,-11.940173 L45,-13.223366 L47.5,-14.554491 L50,-15.931312 L52.5,-17.35166 L55,-18.813437 L57.5,-20.314608 L60,-21.853207 L62.5,-23.427334 L65,-25.03515 L67.5,-26.674877 L70,-28.3448 L72.5,-30.043264 L75,-31.768667 L77.5,-33.519466 L80,-35.294178 L82.5,-37.09137 L85,-38.909657 L87.5,-40.74772 L90,-42.604275 L92.5,-44.478096 L95,-46.368008 L97.5,-48.272877 L100,-50.191616 L102.5,-52.123188 L105,-54.066593 L107.5,-56.02088 L110,-57.985138 L112.5,-59.958496 L115,-61.940125 L117.5,-63.929234 L120,-65.925064 L122.5,-67.92691 L125,-69.93408 L127.5,-71.94594 L130,-73.96187 L132.5,-75.9813 L135,-78.00368 L137.5,-80.028496 L140,-82.05527 L142.5,-84.08354 L145,-86.1129 L147.5,-88.142944 L150,-90.1733 L152.5,-92.203636 L155,-94.233635 L157.5,-96.263 L160,-98.291466 L162.5,-100.318794 L165,-102.344765 L167.5,-104.36918 L170,-106.39186 L172.5,-108.41264 L175,-110.43141 L177.5,-112.44803 L180,-114.4624 L182.5,-116.47446 L185,-118.48412 L187.5,-120.49135 L190,-122.49612 L192.5,-124.49839 L195,-126.498184 L197.5,-128.4955 L200,-130.49037 L202.5,-132.48282 L205,-134.4729 L207.5,-136.46068 L210,-138.44623 L212.5,-140.42961 L215,-142.41093 L217.5,-144.39029 L220,-146.3678 L222.5,-148.34354 L225,-150.31767 L227.5,-152.2903 L230,-154.26155 L232.5,-156.2316 L235,-158.20055 L237.5,-160.16856 L240,-162.1358 L242.5,-164.1024 L245,-166.06854 L247.5,-168.03435 L250,-170 L252.5,-171.96565 L255,-173.93146 L257.5,-175.8976 L260,-177.8642 L262.5,-179.83144 L265,-181.79945 L267.5,-183.7684 L270,-185.73845 L272.5,-187.7097 L275,-189.68233 L277.5,-191.65646 L280,-193.6322 L282.5,-195.60971 L285,-197.58907 L287.5,-199.57039 L290,-201.55377 L292.5,-203.53932 L295,-205.5271 L297.5,-207.51718 L300,-209.50963 L302.5,-211.5045 L305,-213.50182 L307.5,-215.5016 L310,-217.50389 L312.5,-219.50865 L315,-221.51588 L317.5,-223.52554 L320,-225.5376 L322.5,-227.55197 L325,-229.56859 L327.5,-231.58736 L330,-233.60814 L332.5,-235.63083 L335,-237.65523 L337.5,-239.6812 L340,-241.70853 L342.5,-243.737 L345,-245.76637 L347.5,-247.79636 L350,-249.82669 L352.5,-251.85706 L355,-253.8871 L357.5,-255.91646 L360,-257.94473 L362.5,-259.9715 L365,-261.99634 L367.5,-264.0187 L370,-266.03812 L372.5,-268.05405 L375,-270.06592 L377.5,-272.0731 L380,-274.07492 L382.5,-276.07077 L385,-278.05988 L387.5,-280.0415 L390,-282.01486 L392.5,-283.97913 L395,-285.9334 L397.5,-287.8768 L400,-289.80838 L402.5,-291.7271 L405,-293.632 L407.5,-295.5219 L410,-297.39572 L412.5,-299.2523 L415,-301.09033 L417.5,-302.90863 L420,-304.7058 L422.5,-306.48053 L425,-308.23132 L427.5,-309.95673 L430,-311.6552 L432.5,-313.32513 L435,-314.96484 L437.5,-316.57266 L440,-318.1468 L442.5,-319.6854 L445,-321.18655 L447.5,-322.64835 L450,-324.0687 L452.5,-325.4455 L455,-326.77664 L457.5,-328.0598 L460,-329.2928 L462.5,-330.47308 L465,-331.59833 L467.5,-332.66595 L470,-333.67334 L472.5,-334.6178 L475,-335.49655 L477.5,-336.30676 L480,-337.0455 L482.5,-337.70972 L485,-338.29633 L487.5,-338.8021 L490,-339.22372 L492.5,-339.55786 L495,-339.80103 L497.5,-339.94965 L500,-340" fill="none" stroke="red" stroke-width="2"/>
</g>
<g>
<g>
<line stroke="black" stroke-width="1" x1="0" x2="0" y1="0" y2="10"/>
<line stroke="black" stroke-width="1" x1="100" x2="100" y1="0" y2="10"/>
<line stroke="black" stroke-width="1" x1="200" x2="200" y1="0" y2="10"/>
<line stroke="black" stroke-width="1" x1="300.00000000000006" x2="300.00000000000006" y1="0" y2="10"/>
<line stroke="black" stroke-width="1" x1="400" x2="400" y1="0" y2="10"/>
<line stroke="black" stroke-width="1" x1="500" x2="500" y1="0" y2="10"/>
</g>
<line stroke="black" stroke-width="1" x1="0" x2="500" y1="0" y2="0"/>
<g>
<text font-size="12" text-anchor="middle" x="0" y="20">
0
</text>
<text font-size="12" text-anchor="middle" x="100" y="20">
0.2
</text>
<text font-size="12" text-anchor="middle" x="200" y="20">
0.4
</text>
<text font-size="12" text-anchor="middle" x="300.00000000000006" y="20">
0.6000000000000001
</text>
<text font-size="12" text-anchor="middle" x="400" y="20">
0.8
</text>
<text font-size="12" text-anchor="middle" x="500" y="20">
1
</text>
</g>
<text font-size="12" text-anchor="middle" x="250" y="30">

</text>
</g>
<g>
<g>
<line stroke="black" stroke-width="1" x1="0" x2="-10" y1="0" y2="0"/>
<line stroke="black" stroke-width="1" x1="0" x2="-10" y1="-68" y2="-68"/>
<line stroke="black" stroke-width="1" x1="0" x2="-10" y1="-136" y2="-136"/>
<line stroke="black" stroke-width="1" x1="0" x2="-10" y1="-204.00000000000003" y2="-204.00000000000003"/>
<line stroke="black" stroke-width="1" x1="0" x2="-10" y1="-272" y2="-272"/>
<line stroke="black" stroke-width="1" x1="0" x2="-10" y1="-340" y2="-340"/>
</g>
<line stroke="black" stroke-0="1" x1="0" x2="0" y1="0" y2="-340"/>
<g>
<text dominant-baseline="middle" font-size="12" text-anchor="end" x="-15" y="0">
0
</text>
<text dominant-baseline="middle" font-size="12" text-anchor="end" x="-15" y="-68">
0.2
</text>
<text dominant-baseline="middle" font-size="12" text-anchor="end" x="-15" y="-136">
0.4
</text>
<text dominant-baseline="middle" font-size="12" text-anchor="end" x="-15" y="-204.00000000000003">
0.6000000000000001
</text>
<text dominant-baseline="middle" font-size="12" text-anchor="end" x="-15" y="-272">
0.8
</text>
<text dominant-baseline="middle" font-size="12" text-anchor="end" x="-15" y="-340">
1
</text>
</g>
<text font-size="12" text-anchor="middle" transform="rotate(-90 -30 -170)" x="-30" y="-170">

</text>
</g>
</g>
</svg>