<svg viewBox="0 0 600 400" xmlns="http://www.w3.org/2000/svg">
<g transform="translate(50, 360)">
<g>
<path d="M0,0 L0,0 L2.5,-0.0000000000000001328125 L5,-0.000000000000034 L7.5,-0.0000000000008713828 L10,-0.000000000008704 L12.5,-0.000000000051879882 L15,-0.000000000223074 L17.5,-0.0000000007656376 L20,-0.000000002228224 L22.5,-0.0000000057171428 L25,-0.00000001328125 L27.5,-0.00000002846954 L30,-0.000000057106945 L32.5,-0.000000108339236 L35,-0.00000019600323 L37.5,-0.0000003403839 L40,-0.00000057042536 L42.5,-0.0000009264678 L45,-0.0000014635885 L47.5,-0.0000022556294 L50,-0.0000034 L52.5,-0.0000050233484 L55,-0.000007288202 L57.5,-0.000010400678 L60,-0.000014619378 L62.5,-0.00002026558 L65,-0.000027734844 L67.5,-0.000037510174 L70,-0.000050176826 L72.5,-0.00006643897 L75,-0.00008713828 L77.5,-0.00011327459 L80,-0.00014602889 L82.5,-0.00018678865 L85,-0.00023717576 L87.5,-0.0002990772 L90,-0.00037467867 L92.5,-0.00046650117 L95,-0.0005774411 L97.5,-0.00071081374 L100,-0.0008704 L102.5,-0.0010604978 L105,-0.0012859772 L107.5,-0.0015523391 L110,-0.0018657797 L112.5,-0.002233259 L115,-0.0026625735 L117.5,-0.0031624364 L120,-0.0037425607 L122.5,-0.0044137486 L125,-0.0051879883 L127.5,-0.0060785552 L130,-0.00710012 L132.5,-0.008268865 L135,-0.009602604 L137.5,-0.011120914 L140,-0.012845268 L142.5,-0.014799185 L145,-0.017008377 L147.5,-0.019500917 L150,-0.0223074 L152.5,-0.025461128 L155,-0.028998295 L157.5,-0.03295819 L160,-0.037383396 L162.5,-0.042320013 L165,-0.047817893 L167.5,-0.053930864 L170,-0.060716994 L172.5,-0.06823885 L175,-0.07656376 L177.5,-0.08576414 L180,-0.09591774 L182.5,-0.10710798 L185,-0.1194243 L187.5,-0.13296247 L190,-0.14782493 L192.5,-0.16412123 L195,-0.18196832 L197.5,-0.20149101 L200,-0.2228224 L202.5,-0.24610424 L205,-0.27148744 L207.5,-0.29913256 L210,-0.32921016 L212.5,-0.3619015 L215,-0.3973988 L217.5,-0.4359061 L220,-0.47763962 L222.5,-0.5228282 L225,-0.5717143 L227.5,-0.62455416 L230,-0.6816188 L232.5,-0.7431946 L235,-0.8095837 L237.5,-0.88110524 L240,-0.95809555 L242.5,-1.0409092 L245,-1.1299196 L247.5,-1.2255203 L250,-1.328125 L252.5,-1.4381691 L255,-1.5561101 L257.5,-1.682429 L260,-1.8176308 L262.5,-1.9622455 L265,-2.1168294 L267.5,-2.281966 L270,-2.4582667 L272.5,-2.6463723 L275,-2.8469539 L277.5,-3.0607142 L280,-3.2883885 L282.5,-3.5307462 L285,-3.7885914 L287.5,-4.0627646 L290,-4.3541446 L292.5,-4.663649 L295,-4.9922347 L297.5,-5.3409023 L300,-5.7106943 L302.5,-6.1026983 L305,-6.518049 L307.5,-6.9579268 L310,-7.4235635 L312.5,-7.9162416 L315,-8.437297 L317.5,-8.988117 L320,-9.570149 L322.5,-10.184896 L325,-10.833923 L327.5,-11.518855 L330,-12.241381 L332.5,-13.003255 L335,-13.806301 L337.5,-14.652411 L340,-15.5435505 L342.5,-16.481756 L345,-17.469145 L347.5,-18.50791 L350,-19.600323 L352.5,-20.748747 L355,-21.95562 L357.5,-23.223478 L360,-24.554941 L362.5,-25.952724 L365,-27.419643 L367.5,-28.958605 L370,-30.57262 L372.5,-32.26481 L375,-34.03839 L377.5,-35.8967 L380,-37.84318 L382.5,-39.8814 L385,-42.015034 L387.5,-44.247887 L390,-46.58389 L392.5,-49.027096 L395,-51.5817 L397.5,-54.252026 L400,-57.042534 L402.5,-59.957836 L405,-63.002686 L407.5,-66.181984 L410,-69.500786 L412.5,-72.96432 L415,-76.577934 L417.5,-80.3472 L420,-84.2778 L422.5,-88.37564 L425,-92.64678 L427.5,-97.09745 L430,-101.73409 L432.5,-106.56333 L435,-111.591965 L437.5,-116.827034 L440,-122.27574 L442.5,-127.94552 L445,-133.84402 L447.5,-139.9791 L450,-146.35886 L452.5,-152.9916 L455,-159.88586 L457.5,-167.05046 L460,-174.49442 L462.5,-182.22702 L465,-190.25781 L467.5,-198.5966 L470,-207.25343 L472.5,-216.23868 L475,-225.56294 L477.5,-235.23714 L480,-245.27246 L482.5,-255.68039 L485,-266.47275 L487.5,-277.66162 L490,-289.25943 L492.5,-301.27893 L495,-313.7332 L497.5,-326.63562 L500,-340" fill="none" stroke="red" stroke-width="2"/>
</g>
<g>
<g>
<line stroke="black" stroke-width="1" x1="0" x2="0" y1="0" y2="10"/>
<line stroke="black" stroke-width="1" x1="100" x2="100" y1="0" y2="10"/>
<line stroke="black" stroke-width="1" x1="200" x2="200" y1="0" y2="10"/>
<line stroke="black" stroke-width="1" x1="300.00000000000006" x2="300.00000000000006" y1="0" y2="10"/>
<line stroke="black" stroke-width="1" x1="400" x2="400" y1="0" y2="10"/>
<line stroke="black" stroke-width="1" x1="500" x2="500" y1="0" y2="10"/>
</g>
<line stroke="black" stroke-width="1" x1="0" x2="500" y1="0" y2="0"/>
<g>
<text font-size="12" text-anchor="middle" x="0" y="20">
0
</text>
<text font-size="12" text-anchor="middle" x="100" y="20">
0.2
</text>
<text font-size="12" text-anchor="middle" x="200" y="20">
0.4
</text>
<text font-size="12" text-anchor="middle" x="300.00000000000006" y="20">
0.6000000000000001
</text>
<text font-size="12" text-anchor="middle" x="400" y="20">
0.8
</text>
<text font-size="12" text-anchor="middle" x="500" y="20">
1
</text>
</g>
<text font-size="12" text-anchor="middle" x="250" y="30">

</text>
</g>
<g>
<g>
<line stroke="black" stroke-width="1" x1="0" x2="-10" y1="0" y2="0"/>
<line stroke="black" stroke-width="1" x1="0" x2="-10" y1="-68" y2="-68"/>
<line stroke="black" stroke-width="1" x1="0" x2="-10" y1="-136" y2="-136"/>
<line stroke="black" stroke-width="1" x1="0" x2="-10" y1="-204.00000000000003" y2="-204.00000000000003"/>
<line stroke="black" stroke-width="1" x1="0" x2="-10" y1="-272" y2="-272"/>
<line stroke="black" stroke-width="1" x1="0" x2="-10" y1="-340" y2="-340"/>
</g>
<line stroke="black" stroke-0="1" x1="0" x2="0" y1="0" y2="-340"/>
<g>
<text dominant-baseline="middle" font-size="12" text-anchor="end" x="-15" y="0">
0
</text>
<text dominant-baseline="middle" font-size="12" text-anchor="end" x="-15" y="-68">
0.2
</text>
<text dominant-baseline="middle" font-size="12" text-anchor="end" x="-15" y="-136">
0.4
</text>
<text dominant-baseline="middle" font-size="12" text-anchor="end" x="-15" y="-204.00000000000003">
0.6000000000000001
</text>
<text dominant-baseline="middle" font-size="12" text-anchor="end" x="-15" y="-272">
0.8
</text>
<text dominant-baseline="middle" font-size="12" text-anchor="end" x="-15" y="-340">
1
</text>
</g>
<text font-size="12" text-anchor="middle" transform="rotate(-90 -30 -170)" x="-30" y="-170">

</text>
</g>
</g>
</svg>